<svg width="45" height="45" viewBox="0 0 45 45" fill="none" xmlns="http://www.w3.org/2000/svg">
<path d="M7.11371 13.1269L5.83911 12.3442C5.5287 12.8509 5.23951 13.3758 4.97852 13.9025L6.32267 14.5669C6.55877 14.0797 6.82636 13.5954 7.11371 13.1269Z" fill="#F2F2F2"/>
<path d="M4.2874 15.4617C2.93117 18.9352 2.60978 22.7271 3.36129 26.3792L4.8299 26.0794C4.13659 22.7095 4.43309 19.2112 5.6839 16.006L4.2874 15.4617Z" fill="#F2F2F2"/>
<path d="M38.169 1.50319C37.8853 1.37617 37.5522 1.4373 37.3322 1.65694L35.1194 3.8701C26.9886 -1.6295 16.2335 -1.23562 8.52734 4.84454L9.46005 6.01884C16.8251 0.208826 27.1478 -0.0217884 34.7647 5.45402C35.0623 5.67036 35.473 5.63888 35.734 5.37934L36.998 4.11389L36.5378 11.9343L28.7171 12.394L29.7666 11.3446C29.9313 11.1798 30.0103 10.9478 29.98 10.7168C29.9499 10.4858 29.8138 10.2819 29.6121 10.1651C24.9134 7.46366 19.0917 7.64668 14.572 10.6381L15.4059 11.8841C19.155 9.40265 23.9305 9.06661 27.9905 10.9986L26.2627 12.7231C26.0482 12.9376 25.9841 13.2598 26.1002 13.5398C26.2162 13.8202 26.4893 14.0029 26.7927 14.0029C26.8074 14.0036 26.822 14.0036 26.8367 14.0029L37.2912 13.3879C37.6704 13.3659 37.9731 13.0636 37.9958 12.684L38.6104 2.22908C38.6276 1.91903 38.4523 1.63058 38.169 1.50319Z" fill="#F2F2F2"/>
<path d="M35.6734 40.7074L34.7934 39.4935C27.4675 44.8211 17.5449 44.8273 10.2121 39.5093C9.91448 39.2929 9.50377 39.3248 9.24277 39.5843L7.97879 40.8483L8.43818 33.0275L16.2597 32.5678L15.2102 33.6176C15.0455 33.7823 14.9668 34.0141 14.9971 34.2447C15.0275 34.4756 15.1633 34.6792 15.3647 34.7959C20.0509 37.4886 25.8536 37.3148 30.3703 34.3461L29.5357 33.1018C25.7906 35.5628 21.0319 35.8894 16.9856 33.9632L18.7097 32.2387C18.9267 32.0183 18.986 31.687 18.859 31.4052C18.7316 31.123 18.4443 30.948 18.1353 30.9644L7.68118 31.5791C7.30195 31.6014 6.99886 31.9037 6.97653 32.283L6.36156 42.7382C6.34399 43.0487 6.51969 43.3378 6.80339 43.4652C7.08708 43.5926 7.41982 43.5315 7.63982 43.3115L9.85298 41.0987C17.6752 46.4383 28.0093 46.2842 35.669 40.714L35.6734 40.7074Z" fill="#F2F2F2"/>
<path d="M4.65236 36.1873L5.83984 35.2721C0.219073 27.9071 0.0653299 17.7359 5.4606 10.2044C5.67694 9.90641 5.6451 9.4957 5.38556 9.23507L4.12158 7.97108L11.9423 8.43121L12.4017 16.252L11.3522 15.2025C11.1875 15.0374 10.9554 14.9587 10.7245 14.9887C10.4935 15.0191 10.2896 15.1553 10.1728 15.3566C7.47171 20.0545 7.654 25.8748 10.6439 30.3945L11.8896 29.561C9.40887 25.8118 9.07356 21.037 11.0067 16.9782L12.7308 18.7027C12.9512 18.9223 13.2843 18.9835 13.568 18.8561C13.8517 18.7287 14.0274 18.4388 14.0091 18.1284L13.3945 7.67421C13.3721 7.29461 13.0698 6.99188 12.6905 6.96919L2.2353 6.35458C1.92525 6.33811 1.6368 6.51345 1.50832 6.79604C1.37946 7.08193 1.44206 7.41724 1.66499 7.63724L3.87779 9.8504C-1.53835 17.8871 -1.22684 28.4826 4.65236 36.1873Z" fill="#F2F2F2"/>
<path d="M32.5779 28.71L33.6274 29.7598C33.7921 29.9245 34.0242 30.0033 34.2552 29.9732C34.4861 29.9429 34.69 29.807 34.8068 29.6053C37.3531 25.1999 37.3608 19.772 34.8277 15.3592L33.5293 16.1089C35.6224 19.753 35.7878 24.194 33.9715 27.9837L32.2473 26.2556C32.0266 26.0385 31.6957 25.9796 31.4135 26.1066C31.1313 26.2336 30.9563 26.521 30.9727 26.8299L31.5877 37.2841C31.6097 37.6637 31.912 37.9664 32.2916 37.9891L42.7465 38.6037H42.7908C43.0939 38.6033 43.367 38.4207 43.4826 38.1406C43.5983 37.8606 43.5343 37.5381 43.3201 37.324L41.107 35.1108C46.5231 27.0741 46.2116 16.4779 40.3324 8.77319L39.1449 9.6887C44.7657 17.0533 44.9198 27.2249 39.5245 34.7565C39.3082 35.0541 39.34 35.4648 39.5995 35.7258L40.8558 36.9912L33.0351 36.5307L32.5779 28.71Z" fill="#F2F2F2"/>
<path d="M22.4886 26.2297C24.5587 26.2297 26.237 24.5514 26.237 22.4813C26.237 20.4109 24.5587 18.7329 22.4886 18.7329C20.4186 18.7329 18.7402 20.4109 18.7402 22.4813C18.7428 24.5503 20.4193 26.2272 22.4886 26.2297ZM22.4886 20.2323C23.7307 20.2323 24.7377 21.2389 24.7377 22.4813C24.7377 23.7233 23.7307 24.7304 22.4886 24.7304C21.2466 24.7304 20.2396 23.7233 20.2396 22.4813C20.2396 21.2389 21.2466 20.2323 22.4886 20.2323Z" fill="#F2F2F2"/>
<path d="M14.2419 20.2322C13.8279 20.2322 13.4922 20.5679 13.4922 20.9819V23.9806C13.4922 24.3946 13.8279 24.7303 14.2419 24.7303H15.3408C15.4729 25.1487 15.6413 25.555 15.8448 25.9438L15.0666 26.722C14.7737 27.0148 14.7737 27.4892 15.0666 27.7821L17.1875 29.903C17.48 30.1955 17.9548 30.1955 18.2472 29.903L19.0255 29.1255C19.4146 29.3287 19.8205 29.497 20.2393 29.6285V30.7277C20.2393 31.1417 20.575 31.4774 20.989 31.4774H23.9877C24.4017 31.4774 24.7374 31.1417 24.7374 30.7277V29.6285C25.1561 29.4967 25.5621 29.3279 25.9512 29.1248L26.7294 29.903C27.0219 30.1955 27.4967 30.1955 27.7892 29.903L29.9101 27.7821C30.2029 27.4892 30.2029 27.0148 29.9101 26.722L29.1318 25.9438C29.3354 25.555 29.5038 25.1487 29.6359 24.7303H30.7348C31.1488 24.7303 31.4845 24.3946 31.4845 23.9806V20.9819C31.4845 20.5679 31.1488 20.2322 30.7348 20.2322H29.6359C29.5038 19.8135 29.335 19.4071 29.1311 19.0184L29.9101 18.2401C30.2029 17.9473 30.2029 17.4729 29.9101 17.1801L27.7892 15.0591C27.4967 14.7667 27.0219 14.7667 26.7294 15.0591L25.9512 15.8366C25.5621 15.6335 25.1561 15.4655 24.7374 15.3337V14.2348C24.7374 13.8208 24.4017 13.4851 23.9877 13.4851H20.989C20.575 13.4851 20.2393 13.8208 20.2393 14.2348V15.3337C19.8205 15.4655 19.4146 15.6342 19.0255 15.8374L18.2472 15.0591C17.9548 14.7667 17.48 14.7667 17.1875 15.0591L15.0666 17.1801C14.7737 17.4729 14.7737 17.9473 15.0666 18.2401L15.8441 19.0184C15.6409 19.4075 15.4725 19.8135 15.3408 20.2322H14.2419ZM15.9136 21.7316C16.2639 21.7319 16.5674 21.4896 16.6454 21.1481C16.7947 20.491 17.0554 19.864 17.4152 19.2944C17.6022 18.9979 17.559 18.6117 17.3109 18.3639L16.6575 17.7101L17.7175 16.65L18.371 17.3038C18.6188 17.5516 19.005 17.5952 19.3015 17.4081C19.871 17.0479 20.4981 16.7876 21.1555 16.6383C21.4967 16.5603 21.739 16.2565 21.7387 15.9066V14.9845H23.238V15.9066C23.2376 16.2565 23.48 16.5603 23.8211 16.6383C24.4786 16.7876 25.1053 17.0479 25.6752 17.4081C25.9717 17.5952 26.3579 17.5516 26.6057 17.3038L27.2591 16.65L28.3192 17.7101L27.6654 18.3639C27.418 18.6113 27.3748 18.9971 27.5615 19.2937C27.9213 19.8632 28.1816 20.4903 28.3313 21.1474C28.4085 21.4889 28.712 21.7312 29.0623 21.7316H29.9851V23.2309H29.0623C28.712 23.2309 28.4085 23.4733 28.3313 23.8148C28.1816 24.4719 27.9213 25.0989 27.5615 25.6689C27.3748 25.965 27.418 26.3508 27.6654 26.5983L28.3192 27.252L27.2591 28.3121L26.6057 27.6584C26.3579 27.4105 25.9717 27.3673 25.6752 27.554C25.1053 27.9142 24.4786 28.1745 23.8211 28.3242C23.48 28.4018 23.2376 28.7056 23.238 29.056V29.978H21.7387V29.056C21.739 28.7056 21.4967 28.4018 21.1555 28.3242C20.4981 28.1745 19.871 27.9142 19.3015 27.554C19.005 27.3673 18.6188 27.4105 18.371 27.6584L17.7175 28.3121L16.6575 27.252L17.3109 26.5983C17.559 26.3508 17.6022 25.9643 17.4152 25.6681C17.0554 25.0982 16.7947 24.4711 16.6454 23.8141C16.5674 23.4725 16.2639 23.2306 15.9136 23.2309H14.9915V21.7316H15.9136Z" fill="#F2F2F2"/>
</svg>
