<svg width="45" height="45" viewBox="0 0 45 45" fill="none" xmlns="http://www.w3.org/2000/svg">
<path d="M22.4213 5.71816C22.9101 5.71816 23.3064 5.32187 23.3064 4.83302V0.885146C23.3064 0.396299 22.9101 0 22.4213 0C21.9324 0 21.5361 0.396299 21.5361 0.885146V4.83302C21.5362 5.32187 21.9325 5.71816 22.4213 5.71816Z" fill="#F2F2F2"/>
<path d="M44.0578 30.4088L42.4942 28.8495C41.9379 28.294 41.1966 27.9879 40.4066 27.9879C39.9015 27.9879 39.4166 28.1136 38.9869 28.3491L36.0403 25.406L36.1838 25.2626C37.3792 24.0648 37.3788 22.1185 36.1837 20.9248C35.7567 20.4969 35.2238 20.2116 34.6429 20.0916C34.7229 19.8155 34.765 19.5263 34.765 19.2304C34.765 18.4082 34.4456 17.6372 33.8675 17.0615C33.4403 16.6336 32.9075 16.3483 32.3266 16.2282C32.4066 15.9522 32.4487 15.6631 32.4487 15.3671C32.4487 14.5448 32.1293 13.7739 31.5502 13.1973C31.1129 12.7604 30.5753 12.4839 30.0107 12.3662C30.3127 11.325 30.0547 10.1535 29.2355 9.33296C28.5537 8.65401 27.6285 8.36221 26.7368 8.45678L20.8978 7.35156C20.0073 7.18263 18.8952 7.07092 18.1932 7.71121C18.1489 7.75164 18.1038 7.79813 18.0593 7.8499C16.9708 7.45316 15.7013 7.68941 14.8297 8.56005C14.2515 9.13758 13.933 9.90821 13.933 10.73C13.933 11.026 13.9749 11.3151 14.0548 11.5912C13.4746 11.7112 12.9424 11.9961 12.5167 12.4226C11.9373 12.9996 11.6179 13.7693 11.6172 14.5901C11.617 14.8869 11.6591 15.1769 11.7394 15.4538C11.1589 15.5735 10.6264 15.8579 10.1994 16.2843C9.62002 16.8631 9.30098 17.6341 9.30098 18.4555C9.30098 19.0846 9.4888 19.6839 9.83685 20.1902C9.39739 20.3392 8.99485 20.5871 8.65779 20.9238C7.4616 22.1185 7.46116 24.0649 8.65858 25.2645L8.80158 25.4068L5.85461 28.3485C4.7594 27.8328 3.41002 28.026 2.50624 28.9286L0.941611 30.4889C0.385088 31.0447 0.0787012 31.7861 0.0786133 32.5765C0.0786133 33.367 0.385088 34.1085 0.941611 34.6644L2.89428 36.6147C3.24013 36.9602 3.80061 36.9599 4.14602 36.614C4.49151 36.2682 4.49116 35.7077 4.14531 35.3623L2.19265 33.412C1.97099 33.1906 1.84891 32.8939 1.84891 32.5766C1.84891 32.2594 1.97099 31.9628 2.19212 31.7419L3.75684 30.1816C4.14777 29.7911 4.74613 29.7329 5.20053 30.0046C5.23252 30.0527 5.26952 30.0984 5.31188 30.1408C5.38773 30.2168 5.47431 30.2751 5.56624 30.3177L14.5393 39.2776C14.5819 39.3705 14.6404 39.4579 14.7168 39.5344C14.7912 39.6088 14.876 39.6664 14.966 39.7088C15.1557 39.9233 15.2606 40.1973 15.2606 40.4897C15.2606 40.8069 15.1385 41.1036 14.9168 41.325L13.3537 42.8863C12.8918 43.3461 12.1405 43.346 11.6801 42.8877L9.72742 40.9348C9.38175 40.5892 8.82136 40.5892 8.47568 40.9348C8.13001 41.2805 8.13001 41.8409 8.47568 42.1866L10.4298 44.1408C11.0049 44.7136 11.7602 44.9999 12.5159 44.9999C13.2718 44.9999 14.028 44.7132 14.6039 44.1398L16.168 42.5776C16.7245 42.0217 17.031 41.2802 17.031 40.4897C17.031 39.9255 16.8741 39.3867 16.5824 38.9221L19.899 35.6095C19.9025 35.6059 19.906 35.6023 19.9096 35.5987C20.2894 35.2061 21.347 35.2796 22.3698 35.3506C23.0965 35.4011 23.9066 35.4573 24.6982 35.3661L28.3302 38.9938C28.0949 39.4228 27.9693 39.907 27.9693 40.4114C27.9693 41.201 28.2758 41.9421 28.8323 42.498L30.3965 44.0602C30.9527 44.6158 31.694 44.9218 32.484 44.9218C33.2738 44.9218 34.0152 44.6159 34.5715 44.0602L44.0585 34.5847C44.615 34.0289 44.9215 33.2875 44.9215 32.497C44.9214 31.7066 44.6149 30.9651 44.0578 30.4088ZM20.5682 9.09091L24.4079 9.81768L22.1096 12.1151C21.7541 11.9442 21.2668 11.6255 20.7323 11.1142C20.0006 10.4142 19.4772 9.60604 19.4296 9.10199C19.4295 9.10172 19.4295 9.10146 19.4295 9.1012C19.4295 9.10111 19.4294 9.10102 19.4294 9.10093C19.426 9.06472 19.4251 9.03581 19.4255 9.01375C19.5413 8.98562 19.8487 8.95442 20.5682 9.09091ZM16.0807 9.81258C16.5291 9.36461 17.2257 9.31293 17.7324 9.65605C18.0196 10.86 19.0466 11.9511 19.5086 12.3932C19.851 12.7209 20.9497 13.7032 22.0587 13.9732C22.2088 14.1883 22.2904 14.4447 22.2904 14.7152C22.2904 15.0637 22.1564 15.3895 21.9121 15.6335C21.6686 15.8775 21.3423 16.0118 20.9932 16.0118C20.644 16.0118 20.3176 15.8775 20.0729 15.6323L20.0729 15.6323L20.0724 15.6318L16.0806 11.6472C15.8372 11.4042 15.7032 11.0784 15.7032 10.73C15.7033 10.3815 15.8373 10.0557 16.0807 9.81258ZM13.7678 13.6751C14.0113 13.4312 14.3373 13.2968 14.6859 13.2968C15.0349 13.2968 15.3619 13.4315 15.607 13.6763L18.8214 16.8843C19.3275 17.3912 19.3275 18.2162 18.8231 18.7214C18.5783 18.9652 18.2508 19.0995 17.9011 19.0995C17.5514 19.0995 17.2239 18.9653 16.9801 18.7224L16.98 18.7223L14.5415 16.2843C14.5377 16.2805 14.5335 16.277 14.5297 16.2732L13.7668 15.5106C13.522 15.2661 13.3873 14.9397 13.3875 14.5915C13.3879 14.2444 13.5222 13.9196 13.7678 13.6751ZM11.4504 17.5369C11.6942 17.2935 12.0208 17.1594 12.3705 17.1594C12.7172 17.1594 13.0411 17.2915 13.2837 17.5307L15.7297 19.9756C15.9736 20.2185 16.108 20.5439 16.108 20.892C16.108 21.2399 15.9736 21.5654 15.7288 21.8093C15.4851 22.0526 15.1588 22.1866 14.8098 22.1866C14.4602 22.1866 14.1329 22.0522 13.8889 21.8093L13.0021 20.9236C13.002 20.9234 13.0017 20.9232 13.0015 20.923L11.4505 19.3739C11.206 19.1296 11.0714 18.8034 11.0714 18.4553C11.0714 18.1073 11.206 17.781 11.4504 17.5369ZM9.90883 22.1762C10.1536 21.9317 10.4807 21.7971 10.8299 21.7971C11.179 21.7971 11.5061 21.9316 11.7508 22.176L12.6387 23.0629C12.8827 23.3058 13.017 23.6313 13.017 23.9793C13.017 24.3274 12.8826 24.6527 12.6369 24.8976C12.3933 25.1415 12.067 25.2759 11.7179 25.2759C11.3687 25.2759 11.0424 25.1416 10.7971 24.8958L10.6859 24.7851C10.6844 24.7836 10.6832 24.782 10.6818 24.7806C10.6802 24.779 10.6784 24.7776 10.6767 24.7761L9.90971 24.012C9.40355 23.5048 9.40311 22.6814 9.90883 22.1762ZM27.947 32.236C27.6015 31.8901 27.041 31.8898 26.6952 32.2352L25.9077 33.0218C25.1594 33.7701 23.8035 33.6759 22.4923 33.5849C21.0684 33.4859 19.596 33.3838 18.6431 34.362L15.3828 37.6184L7.22983 29.4773L10.1151 26.5972C10.592 26.8896 11.1423 27.0463 11.7181 27.0463C12.5406 27.0463 13.312 26.7274 13.8881 26.1502C14.4681 25.5726 14.7875 24.8017 14.7875 23.9794C14.7875 23.9718 14.787 23.9642 14.787 23.9566C14.7947 23.9566 14.8023 23.9571 14.81 23.9571C15.6314 23.9571 16.4021 23.6392 16.979 23.063C17.559 22.4854 17.8785 21.7144 17.8785 20.8922C17.8785 20.8845 17.878 20.877 17.878 20.8693C17.8857 20.8693 17.8934 20.8698 17.9012 20.8698C18.7224 20.8698 19.4936 20.5523 20.0743 19.9739C20.6773 19.37 20.9755 18.5749 20.9698 17.7815C20.9777 17.7816 20.9856 17.7821 20.9935 17.7821C21.8161 17.782 22.5873 17.4632 23.1643 16.8851C23.7425 16.3076 24.0611 15.537 24.0611 14.7152C24.0611 14.1405 23.9048 13.5911 23.6134 13.1152L26.1423 10.5873C26.3308 10.3997 26.5631 10.2819 26.8067 10.2333C26.833 10.2305 26.8591 10.2263 26.8848 10.2212C27.2756 10.1673 27.6859 10.2879 27.9848 10.5855C28.4909 11.0925 28.4909 11.9175 27.9866 12.4227L27.2164 13.1897C27.2139 13.1922 27.2112 13.1945 27.2086 13.1971L26.3215 14.0827C25.9756 14.4281 25.9752 14.9886 26.3207 15.3344C26.6663 15.6803 27.2267 15.6806 27.5725 15.3352L28.3457 14.563C28.3459 14.5628 28.3461 14.5626 28.3463 14.5625L28.4632 14.446C28.9707 13.9431 29.793 13.9441 30.3001 14.4505C30.5441 14.6934 30.6784 15.0189 30.6784 15.3669C30.6784 15.7149 30.5441 16.0403 30.2981 16.2852L29.5236 17.0614C29.5235 17.0615 29.5234 17.0615 29.5233 17.0617L28.6363 17.9451C28.2899 18.2901 28.2888 18.8506 28.6337 19.1968C28.9787 19.5432 29.5391 19.5443 29.8855 19.1994L30.7765 18.312C31.0201 18.068 31.3464 17.9337 31.6955 17.9337C32.0447 17.9337 32.3711 18.068 32.6164 18.3137C32.8604 18.5567 32.9947 18.8822 32.9947 19.2302C32.9947 19.5782 32.8604 19.9037 32.615 20.148L31.0708 21.6928C30.7252 22.0386 30.7253 22.599 31.071 22.9446C31.2438 23.1174 31.4702 23.2037 31.6967 23.2037C31.9233 23.2037 32.1499 23.1172 32.3227 22.9443L33.0795 22.1872C33.0838 22.1831 33.0885 22.1795 33.0928 22.1752C33.3363 21.9312 33.6627 21.7969 34.0118 21.7969C34.361 21.7969 34.6873 21.9312 34.9317 22.1761C35.4374 22.6812 35.4369 23.5047 34.9317 24.0108L34.1622 24.7794C34.162 24.7797 34.1616 24.7799 34.1614 24.7802C34.1611 24.7804 34.1608 24.7808 34.1606 24.7811L32.9392 26.0009C32.5934 26.3464 32.593 26.9069 32.9385 27.2527C33.1113 27.4258 33.3381 27.5124 33.5648 27.5124C33.7911 27.5124 34.0175 27.426 34.1903 27.2535L34.7877 26.6568L37.6509 29.5167L29.4986 37.6591L26.5776 34.7416C26.7813 34.6107 26.9761 34.4567 27.159 34.2738L27.9461 33.4877C28.2921 33.1424 28.2925 32.5819 27.947 32.236ZM42.8073 33.3322L33.3203 42.8077C33.0984 43.0294 32.8013 43.1514 32.4839 43.1514C32.1664 43.1514 31.8694 43.0294 31.6473 42.8076L30.0832 41.2453C29.8615 41.024 29.7394 40.7278 29.7394 40.4114C29.7394 40.0949 29.8615 39.7988 30.0832 39.5774L39.5702 30.1019C39.7922 29.8801 40.0891 29.758 40.4067 29.758C40.7242 29.758 41.0212 29.8801 41.2438 30.1024L42.8074 31.6617C43.0291 31.8831 43.1512 32.1796 43.1512 32.4969C43.1511 32.8143 43.029 33.1109 42.8073 33.3322Z" fill="#F2F2F2"/>
<path d="M10.6679 4.97194C10.8407 5.14438 11.0669 5.23051 11.2932 5.23051C11.5199 5.23051 11.7468 5.14385 11.9196 4.97062C12.265 4.62459 12.2644 4.0642 11.9184 3.71888L8.693 0.499884C8.34706 0.154562 7.78658 0.155002 7.44126 0.501115C7.09594 0.84714 7.09646 1.40753 7.44249 1.75285L10.6679 4.97194Z" fill="#F2F2F2"/>
<path d="M33.5497 5.23048C33.776 5.23048 34.0024 5.14417 34.1752 4.97164L37.3981 1.75256C37.744 1.40715 37.7444 0.846668 37.3989 0.500818C37.0534 0.154968 36.493 0.154617 36.1471 0.500115L32.9242 3.7192C32.5783 4.06461 32.578 4.62509 32.9235 4.97094C33.0963 5.14399 33.323 5.23048 33.5497 5.23048Z" fill="#F2F2F2"/>
<path d="M5.5215 38.0744C5.17882 38.423 5.18357 38.9835 5.53223 39.3262L5.53478 39.3286C5.70678 39.4977 5.93011 39.5819 6.15335 39.5819C6.38248 39.5819 6.61161 39.4933 6.78519 39.3167C7.12788 38.9681 7.12181 38.4064 6.77324 38.0637C6.42475 37.721 5.86437 37.7259 5.5215 38.0744Z" fill="#F2F2F2"/>
<path d="M30.112 30.9609C30.2466 30.9609 30.3832 30.9302 30.5115 30.8656C30.9479 30.6454 31.1233 30.1132 30.9032 29.6767C30.683 29.2402 30.1507 29.0648 29.7143 29.285L29.7094 29.2874C29.2729 29.5076 29.1 30.0386 29.3201 30.4751C29.4755 30.7834 29.788 30.9609 30.112 30.9609Z" fill="#F2F2F2"/>
</svg>
