<svg width="45" height="45" viewBox="0 0 45 45" fill="none" xmlns="http://www.w3.org/2000/svg">
<path d="M26.5617 21.9675H25.3406V19.2065C25.3406 16.3092 22.9835 13.9521 20.0863 13.9521C17.189 13.9521 14.8319 16.3093 14.8319 19.2065V21.9675H13.6111C13.1811 21.9675 12.8325 22.3161 12.8325 22.7461V34.2244C12.8325 34.6544 13.1811 35.003 13.6111 35.003H26.5617C26.9916 35.003 27.3402 34.6544 27.3402 34.2244V22.7461C27.3402 22.3161 26.9916 21.9675 26.5617 21.9675ZM16.389 19.2066C16.389 17.168 18.0476 15.5093 20.0863 15.5093C22.1249 15.5093 23.7835 17.168 23.7835 19.2066V21.9676H16.389V19.2066ZM25.7831 33.446H14.3896V23.5247H25.7831V33.446Z" fill="#F2F2F2"/>
<path d="M19.3083 29.4956V31.3869C19.3083 31.8169 19.6569 32.1655 20.0869 32.1655C20.5168 32.1655 20.8654 31.8169 20.8654 31.3869V29.4956C21.8062 29.1715 22.4844 28.278 22.4844 27.2286C22.4844 25.9066 21.4088 24.8311 20.0869 24.8311C18.7649 24.8311 17.6895 25.9066 17.6895 27.2286C17.6895 28.278 18.3675 29.1716 19.3083 29.4956ZM20.0869 26.3882C20.5502 26.3882 20.9273 26.7653 20.9273 27.2287C20.9273 27.692 20.5502 28.0691 20.0869 28.0691C19.6235 28.0691 19.2465 27.692 19.2465 27.2287C19.2465 26.7653 19.6235 26.3882 20.0869 26.3882Z" fill="#F2F2F2"/>
<path d="M44.5404 15.3723C44.1327 14.8553 43.5213 14.5589 42.8629 14.5589H40.1729V11.7593C40.1729 10.67 39.2866 9.78379 38.1974 9.78379H19.3972C19.268 9.78379 19.152 9.70209 19.1084 9.58043L18.3004 7.31923C18.0285 6.55812 17.3028 6.04688 16.4946 6.04688H7.0694C6.26127 6.04688 5.53556 6.55822 5.26359 7.31923L4.45546 9.58053C4.41196 9.7022 4.29591 9.78389 4.16677 9.78389H1.97553C0.886296 9.78368 0 10.67 0 11.7593V36.9777C0 38.0671 0.886296 38.9533 1.97553 38.9533H38.1974C39.2474 38.9533 40.1062 38.1293 40.167 37.0943L44.9402 17.1934C45.0937 16.553 44.948 15.8892 44.5404 15.3723ZM38.6158 36.9776C38.6158 37.2084 38.428 37.3961 38.1974 37.3961H1.97553C1.74477 37.3961 1.55709 37.2083 1.55709 36.9776V11.7593C1.55709 11.5286 1.74488 11.3409 1.97553 11.3409H4.16677C4.95217 11.3409 5.65743 10.844 5.92172 10.1043L6.72985 7.84303C6.78102 7.69999 6.91742 7.60386 7.0694 7.60386H16.4946C16.6465 7.60386 16.7829 7.69999 16.8341 7.84313L17.6421 10.1044C17.9065 10.8441 18.6118 11.3409 19.3972 11.3409H38.1974C38.4282 11.3409 38.6158 11.5287 38.6158 11.7593V36.9776ZM43.4261 16.8301L40.1729 30.3936V16.1158H42.8629C43.1073 16.1158 43.2527 16.254 43.3177 16.3364C43.3826 16.4188 43.4831 16.5924 43.4261 16.8301Z" fill="#F2F2F2"/>
</svg>
