<svg width="20" height="20" viewBox="0 0 20 20" fill="none" xmlns="http://www.w3.org/2000/svg">
<path d="M10.0002 3.33333C5.93436 3.33333 2.50019 6.7675 2.50019 10.8333C2.50019 14.8992 5.93436 18.3333 10.0002 18.3333C14.066 18.3333 17.5002 14.8992 17.5002 10.8333C17.5002 6.7675 14.066 3.33333 10.0002 3.33333ZM10.0002 16.6667C6.83852 16.6667 4.16686 13.995 4.16686 10.8333C4.16686 7.67167 6.83852 5 10.0002 5C13.1619 5 15.8335 7.67167 15.8335 10.8333C15.8335 13.995 13.1619 16.6667 10.0002 16.6667Z" fill="#009136"/>
<path d="M10.8335 10V6.66667H9.16686V11.6667H14.1669V10H10.8335Z" fill="#009136"/>
<path d="M14.4034 3.08913L15.5802 1.90894L18.0881 4.40969L16.9113 5.58988L14.4034 3.08913Z" fill="#009136"/>
<path d="M5.58179 3.08917L3.08986 5.58824L1.90967 4.41142L4.40159 1.91235L5.58179 3.08917Z" fill="#009136"/>
</svg>
