<svg width="79" height="79" viewBox="0 0 79 79" fill="none" xmlns="http://www.w3.org/2000/svg">
<path d="M61.7413 20.2507L75.2711 21.2363L76.2568 7.70665L71.6202 7.3689L71.2324 12.692C63.8049 4.65605 53.3461 0 42.2433 0C20.4628 0 2.74341 17.7197 2.74341 39.4999C2.74341 61.2801 20.4631 78.9999 42.2435 78.9999C55.4138 78.9999 67.6785 72.4486 75.0514 61.475L71.1925 58.8824C64.6848 68.5683 53.8628 74.3509 42.2435 74.3509C23.0265 74.3511 7.39236 58.7168 7.39236 39.4999C7.39236 20.2831 23.0263 4.64896 42.2433 4.64896C52.126 4.64896 61.4303 8.83441 67.9954 16.0448L62.0791 15.6139L61.7413 20.2507Z" fill="#11C0AB" fill-opacity="0.2"/>
<path d="M22.8415 43.8656C22.8415 42.371 24.3362 41.4011 26.4597 40.326C28.8979 39.0938 30.6021 37.6779 30.6021 34.6365C30.6021 31.0444 28.2948 28.8159 24.1524 28.8159C20.5866 28.8159 17.9386 30.5201 16.7849 31.831L19.3806 34.6104C20.3243 33.6403 21.8977 32.5391 23.5756 32.5391C24.9388 32.5391 25.8304 33.2732 25.8304 34.6891C25.8304 36.8913 23.6542 37.8352 21.4257 38.8315C17.6502 40.5357 16.7324 42.7906 16.7324 47.641H30.6285V43.8656H22.8415Z" fill="#11C0AB" fill-opacity="0.2"/>
<path d="M44.0524 39.9591V28.9995H41.1684L32.5161 39.9591V43.7083H39.8574V47.6149H44.0524V43.7083H46.3598V39.9591H44.0524ZM40.3294 39.9589H36.6849L40.3294 35.2919V39.9589Z" fill="#11C0AB" fill-opacity="0.2"/>
<path d="M57.7121 33.6141C55.6932 33.6141 53.9366 34.5579 52.9401 36.1836V28.5015H48.7451V47.6414H52.9401V39.7495C53.4647 38.2813 54.8543 37.3112 55.8505 37.3112C57.0566 37.3112 57.8431 38.124 57.8431 39.9069V47.6415H62.0382V38.8319C62.0381 36.4459 61.4087 33.6141 57.7121 33.6141Z" fill="#11C0AB" fill-opacity="0.2"/>
</svg>
