<svg width="45" height="45" viewBox="0 0 45 45" fill="none" xmlns="http://www.w3.org/2000/svg">
<path d="M13.848 20.3708C12.7468 19.2386 10.8808 19.2333 9.76113 20.3417C9.34875 20.7499 9.07541 21.2596 8.96353 21.815L7.5716 20.4525C7.23472 20.1227 7.01508 19.6838 6.95294 19.2166L5.90361 11.3237C5.70858 9.85632 4.44516 8.74969 2.96473 8.74969C1.32996 8.74969 0 10.0796 0 11.7143V23.0502C0 24.135 0.386455 25.1881 1.08826 26.0154L4.80419 30.3964C5.0407 30.6752 5.45695 30.7072 5.73328 30.4727C6.01084 30.2372 6.04512 29.8213 5.80957 29.5436L2.09364 25.1626C1.59372 24.5733 1.31836 23.823 1.31836 23.0502V11.7143C1.31836 10.8066 2.0569 10.068 2.96473 10.068C3.78686 10.068 4.4884 10.6826 4.59668 11.4975L5.64592 19.3904C5.74664 20.1481 6.10295 20.86 6.64928 21.3947L9.77256 24.4519L9.77265 24.452L12.7292 27.3459C12.9819 27.594 13.4031 27.5997 13.6613 27.336C13.9159 27.0758 13.9115 26.6585 13.6513 26.4039L10.6948 23.5099C10.3927 23.2141 10.2257 22.8183 10.2245 22.3956C10.2233 21.9727 10.3881 21.5762 10.6885 21.2788C11.2957 20.6776 12.3095 20.6799 12.907 21.2946L19.0061 27.5079C19.8207 28.3378 20.2693 29.4353 20.2693 30.5981V44.3408C20.2693 44.705 20.5644 45 20.9285 45C21.2926 45 21.5877 44.705 21.5877 44.3408V30.598C21.5877 29.0876 21.005 27.6622 19.947 26.5843L13.848 20.3708ZM7.83316 31.9292C7.59779 31.6516 7.18189 31.6175 6.90407 31.8529C6.62651 32.0884 6.59224 32.5043 6.82778 32.782L10.0076 36.5308C10.3477 36.9317 10.5351 37.4423 10.5351 37.9682V44.3408C10.5351 44.705 10.8301 45 11.1943 45C11.5584 45 11.8535 44.705 11.8535 44.3408V37.9683C11.8535 37.1305 11.555 36.317 11.013 35.678L7.83316 31.9292ZM21.5038 17.5896H23.4962C24.2259 17.5896 24.8195 16.9959 24.8195 16.2662V12.7746H28.3112C29.0409 12.7746 29.6345 12.1809 29.6345 11.4512V9.45879C29.6345 8.72903 29.0409 8.13542 28.3112 8.13542H24.8195V4.64396C24.8195 3.91421 24.2259 3.3206 23.4962 3.3206H21.5038C20.7741 3.3206 20.1805 3.91421 20.1805 4.64396V8.1356H16.6888C15.9591 8.1356 15.3655 8.72921 15.3655 9.45897V11.4514C15.3655 12.1811 15.9591 12.7747 16.6888 12.7747H20.1805V16.2664C20.1805 16.9959 20.7741 17.5896 21.5038 17.5896ZM16.6839 11.4513L16.6889 9.45387H20.5076C21.0542 9.45387 21.4988 9.00914 21.4988 8.46264L21.5038 4.63896L23.5012 4.64396V8.46264C23.5012 9.00923 23.9459 9.45387 24.4924 9.45387H28.3111L28.3161 9.45888L28.3111 11.4563H24.4924C23.9458 11.4563 23.5012 11.9009 23.5012 12.4474L23.4962 16.2712L21.4988 16.2662V12.4474C21.4988 11.9008 21.0541 11.4563 20.5076 11.4563L16.6839 11.4513ZM31.787 15.2546C31.9546 14.9315 31.8286 14.5336 31.5054 14.366C31.1824 14.1983 30.7845 14.3243 30.6168 14.6475C29.0347 17.6972 25.9245 19.5918 22.5 19.5918C17.462 19.5918 13.3633 15.493 13.3633 10.455C13.3633 5.41705 17.462 1.31836 22.5 1.31836C27.538 1.31836 31.6367 5.41705 31.6367 10.455C31.6367 10.9448 31.5975 11.4361 31.5202 11.9152C31.4623 12.2745 31.7066 12.6129 32.066 12.6709C32.4258 12.7294 32.7637 12.4845 32.8218 12.1251C32.9102 11.5769 32.9551 11.0149 32.9551 10.455C32.955 4.69011 28.2649 0 22.5 0C16.7351 0 12.045 4.69011 12.045 10.455C12.045 16.22 16.7351 20.9101 22.5 20.9101C26.4187 20.9101 29.9773 18.7431 31.787 15.2546ZM42.0353 8.74969C40.5548 8.74969 39.2914 9.85632 39.0964 11.3237L38.0471 19.2167C37.9851 19.6838 37.7654 20.1228 37.4285 20.4526L36.0366 21.8151C35.9248 21.2597 35.6513 20.7499 35.239 20.3418C34.114 19.2281 32.2501 19.2425 31.152 20.3709L25.053 26.5843C23.9949 27.6622 23.4122 29.0876 23.4122 30.598V44.3408C23.4122 44.705 23.7073 45 24.0714 45C24.4355 45 24.7306 44.705 24.7306 44.3408V30.598C24.7306 29.4352 25.1792 28.3377 25.9938 27.5078L32.0929 21.2945C32.687 20.6813 33.7036 20.6769 34.3114 21.2787C34.6119 21.5761 34.7767 21.9727 34.7754 22.3955C34.7742 22.8183 34.6072 23.214 34.3051 23.5098L31.3486 26.4038C31.0884 26.6585 31.0839 27.0758 31.3386 27.3359C31.5932 27.596 32.0106 27.6007 32.2707 27.3458L35.2273 24.4519L35.2274 24.4518L38.3506 21.3946C38.897 20.8599 39.2534 20.148 39.354 19.3903L40.4032 11.4974C40.5115 10.6826 41.2131 10.068 42.0352 10.068C42.943 10.068 43.6816 10.8065 43.6816 11.7142V23.0502C43.6816 23.823 43.4062 24.5733 42.9063 25.1626L33.987 35.6781C33.4451 36.3171 33.1466 37.1305 33.1466 37.9684V44.3408C33.1466 44.705 33.4417 45 33.8058 45C34.1699 45 34.465 44.705 34.465 44.3408V37.9683C34.465 37.4424 34.6524 36.9318 34.9925 36.5309L43.9117 26.0154C44.6135 25.1881 45 24.135 45 23.0502V11.7143C45 10.0796 43.67 8.74969 42.0353 8.74969Z" fill="#F2F2F2"/>
</svg>
