<svg width="62" height="62" viewBox="0 0 62 62" fill="none" xmlns="http://www.w3.org/2000/svg">
<path d="M56.724 14.1038C54.1869 10.7215 48.5246 9.78655 41.1165 11.4986C40.9577 11.1177 40.7936 10.7437 40.6244 10.3793C41.2244 9.73125 41.5849 8.89761 41.6461 8.01659C41.7073 7.13557 41.4656 6.26009 40.961 5.53528C40.4564 4.81047 39.7193 4.27987 38.8718 4.03145C38.0243 3.78302 37.1174 3.83169 36.3014 4.16938C34.6401 2.68949 32.8598 1.9375 31 1.9375C28.864 1.9375 26.8362 2.92284 24.9729 4.86615C23.412 6.49389 22.0391 8.72359 20.8832 11.4985C13.4752 9.78668 7.81298 10.7216 5.27618 14.1037C2.39064 17.9501 4.04139 24.2299 9.68 31C9.37242 31.3693 9.07465 31.7395 8.78669 32.1104C7.96883 31.8825 7.09873 31.9298 6.31033 32.2448C5.52193 32.5599 4.85894 33.1253 4.4234 33.8541C3.98786 34.5829 3.80392 35.4347 3.8999 36.2783C3.99587 37.1218 4.36644 37.9105 4.95456 38.5228C3.4094 42.3186 3.51621 45.5487 5.27606 47.8955C6.98276 50.1707 10.1026 51.3389 14.2176 51.3388C16.2198 51.3388 18.4585 51.0611 20.8832 50.5007C22.0388 53.2756 23.412 55.5054 24.9729 57.1331C26.8362 59.0772 28.864 60.0625 31 60.0625C33.136 60.0625 35.1638 59.0772 37.0271 57.1338C38.5877 55.5062 39.9608 53.2769 41.1164 50.5024C41.6346 50.6221 42.1464 50.7292 42.6518 50.8235C42.7587 51.7355 43.186 52.5799 43.8576 53.2062C44.5291 53.8325 45.4012 54.1999 46.3185 54.2431C47.2357 54.2862 48.1385 54.0022 48.8658 53.4416C49.5931 52.8811 50.0978 52.0805 50.2898 51.1826C53.1839 50.7895 55.3999 49.663 56.7238 47.8963C59.6093 44.05 57.959 37.7702 52.3203 31C57.9588 24.2296 59.6093 17.95 56.724 14.1038ZM55.174 15.2663C57.4186 18.2584 55.825 23.6629 51.0288 29.5183C48.892 27.1917 46.5632 25.0491 44.0669 23.1132C43.6118 19.5878 42.8408 16.2364 41.8173 13.3267C48.2241 11.8978 53.1753 12.6017 55.174 15.2664V15.2663ZM39.9283 48.202C37.6499 47.5662 35.4195 46.7697 33.2538 45.8182C35.3493 44.7365 37.3876 43.5476 39.3608 42.2563C40.2115 41.7 41.0465 41.1272 41.866 40.538C41.4484 43.145 40.8001 45.7098 39.9287 48.2021L39.9283 48.202ZM22.0708 48.202C21.1995 45.7096 20.5511 43.1448 20.1333 40.5378C20.9509 41.1251 21.786 41.6979 22.6386 42.2561C24.6118 43.5476 26.6501 44.7365 28.7456 45.8182C26.58 46.7697 24.3496 47.5663 22.0713 48.2021L22.0708 48.202ZM22.0708 13.7978C24.3492 14.4335 26.5796 15.2301 28.7452 16.1815C26.6498 17.2632 24.6114 18.4521 22.6382 19.7435C21.7875 20.2998 20.9525 20.8726 20.1331 21.4618C20.551 18.8548 21.1996 16.2901 22.0713 13.7979L22.0708 13.7978ZM23.6985 40.6346C22.3404 39.7465 21.0175 38.811 19.7591 37.8509C19.2463 33.2979 19.2463 28.7018 19.7591 24.1489C21.0175 23.1887 22.3405 22.2532 23.6985 21.3651C26.0419 19.8303 28.4807 18.4463 31 17.2215C33.5192 18.4463 35.9578 19.8304 38.301 21.3653C39.6592 22.2534 40.982 23.1888 42.2404 24.149C42.4976 26.4236 42.626 28.7109 42.625 31C42.626 33.2891 42.4976 35.5764 42.2404 37.851C40.982 38.8111 39.6591 39.7467 38.301 40.6348C35.9578 42.1696 33.5192 43.5537 31 44.7785C28.4808 43.5537 26.0422 42.1696 23.699 40.6347L23.6985 40.6346ZM17.6481 36.1676C15.7257 34.5762 13.9197 32.8493 12.2439 31C13.92 29.1506 15.7262 27.4234 17.6487 25.8317C17.5094 27.5322 17.4375 29.2621 17.4375 31C17.4375 32.7379 17.5094 34.4672 17.6486 36.1677L17.6481 36.1676ZM39.9287 13.7979C40.8001 16.2903 41.4485 18.855 41.8662 21.4621C41.0486 20.8747 40.2135 20.302 39.3609 19.7437C37.3878 18.4523 35.3494 17.2633 33.2539 16.1816C35.4197 15.2302 37.6502 14.4337 39.9287 13.7979ZM44.3514 25.8323C46.274 27.4237 48.0802 29.1507 49.7561 31C48.08 32.8494 46.2738 34.5766 44.3513 36.1683C44.4906 34.4678 44.5625 32.7379 44.5625 31C44.5625 29.2621 44.4906 27.5328 44.3514 25.8323ZM39.7188 7.75C39.7188 8.1332 39.6051 8.5078 39.3922 8.82642C39.1793 9.14504 38.8767 9.39337 38.5227 9.54002C38.1687 9.68666 37.7791 9.72503 37.4033 9.65027C37.0274 9.57551 36.6822 9.39098 36.4112 9.12002C36.1403 8.84905 35.9557 8.50383 35.881 8.12799C35.8062 7.75215 35.8446 7.36258 35.9912 7.00855C36.1379 6.65452 36.3862 6.35192 36.7048 6.13903C37.0235 5.92613 37.3981 5.8125 37.7813 5.8125C38.2949 5.81311 38.7874 6.01743 39.1506 6.38065C39.5138 6.74387 39.7182 7.23633 39.7188 7.75ZM31 3.875C32.2676 3.875 33.5177 4.37851 34.7263 5.37039C34.2163 6.02408 33.9296 6.8242 33.9083 7.65303C33.887 8.48185 34.1323 9.29563 34.608 9.97465C35.0838 10.6537 35.7649 11.1621 36.5512 11.4251C37.3375 11.6881 38.1874 11.6917 38.976 11.4356C39.0578 11.6164 39.1386 11.7992 39.2182 11.9842C36.3991 12.7885 33.6506 13.8219 31 15.0741C28.349 13.8216 25.6 12.788 22.7805 11.9836C24.9892 6.81467 27.9526 3.875 31 3.875ZM6.82606 15.2663C8.82472 12.6022 13.7756 11.8977 20.1827 13.3269C19.1595 16.236 18.3885 19.5867 17.9334 23.1121C15.4372 25.0485 13.1083 27.1913 10.9712 29.5179C6.17506 23.6632 4.58135 18.2585 6.82606 15.2663ZM7.75001 33.9062C8.13321 33.9062 8.50781 34.0199 8.82643 34.2328C9.14505 34.4457 9.39338 34.7483 9.54003 35.1023C9.68667 35.4563 9.72504 35.8459 9.65028 36.2217C9.57552 36.5976 9.39099 36.9428 9.12003 37.2138C8.84906 37.4847 8.50383 37.6693 8.128 37.744C7.75216 37.8188 7.36259 37.7804 7.00856 37.6338C6.65453 37.4871 6.35193 37.2388 6.13904 36.9202C5.92614 36.6015 5.81251 36.227 5.81251 35.8438C5.81312 35.3301 6.01744 34.8376 6.38066 34.4744C6.74388 34.1112 7.23634 33.9069 7.75001 33.9062ZM6.82618 46.7338C5.25717 44.6411 5.76056 41.8174 6.63025 39.553C7.45788 39.8033 8.34547 39.7695 9.15165 39.4569C9.95782 39.1443 10.6362 38.571 11.0788 37.8282C11.5214 37.0854 11.7027 36.2159 11.5939 35.3581C11.4851 34.5003 11.0923 33.7036 10.4783 33.0949C10.6389 32.8903 10.8031 32.6857 10.971 32.4812C13.1078 34.8081 15.4367 36.951 17.9331 38.8871C18.3882 42.4125 19.1592 45.7639 20.1827 48.6735C13.776 50.1023 8.82484 49.3983 6.82618 46.7338ZM31 58.125C27.9526 58.125 24.9892 55.1853 22.7805 50.0163C25.6 49.212 28.349 48.1784 31 46.9259C33.651 48.1783 36.4 49.212 39.2195 50.0164C37.0109 55.1853 34.0475 58.125 31 58.125ZM46.5 52.3125C46.1168 52.3125 45.7422 52.1989 45.4236 51.986C45.105 51.7731 44.8566 51.4705 44.71 51.1164C44.5634 50.7624 44.525 50.3728 44.5997 49.997C44.6745 49.6212 44.859 49.2759 45.13 49.005C45.401 48.734 45.7462 48.5495 46.122 48.4747C46.4979 48.4 46.8874 48.4383 47.2415 48.585C47.5955 48.7316 47.8981 48.98 48.111 49.2986C48.3239 49.6172 48.4375 49.9918 48.4375 50.375C48.4369 50.8887 48.2326 51.3811 47.8694 51.7443C47.5061 52.1076 47.0137 52.3119 46.5 52.3125ZM55.1736 46.7341C54.1927 48.0431 52.4845 48.9 50.2048 49.239C49.9705 48.4757 49.5061 47.8033 48.8751 47.314C48.2441 46.8246 47.4774 46.5422 46.6798 46.5052C45.8821 46.4682 45.0926 46.6785 44.419 47.1074C43.7455 47.5363 43.2209 48.1628 42.917 48.9012C42.5549 48.8324 42.1884 48.7563 41.8174 48.6729C42.8407 45.7639 43.6116 42.4132 44.0666 38.8879C46.5628 36.9516 48.8918 34.8087 51.0288 32.4821C55.825 38.3368 57.4186 43.7415 55.1736 46.7341Z" fill="#11C0AB"/>
<path d="M31 23.25C29.4672 23.25 27.9688 23.7045 26.6943 24.5561C25.4199 25.4077 24.4265 26.6181 23.8399 28.0342C23.2534 29.4503 23.0999 31.0086 23.3989 32.5119C23.698 34.0153 24.4361 35.3962 25.5199 36.4801C26.6038 37.5639 27.9847 38.3021 29.4881 38.6011C30.9914 38.9001 32.5497 38.7466 33.9658 38.1601C35.3819 37.5735 36.5923 36.5801 37.4439 35.3057C38.2955 34.0312 38.75 32.5328 38.75 31C38.7477 28.9453 37.9304 26.9754 36.4775 25.5225C35.0246 24.0696 33.0547 23.2523 31 23.25ZM31 36.8125C29.8504 36.8125 28.7266 36.4716 27.7708 35.8329C26.8149 35.1942 26.0699 34.2864 25.63 33.2243C25.19 32.1623 25.0749 30.9936 25.2992 29.866C25.5235 28.7385 26.0771 27.7028 26.8899 26.8899C27.7028 26.077 28.7385 25.5235 29.866 25.2992C30.9936 25.0749 32.1623 25.19 33.2244 25.6299C34.2864 26.0699 35.1942 26.8149 35.8329 27.7707C36.4716 28.7266 36.8125 29.8504 36.8125 31C36.8107 32.541 36.1978 34.0184 35.1081 35.1081C34.0184 36.1978 32.541 36.8107 31 36.8125Z" fill="#11C0AB"/>
</svg>
