<svg width="53" height="53" viewBox="0 0 53 53" fill="none" xmlns="http://www.w3.org/2000/svg">
<path d="M26.5 8.6413C27.1336 8.6413 27.6521 8.12282 27.6521 7.48912V6.91304C27.6521 6.27934 27.1336 5.76086 26.5 5.76086C25.8663 5.76086 25.3478 6.27934 25.3478 6.91304V7.48912C25.3478 8.12282 25.8663 8.6413 26.5 8.6413Z" fill="#11C0AB"/>
<path d="M26.5 44.3587C25.8663 44.3587 25.3478 44.8772 25.3478 45.5109V46.087C25.3478 46.7207 25.8663 47.2391 26.5 47.2391C27.1336 47.2391 27.6521 46.7207 27.6521 46.087V45.5109C27.6521 44.8772 27.1336 44.3587 26.5 44.3587Z" fill="#11C0AB"/>
<path d="M7.48912 25.3478H6.91304C6.27934 25.3478 5.76086 25.8663 5.76086 26.5C5.76086 27.1337 6.27934 27.6522 6.91304 27.6522H7.48912C8.12282 27.6522 8.6413 27.1337 8.6413 26.5C8.6413 25.8663 8.12282 25.3478 7.48912 25.3478Z" fill="#11C0AB"/>
<path d="M46.087 25.3478H45.5109C44.8772 25.3478 44.3588 25.8663 44.3588 26.5C44.3588 27.1337 44.8772 27.6522 45.5109 27.6522H46.087C46.7207 27.6522 47.2392 27.1337 47.2392 26.5C47.2392 25.8663 46.7207 25.3478 46.087 25.3478Z" fill="#11C0AB"/>
<path d="M13.4804 11.8674C13.0196 11.4065 12.3283 11.4065 11.8674 11.8674C11.4065 12.3283 11.4065 13.0196 11.8674 13.4804L12.2706 13.8837C12.5011 14.1141 12.7891 14.2293 13.0772 14.2293C13.3652 14.2293 13.6532 14.1141 13.8837 13.8837C14.3446 13.4228 14.3446 12.7315 13.8837 12.2706L13.4804 11.8674Z" fill="#11C0AB"/>
<path d="M12.2706 39.1163L11.8674 39.5196C11.4065 39.9805 11.4065 40.6718 11.8674 41.1326C12.0978 41.3631 12.3859 41.4783 12.6739 41.4783C12.9619 41.4783 13.25 41.3631 13.4804 41.1326L13.8837 40.7294C14.3446 40.2685 14.3446 39.5772 13.8837 39.1163C13.4228 38.6555 12.7315 38.6555 12.2706 39.1163Z" fill="#11C0AB"/>
<path d="M39.5197 11.8674L39.1164 12.2706C38.6555 12.7315 38.6555 13.4228 39.1164 13.8837C39.3468 14.1141 39.6349 14.2293 39.9229 14.2293C40.211 14.2293 40.499 14.1141 40.7294 13.8837L41.1327 13.4804C41.5936 13.0196 41.5936 12.3283 41.1327 11.8674C40.6718 11.4065 39.9805 11.4065 39.5197 11.8674Z" fill="#11C0AB"/>
<path d="M27.6521 26.0391V15.5544C27.6521 14.9207 27.1336 14.4022 26.5 14.4022C25.8663 14.4022 25.3478 14.9207 25.3478 15.5544V26.5C25.3478 26.7881 25.463 27.0761 25.6934 27.3065L38.3097 39.9228C38.5402 40.1533 38.8282 40.2685 39.1163 40.2685C39.4043 40.2685 39.6923 40.1533 39.9228 39.9228C40.3836 39.462 40.3836 38.7707 39.9228 38.3098L27.6521 26.0391Z" fill="#11C0AB"/>
<path d="M26.5 0C11.8674 0 0 11.8674 0 26.5C0 41.1326 11.8674 53 26.5 53C41.1326 53 53 41.1326 53 26.5C53 11.8674 41.1326 0 26.5 0ZM26.5 50.6957C13.1348 50.6957 2.30435 39.8652 2.30435 26.5C2.30435 13.1348 13.1348 2.30435 26.5 2.30435C39.8652 2.30435 50.6957 13.1348 50.6957 26.5C50.6957 39.8652 39.8652 50.6957 26.5 50.6957Z" fill="#11C0AB"/>
</svg>
