<svg width="62" height="62" viewBox="0 0 62 62" fill="none" xmlns="http://www.w3.org/2000/svg">
<g clip-path="url(#clip0)">
<path d="M38.5951 9.61224V6.03823C40.7545 5.28493 42.3086 4.22931 42.3086 1.81635H39.6759C39.6759 2.86245 38.8249 3.71347 37.7788 3.71347C36.7327 3.71347 35.8817 2.86245 35.8817 1.81635V0H9.59717V62H12.2299V2.6327H33.5553C34.1099 4.22309 35.3721 5.48388 36.9623 6.0386V9.61212H23.1549V41.5709L29.26 47.7585H32.125V48.3069C32.125 50.789 34.7335 52.9011 36.9623 53.6596V62H38.595V53.6596C40.8238 52.9012 43.4324 50.789 43.4324 48.3069V47.7585H46.2973L52.4025 41.5709V9.61224H38.5951ZM49.7699 12.2449V18.2645H44.2592V20.8972H49.7699V25.9392H44.2592V28.5719H49.7699V33.6139H25.7876V12.2449H49.7699ZM40.7998 48.3069C40.7998 49.8108 39.685 51.3279 37.7788 51.3279C36.22 51.3279 34.7578 50.1604 34.7578 48.3069V47.7585H40.7998V48.3069ZM45.7785 45.1258H29.7791L25.7877 41.0805V36.2466H49.77V41.0805L45.7785 45.1258Z" fill="#11C0AB"/>
</g>
<defs>
<clipPath id="clip0">
<rect width="62" height="62" fill="white"/>
</clipPath>
</defs>
</svg>
