<svg width="62" height="62" viewBox="0 0 62 62" fill="none" xmlns="http://www.w3.org/2000/svg">
<path d="M13.4072 44.6675C12.9057 44.6675 12.499 45.0742 12.499 45.5757C12.499 46.0773 12.9057 46.484 13.4072 46.484H18.5871C19.0887 46.484 19.4954 46.0773 19.4954 45.5757C19.4954 45.0742 19.0887 44.6675 18.5871 44.6675H13.4072Z" fill="#11C0AB"/>
<path d="M34.9172 29.1194C34.9172 28.6179 34.5106 28.2112 34.009 28.2112H21.0593C20.5578 28.2112 20.1511 28.6179 20.1511 29.1194C20.1511 29.621 20.5578 30.0277 21.0593 30.0277H34.009C34.5106 30.0277 34.9172 29.621 34.9172 29.1194Z" fill="#11C0AB"/>
<path d="M27.9193 50.5449H11.1201C10.2854 50.5449 9.60639 49.8659 9.60639 49.0312V4.43458C9.60639 3.45614 9.28742 2.5506 8.74795 1.81641H44.0155C44.8129 1.81641 45.4617 2.46366 45.4617 3.25912V30.2735C45.4617 30.7751 45.8683 31.1817 46.3699 31.1817C46.8715 31.1817 47.2781 30.7751 47.2781 30.2735V3.25912C47.2782 1.46209 45.8146 0 44.0156 0H5.16647C2.71832 0 0.726562 1.98933 0.726562 4.43458V12.6273C0.726562 13.7958 1.67727 14.7465 2.84571 14.7465H4.91157C5.41314 14.7465 5.81978 14.3398 5.81978 13.8383C5.81978 13.3367 5.41314 12.9301 4.91157 12.9301H2.84571C2.67884 12.9301 2.54297 12.7942 2.54297 12.6273V4.43458C2.54297 2.9909 3.71988 1.81641 5.16647 1.81641C6.61306 1.81641 7.78998 2.9909 7.78998 4.43458V49.0312C7.78998 50.8675 9.28379 52.3613 11.1201 52.3613H27.9193C28.4209 52.3613 28.8275 51.9547 28.8275 51.4531C28.8275 50.9515 28.4209 50.5449 27.9193 50.5449Z" fill="#11C0AB"/>
<path d="M37.2717 25.593C37.2717 25.0914 36.8651 24.6848 36.3635 24.6848H18.7048C18.2033 24.6848 17.7966 25.0914 17.7966 25.593C17.7966 26.0946 18.2033 26.5012 18.7048 26.5012H36.3635C36.8651 26.5012 37.2717 26.0946 37.2717 25.593Z" fill="#11C0AB"/>
<path d="M21.379 42.0494C21.379 41.5479 20.9723 41.1412 20.4708 41.1412H13.4072C12.9057 41.1412 12.499 41.5479 12.499 42.0494C12.499 42.551 12.9057 42.9576 13.4072 42.9576H20.4708C20.9723 42.9576 21.379 42.551 21.379 42.0494Z" fill="#11C0AB"/>
<path d="M53.419 45.1132C52.9197 45.0575 52.4713 45.4168 52.4158 45.9154L50.858 59.9145C50.8409 60.068 50.7116 60.1838 50.5572 60.1838H33.8886C33.7342 60.1838 33.6047 60.068 33.5877 59.9145L32.0299 45.9153C31.9745 45.4168 31.5253 45.0573 31.0268 45.1131C30.5282 45.1685 30.1692 45.6177 30.2246 46.1162L31.7825 60.1154C31.9022 61.1898 32.8076 62.0001 33.8887 62.0001H50.5573C51.6384 62.0001 52.5438 61.1898 52.6634 60.1154L54.2212 46.1163C54.2766 45.6178 53.9175 45.1686 53.419 45.1132Z" fill="#11C0AB"/>
<path d="M61.2316 56.5258L60.2898 52.7644C60.1441 52.1819 59.6423 51.766 59.0507 51.7241V41.3136C59.8475 40.9843 60.3472 40.2267 60.3326 39.355C60.3173 38.4478 59.749 37.6828 58.8849 37.406L43.2387 32.3947C42.5742 32.1819 41.8717 32.1818 41.2071 32.3947L25.5608 37.406C24.6967 37.6827 24.1284 38.4478 24.1131 39.355C24.0978 40.2621 24.64 41.046 25.4943 41.3517L41.1008 46.9373C41.8243 47.1962 42.6214 47.1961 43.345 46.9373L57.2342 41.9664V51.7241C56.6427 51.7658 56.1409 52.1818 55.995 52.7643L55.0531 56.5258C54.9493 56.9404 55.0408 57.3714 55.3036 57.7083C55.5668 58.0454 55.9631 58.2388 56.3909 58.2388H59.8937C60.3217 58.2388 60.718 58.0454 60.9811 57.7082C61.2442 57.3712 61.3353 56.9402 61.2316 56.5258ZM42.733 45.227C42.4041 45.3448 42.0418 45.3448 41.7129 45.227L26.1064 39.6414C25.9574 39.5881 25.9279 39.4729 25.9294 39.3855C25.9308 39.2982 25.9643 39.1839 26.1149 39.1357L41.7612 34.1244C41.9122 34.0761 42.0675 34.0518 42.2228 34.0518C42.3782 34.0518 42.5334 34.0761 42.6846 34.1244L58.3309 39.1358C58.4815 39.184 58.5149 39.2984 58.5164 39.3857C58.5178 39.473 58.4883 39.5883 58.3394 39.6415L42.733 45.227ZM56.9514 56.4224L57.6738 53.537H58.6107L59.3332 56.4224H56.9514Z" fill="#11C0AB"/>
<path d="M20.1511 18.5401C20.1511 19.0417 20.5578 19.4483 21.0593 19.4483H34.009C34.5106 19.4483 34.9172 19.0417 34.9172 18.5401C34.9172 18.0385 34.5106 17.6319 34.009 17.6319H21.0593C20.5578 17.6319 20.1511 18.0385 20.1511 18.5401Z" fill="#11C0AB"/>
<path d="M31.9236 9.35028C31.9236 10.5204 31.467 11.6204 30.6384 12.448C30.1698 12.9159 29.6179 13.2638 28.9983 13.4821C28.5252 13.6488 28.2768 14.1674 28.4434 14.6405C28.5749 15.0138 28.9255 15.2472 29.3001 15.2472C29.4002 15.2472 29.5019 15.2305 29.6018 15.1954C30.4793 14.8863 31.2597 14.3944 31.9219 13.7333C33.0943 12.5627 33.7401 11.006 33.7401 9.35028C33.7401 7.69456 33.0944 6.13802 31.9219 4.96728C31.5668 4.61296 30.9917 4.61344 30.6374 4.96825C30.2831 5.32318 30.2835 5.89825 30.6384 6.25269C31.4672 7.08025 31.9236 8.18027 31.9236 9.35028Z" fill="#11C0AB"/>
<path d="M27.5341 6.09125C27.0326 6.09125 26.6259 6.49788 26.6259 6.99945V8.44217H25.1797C24.6781 8.44217 24.2715 8.8488 24.2715 9.35037C24.2715 9.85194 24.6781 10.2586 25.1797 10.2586H26.6259V11.7013C26.6259 12.2029 27.0326 12.6095 27.5341 12.6095C28.0357 12.6095 28.4423 12.2029 28.4423 11.7013V10.2586H29.8887C30.3902 10.2586 30.7969 9.85194 30.7969 9.35037C30.7969 8.8488 30.3902 8.44217 29.8887 8.44217H28.4423V6.99945C28.4423 6.49788 28.0357 6.09125 27.5341 6.09125Z" fill="#11C0AB"/>
<path d="M23.1465 4.96743C21.974 6.13805 21.3284 7.69459 21.3284 9.35031C21.3284 11.006 21.974 12.5627 23.1466 13.7334C23.8089 14.3946 24.5893 14.8864 25.4666 15.1954C25.5664 15.2305 25.6683 15.2472 25.7683 15.2472C26.1428 15.2472 26.4935 15.0138 26.6249 14.6404C26.7915 14.1673 26.543 13.6488 26.0699 13.4822C25.4504 13.2641 24.8987 12.9162 24.4299 12.4481C23.6012 11.6207 23.1448 10.5206 23.1448 9.35043C23.1448 8.18042 23.6012 7.08028 24.4299 6.25285C24.7849 5.89853 24.7854 5.32345 24.4309 4.96852C24.0765 4.6136 23.5014 4.61299 23.1465 4.96743Z" fill="#11C0AB"/>
</svg>
