<svg width="63" height="63" viewBox="0 0 63 63" fill="none" xmlns="http://www.w3.org/2000/svg">
<path d="M30.9697 35.6057C31.1427 35.6576 31.3213 35.6836 31.5 35.6836C31.6787 35.6836 31.8573 35.6576 32.0303 35.6057C35.9967 34.4158 39.4 32.0307 41.8719 28.7084C44.3438 25.386 45.6504 21.441 45.6504 17.3V6.76758C45.6504 5.74826 44.824 4.92188 43.8047 4.92188C41.4723 4.92188 39.3755 3.62595 38.3325 1.54005L38.0728 1.02043C37.7601 0.39498 37.121 0 36.4219 0H26.5781C25.879 0 25.2399 0.39498 24.9272 1.0203L24.6675 1.53981C23.6245 3.62595 21.5277 4.92188 19.1953 4.92188C18.176 4.92188 17.3496 5.74826 17.3496 6.76758V17.3C17.3496 21.441 18.6562 25.386 21.1281 28.7084C23.6 32.0307 27.0033 34.4158 30.9697 35.6057ZM20.041 7.44138C22.8343 6.91413 26.2628 5.20193 27.7009 2.69141H35.2991C36.7372 5.20181 40.1657 6.91413 42.959 7.44138V17.3001C42.959 23.9762 37.779 30.7753 31.5 32.9009C25.221 30.7753 20.041 23.9762 20.041 17.3001V7.44138Z" fill="#11C0AB"/>
<path d="M29.76 23.1679C30.2324 23.1679 30.7047 22.9877 31.065 22.6272L38.0255 15.6667C38.7463 14.9459 38.7463 13.7773 38.0255 13.0565C37.3049 12.3357 36.1361 12.3357 35.4153 13.0565L29.7599 18.7118L27.5846 16.5367C26.864 15.8159 25.6953 15.8159 24.9744 16.5367C24.2536 17.2575 24.2536 18.4261 24.9744 19.1469L28.4547 22.6272C28.8152 22.9877 29.2876 23.1679 29.76 23.1679Z" fill="#11C0AB"/>
<path d="M55.7602 43.3997C57.1921 41.9537 58.0781 39.9664 58.0781 37.7754C58.0781 33.3653 54.4902 29.7773 50.0801 29.7773C45.67 29.7773 42.082 33.3653 42.082 37.7754C42.082 39.9625 42.9653 41.9467 44.3927 43.3921C41.4435 44.8343 39.1253 47.3674 37.9686 50.4838C37.5438 50.1484 37.0928 49.8451 36.6188 49.5777C37.6447 48.391 38.2676 46.8464 38.2676 45.1582C38.2676 41.4266 35.2316 38.3906 31.5 38.3906C27.7684 38.3906 24.7324 41.4266 24.7324 45.1582C24.7324 46.8464 25.3553 48.391 26.3812 49.5777C25.9071 49.8449 25.4562 50.1484 25.0314 50.4838C23.8747 47.3674 21.5563 44.8343 18.6073 43.3921C20.0347 41.9467 20.918 39.9625 20.918 37.7754C20.918 33.3653 17.33 29.7773 12.9199 29.7773C8.5098 29.7773 4.92188 33.3653 4.92188 37.7754C4.92188 39.9664 5.80794 41.9537 7.23983 43.3997C2.95583 45.5056 0 49.9148 0 55.002V61.1543C0 62.1736 0.826383 63 1.8457 63H61.1543C62.1736 63 63 62.1736 63 61.1543V55.002C63 49.9148 60.0442 45.5056 55.7602 43.3997ZM44.7734 37.7754C44.7734 35 47 32.4688 50.0801 32.4688C53 32.4688 55.3867 35.0508 55.3867 37.7754C55.3867 40.5 53 43.082 50.0801 43.082C47.1602 43.082 44.7734 40.5508 44.7734 37.7754ZM27.4238 45.1582C27.4238 43.082 29 41.082 31.5 41.082C34 41.082 35.5762 43.082 35.5762 45.1582C35.5762 46.8544 34 49.2344 31.5 49.2344C29 49.2344 27.4238 47.2344 27.4238 45.1582ZM7.61328 37.7754C7.61328 34.5 10 32.4688 12.9199 32.4688C15.8398 32.4688 18.2266 35.0508 18.2266 37.7754C18.2266 40.5 16 43.082 12.9199 43.082C9 43.082 7.61328 40.1501 7.61328 37.7754ZM2.69141 55.002C3 49.5 7.83132 44.7734 12.9199 44.7734C17.7062 44.7734 22.6531 49.3954 23.1046 54.1032C22.4244 55.49 22.041 57.0475 22.041 58.6934V60.3086H2.69141V55.002ZM39.2676 60.3086H23.7324V58.6934C23.7324 54.9617 26.3812 50.4838 31.5 50.9258C36.307 50.4838 39.2676 54.9617 39.2676 58.6934V60.3086ZM60.3086 60.3086H40.959V58.6934C40.959 57.0475 40.5756 55.49 39.8954 54.1032C40.347 49.3954 45.2938 44.7734 50.0801 44.7734C55.1687 44.7734 60.3086 49.9133 60.3086 55.002V60.3086Z" fill="#11C0AB"/>
</svg>
