<svg width="91" height="92" viewBox="0 0 91 92" fill="none" xmlns="http://www.w3.org/2000/svg">
<path fill-rule="evenodd" clip-rule="evenodd" d="M75.3662 17.9961C75.3655 17.9764 75.3648 17.9568 75.3634 17.9371C75.3579 17.8592 75.3502 17.7827 75.335 17.7069C75.335 17.7069 75.335 17.7069 75.335 17.7062C75.3197 17.6304 75.2982 17.5553 75.2739 17.4823C75.2676 17.464 75.2614 17.4458 75.2544 17.4275C75.2287 17.3581 75.1996 17.29 75.1662 17.224C75.1642 17.2205 75.1628 17.217 75.1607 17.2135C75.1246 17.1447 75.0829 17.0794 75.0378 17.0155C75.0267 16.9994 75.0149 16.9839 75.0031 16.9678C74.9552 16.9046 74.9052 16.8436 74.849 16.7867L58.7654 0.526427C58.7092 0.469573 58.6488 0.419036 58.5863 0.370605C58.5703 0.358672 58.5544 0.346038 58.5384 0.334808C58.4752 0.289184 58.4113 0.24707 58.344 0.211273C58.3391 0.208465 58.3343 0.207061 58.3301 0.204254C58.2662 0.170562 58.1996 0.141784 58.1322 0.115814C58.1135 0.108795 58.0955 0.102478 58.076 0.0961606C58.0038 0.0715942 57.9309 0.0498351 57.8552 0.0343932C57.8545 0.0343932 57.8538 0.0343932 57.8538 0.0343932C57.7796 0.0196533 57.7039 0.0112304 57.6275 0.00561522C57.6081 0.00491333 57.5886 0.00350951 57.5692 0.00280761C57.5491 0.00210572 57.5289 0 57.5088 0H17.2402C16.2585 0 15.4629 0.804381 15.4629 1.79687V78.7072C15.4629 79.6997 16.2585 80.504 17.2402 80.504H43.9989V90.2029C43.9989 90.8564 44.3502 91.4586 44.9161 91.7752C45.4826 92.0918 46.1734 92.0728 46.7212 91.7254L53.4903 87.4318L60.2595 91.7254C60.5476 91.9079 60.876 91.9998 61.2044 91.9998C61.5002 91.9998 61.7966 91.9254 62.0646 91.7759C62.6304 91.4593 62.9817 90.8571 62.9817 90.2029V80.504H73.5916C74.5733 80.504 75.369 79.6997 75.369 78.7072V18.0572C75.369 18.0368 75.3669 18.0164 75.3662 17.9961ZM59.2861 6.13533L69.301 16.2603H59.2861V6.13533ZM43.1221 55.5002C42.9971 55.1569 42.7937 54.5961 42.7888 54.3666C42.9277 54.1925 43.4095 53.8844 43.7045 53.6963C44.3377 53.292 45.0556 52.8329 45.5763 52.1156C46.1019 51.3905 46.3157 50.5532 46.5046 49.8147C46.5872 49.4919 46.7205 48.9704 46.8343 48.7731C46.8968 48.7598 47.028 48.7408 47.2745 48.7408C47.4724 48.7408 47.6938 48.7521 47.9285 48.764C48.1979 48.7773 48.4756 48.7914 48.7658 48.7914C49.4059 48.7914 49.9225 48.7184 50.3911 48.5604C51.2096 48.2853 51.8643 47.7526 52.442 47.2823C52.7613 47.0226 53.2959 46.5874 53.482 46.5607C53.6854 46.5874 54.2193 47.0226 54.5387 47.2823C55.1163 47.7526 55.7717 48.2853 56.5903 48.5604C57.0589 48.7184 57.5747 48.7914 58.2156 48.7914C58.5051 48.7914 58.7835 48.7773 59.0522 48.764C59.2868 48.7521 59.5083 48.7408 59.7069 48.7408C59.9533 48.7408 60.0838 48.7591 60.147 48.7731C60.2609 48.9704 60.3942 49.4919 60.4761 49.8147C60.665 50.5532 60.8795 51.3905 61.4051 52.1156C61.9251 52.8329 62.6429 53.2913 63.2768 53.6963C63.5712 53.8851 64.053 54.1925 64.1919 54.3666C64.187 54.5961 63.9836 55.1569 63.8593 55.5002C63.5948 56.228 63.2956 57.0535 63.2956 57.968C63.2956 58.8826 63.5948 59.7081 63.8586 60.4366C63.9836 60.7799 64.187 61.3407 64.1919 61.5702C64.053 61.7443 63.5712 62.0517 63.2768 62.2405C62.6429 62.6448 61.9251 63.1039 61.4051 63.8212C60.8795 64.5463 60.665 65.3837 60.4761 66.1221C60.3942 66.4442 60.2602 66.9664 60.147 67.1637C60.0838 67.177 59.9533 67.196 59.7069 67.196C59.5083 67.196 59.2868 67.1847 59.0522 67.1728C58.7835 67.1595 58.5051 67.1454 58.2156 67.1454C57.5747 67.1454 57.0589 67.2184 56.5903 67.3764C55.7717 67.6515 55.1163 68.1849 54.5387 68.6545C54.2242 68.9114 53.6993 69.3375 53.4903 69.3754C53.2814 69.3375 52.7572 68.9114 52.4427 68.6545C51.8643 68.1849 51.2096 67.6515 50.3911 67.3764C49.9225 67.2184 49.4059 67.1454 48.7658 67.1454C48.4763 67.1454 48.1979 67.1595 47.9285 67.1728C47.6945 67.1847 47.4731 67.196 47.2745 67.196C47.028 67.196 46.8975 67.177 46.8343 67.1637C46.7205 66.9664 46.5872 66.4449 46.5046 66.1221C46.3164 65.3837 46.1019 64.5463 45.5763 63.8212C45.0563 63.1039 44.3384 62.6448 43.7045 62.2405C43.4102 62.0524 42.9284 61.7443 42.7895 61.5702C42.7944 61.3414 42.9978 60.7799 43.1221 60.4366C43.3866 59.7088 43.6858 58.8833 43.6858 57.9688C43.6858 57.0535 43.3859 56.228 43.1221 55.5002ZM59.4271 86.9545L54.4352 83.7882C53.8576 83.4226 53.1231 83.4226 52.5454 83.7882L47.5536 86.9545V70.7841C47.7424 70.7785 47.9278 70.7715 48.1076 70.7623C48.343 70.7497 48.5652 70.7385 48.7658 70.7385C49.081 70.7385 49.2157 70.768 49.2678 70.7855C49.4795 70.8571 49.8864 71.1884 50.2134 71.4544C51.043 72.1296 52.0754 72.9698 53.4903 72.9698C54.9053 72.9698 55.9376 72.1296 56.7673 71.4544C57.0943 71.1884 57.5012 70.8571 57.7122 70.7862C57.765 70.7687 57.8997 70.7392 58.2149 70.7392C58.4155 70.7392 58.6377 70.7504 58.873 70.7623C59.0529 70.7715 59.2382 70.7792 59.4264 70.7841V86.9545H59.4271ZM62.9817 76.9103V69.3361C63.5101 68.6103 63.7309 67.7512 63.9176 67.0212C64.0155 66.638 64.1495 66.1136 64.2717 65.9459C64.3932 65.7774 64.8452 65.4889 65.175 65.2784C66.0497 64.7197 67.1384 64.0241 67.5709 62.7087C67.9986 61.4109 67.5535 60.1847 67.196 59.1992C67.0335 58.7521 66.8495 58.2446 66.8495 57.968C66.8495 57.6915 67.0335 57.1847 67.196 56.7376C67.5535 55.7521 67.9986 54.5252 67.5709 53.2274C67.1384 51.9127 66.0497 51.2171 65.175 50.6584C64.8452 50.4479 64.3932 50.1587 64.2717 49.9916C64.1495 49.8232 64.0155 49.2988 63.9176 48.9156C63.6621 47.9154 63.3442 46.6702 62.2555 45.863C61.3891 45.2215 60.3859 45.1471 59.7062 45.1471C59.4187 45.1471 59.141 45.1611 58.873 45.1752C58.6377 45.1871 58.4155 45.1983 58.2156 45.1983C57.8997 45.1983 57.765 45.1688 57.7129 45.1513C57.5018 45.0804 57.095 44.7491 56.768 44.4824C55.9376 43.8079 54.9053 42.9677 53.4903 42.9677C52.0761 42.9677 51.043 43.8079 50.2134 44.4824C49.8864 44.7484 49.4795 45.0804 49.2685 45.1513C49.2164 45.1688 49.081 45.1983 48.7658 45.1983C48.5659 45.1983 48.343 45.1871 48.1076 45.1745C47.8396 45.1611 47.5626 45.1471 47.2745 45.1471C46.5955 45.1471 45.5923 45.2215 44.7265 45.863C43.6372 46.6702 43.3185 47.9154 43.063 48.9156C42.9651 49.2988 42.8312 49.8232 42.7097 49.9909C42.5875 50.1587 42.1355 50.4479 41.8057 50.6584C40.9309 51.2171 39.843 51.9127 39.4098 53.2274C38.9821 54.5259 39.4271 55.7521 39.7847 56.7376C39.9471 57.1847 40.1311 57.6915 40.1311 57.968C40.1311 58.2446 39.9471 58.7521 39.7847 59.1992C39.4271 60.1847 38.9821 61.4109 39.4098 62.7094C39.843 64.0241 40.9316 64.7197 41.8057 65.2784C42.1362 65.4889 42.5875 65.7781 42.7097 65.9459C42.8312 66.1136 42.9651 66.638 43.063 67.0212C43.2498 67.7512 43.4713 68.611 43.9996 69.3361V76.9103H19.0176V3.59374H55.7314V18.0572C55.7314 19.0496 56.5271 19.854 57.5088 19.854H71.8143V76.9103H62.9817Z" fill="#11C0AB" fill-opacity="0.2"/>
<path fill-rule="evenodd" clip-rule="evenodd" d="M25.9248 19.854H48.8234C49.8044 19.854 50.6007 19.0496 50.6007 18.0571C50.6007 17.0646 49.8044 16.2603 48.8234 16.2603H25.9248C24.9431 16.2603 24.1475 17.0646 24.1475 18.0571C24.1475 19.0496 24.9438 19.854 25.9248 19.854Z" fill="#11C0AB" fill-opacity="0.2"/>
<path fill-rule="evenodd" clip-rule="evenodd" d="M65.1055 25.3301H25.9248C24.9431 25.3301 24.1475 26.1345 24.1475 27.127C24.1475 28.1194 24.9431 28.9238 25.9248 28.9238H65.1055C66.0872 28.9238 66.8829 28.1194 66.8829 27.127C66.8829 26.1345 66.0872 25.3301 65.1055 25.3301Z" fill="#11C0AB" fill-opacity="0.2"/>
<path fill-rule="evenodd" clip-rule="evenodd" d="M57.9961 34.4004H25.9248C24.9431 34.4004 24.1475 35.2055 24.1475 36.1973C24.1475 37.1898 24.9431 37.9941 25.9248 37.9941H57.9961C58.9779 37.9941 59.7735 37.1898 59.7735 36.1973C59.7735 35.2055 58.9779 34.4004 57.9961 34.4004Z" fill="#11C0AB" fill-opacity="0.2"/>
<path fill-rule="evenodd" clip-rule="evenodd" d="M65.1057 34.4004C64.1268 34.4004 63.3284 35.2076 63.3284 36.1973C63.3284 37.187 64.1268 37.9941 65.1057 37.9941C66.0853 37.9941 66.8831 37.187 66.8831 36.1973C66.8831 35.2076 66.0853 34.4004 65.1057 34.4004Z" fill="#11C0AB" fill-opacity="0.2"/>
</svg>
