<svg width="35" height="35" viewBox="0 0 35 35" fill="none" xmlns="http://www.w3.org/2000/svg">
<path d="M34.7776 16.8192C34.4649 16.3915 27.0149 6.34613 17.4998 6.34613C7.9848 6.34613 0.534435 16.3915 0.2221 16.8188C-0.0740333 17.2246 -0.0740333 17.775 0.2221 18.1807C0.534435 18.6085 7.9848 28.6538 17.4998 28.6538C27.0149 28.6538 34.4649 18.6084 34.7776 18.1811C35.0741 17.7754 35.0741 17.2246 34.7776 16.8192ZM17.4998 26.3461C10.491 26.3461 4.4206 19.6788 2.62364 17.4992C4.41828 15.3176 10.476 8.65381 17.4998 8.65381C24.5083 8.65381 30.5783 15.32 32.376 17.5008C30.5814 19.6823 24.5237 26.3461 17.4998 26.3461Z" fill="#01120F"/>
<path d="M17.4999 10.5769C13.6826 10.5769 10.5768 13.6827 10.5768 17.5C10.5768 21.3173 13.6826 24.4231 17.4999 24.4231C21.3172 24.4231 24.423 21.3173 24.423 17.5C24.423 13.6827 21.3172 10.5769 17.4999 10.5769ZM17.4999 22.1154C14.9549 22.1154 12.8845 20.045 12.8845 17.5C12.8845 14.9551 14.9549 12.8847 17.4999 12.8847C20.0448 12.8847 22.1152 14.9551 22.1152 17.5C22.1152 20.045 20.0449 22.1154 17.4999 22.1154Z" fill="#01120F"/>
</svg>
