<svg width="65" height="65" viewBox="0 0 65 65" fill="none" xmlns="http://www.w3.org/2000/svg">
<path d="M16.6892 22.7149C16.5738 22.7169 16.4592 22.6962 16.3519 22.6539C16.2445 22.6116 16.1466 22.5486 16.0636 22.4685C15.896 22.3066 15.7995 22.0848 15.7954 21.8519C15.7913 21.6189 15.88 21.3939 16.0418 21.2263C16.2037 21.0586 16.4255 20.9622 16.6584 20.9581C20.9684 20.91 25.2691 20.5459 29.5258 19.8689C29.6014 19.8531 29.6789 19.8478 29.7559 19.8531C30.8229 19.9095 31.858 20.236 32.7644 20.8018C32.914 20.9105 33.0256 21.0637 33.083 21.2395C33.1405 21.4154 33.141 21.6049 33.0844 21.781C33.0278 21.9571 32.9171 22.1109 32.768 22.2204C32.6189 22.3299 32.439 22.3895 32.254 22.3907C32.0472 22.3907 31.8466 22.3197 31.6857 22.1896C31.0936 21.8502 30.4304 21.6538 29.7489 21.616C25.4352 22.2938 21.0783 22.661 16.712 22.7149H16.6892Z" fill="#11C0AB"/>
<path d="M48.8203 43.6115C48.0708 43.6124 47.3404 43.3756 46.7341 42.9351L46.5453 42.8042C46.5207 42.7876 46.4794 42.7542 46.4407 42.7164L36.1013 35.2704C36.0048 35.2045 35.9224 35.12 35.8589 35.0219C35.7955 34.9237 35.7522 34.8139 35.7317 34.6989C35.7112 34.5838 35.7139 34.4658 35.7396 34.3518C35.7653 34.2378 35.8135 34.13 35.8814 34.0349C35.9492 33.9397 36.0354 33.8591 36.1348 33.7976C36.2342 33.7362 36.3449 33.6952 36.4604 33.6771C36.5758 33.659 36.6938 33.6641 36.8072 33.6922C36.9207 33.7202 37.0274 33.7706 37.1211 33.8404L37.8238 34.3411L47.4992 41.318C47.5281 41.3388 47.5557 41.3614 47.5817 41.3857L47.7495 41.5025C48.1305 41.7756 48.6018 41.892 49.0661 41.8278C49.5305 41.7635 49.9524 41.5235 50.245 41.1573C50.4244 40.9308 50.5468 40.6644 50.6017 40.3806C50.6566 40.0969 50.6424 39.8041 50.5603 39.527C50.4617 39.1779 50.2577 38.8678 49.9762 38.639L36.147 27.372C30.8513 30.1828 27.0997 28.737 25.3087 27.5925C25.0127 27.3998 24.7724 27.133 24.6117 26.8185C24.451 26.504 24.3756 26.1529 24.3929 25.8001C24.4103 25.4474 24.5198 25.1054 24.7105 24.8082C24.9012 24.5109 25.1665 24.2689 25.48 24.1062L33.3959 19.9023C33.9012 19.638 34.4538 19.4763 35.0218 19.4265C35.5899 19.3768 36.1621 19.4399 36.7057 19.6124L41.3883 21.132C42.7669 21.5854 44.2621 21.5315 45.6045 20.9801L47.6441 20.1447C47.7509 20.1009 47.8652 20.0786 47.9806 20.079C48.096 20.0794 48.2101 20.1026 48.3166 20.1471C48.423 20.1916 48.5196 20.2567 48.6009 20.3386C48.6822 20.4205 48.7466 20.5176 48.7904 20.6243C48.8342 20.7311 48.8565 20.8454 48.8561 20.9608C48.8557 21.0762 48.8325 21.1903 48.788 21.2968C48.7435 21.4032 48.6784 21.4998 48.5965 21.5811C48.5146 21.6624 48.4175 21.7268 48.3108 21.7706L46.273 22.6051C44.5444 23.3166 42.6183 23.3864 40.8428 22.8018L36.1646 21.2831C35.8442 21.1824 35.507 21.1461 35.1725 21.1763C34.838 21.2064 34.5127 21.3024 34.2155 21.4588L26.2978 25.6636C26.2537 25.6843 26.2162 25.7169 26.1896 25.7577C26.1629 25.7985 26.148 25.8459 26.1467 25.8946C26.143 25.9386 26.1516 25.9828 26.1714 26.0224C26.1913 26.0619 26.2216 26.0952 26.2591 26.1186C28.1037 27.2973 31.2703 28.1617 35.8036 25.5573C35.9577 25.4687 36.1352 25.429 36.3124 25.4434C36.4896 25.4579 36.6583 25.5257 36.7961 25.6381L51.0786 37.2766C51.6386 37.7284 52.0459 38.3418 52.245 39.0334C52.4028 39.5777 52.4293 40.1516 52.3224 40.7081C52.2156 41.2646 51.9783 41.7879 51.6302 42.2351C51.2985 42.6644 50.8727 43.0118 50.3855 43.2504C49.8983 43.489 49.3628 43.6126 48.8203 43.6115Z" fill="#11C0AB"/>
<path d="M45.1855 47.6828C44.4412 47.6835 43.715 47.4524 43.1082 47.0213L33.6129 40.2842C33.4273 40.1477 33.3028 39.9438 33.2662 39.7164C33.2296 39.489 33.2837 39.2563 33.417 39.0684C33.5502 38.8805 33.752 38.7525 33.9787 38.712C34.2054 38.6714 34.439 38.7215 34.6292 38.8515L44.1244 45.5878C44.5228 45.848 45.0063 45.9442 45.474 45.8563C45.9416 45.7684 46.3572 45.5032 46.6339 45.116C46.9105 44.7289 47.0269 44.2499 46.9587 43.7789C46.8904 43.308 46.6429 42.8817 46.2677 42.5891L36.804 35.7684C36.6296 35.6273 36.5158 35.4248 36.4859 35.2025C36.456 34.9801 36.5124 34.7548 36.6434 34.5726C36.7744 34.3905 36.9702 34.2654 37.1905 34.223C37.4108 34.1806 37.639 34.2241 37.8282 34.3446L47.2945 41.1661C47.9107 41.6122 48.3698 42.242 48.606 42.9651C48.8421 43.6882 48.8433 44.4676 48.6092 45.1914C48.3751 45.9152 47.9178 46.5463 47.3029 46.9942C46.688 47.442 45.9471 47.6837 45.1864 47.6845L45.1855 47.6828Z" fill="#11C0AB"/>
<path d="M41.0862 51.2024C40.3791 51.2022 39.6891 50.9855 39.1089 50.5814L30.6001 44.6875C30.4085 44.5548 30.2774 44.3515 30.2357 44.1222C30.194 43.8929 30.2452 43.6564 30.3778 43.4648C30.5105 43.2732 30.7139 43.1421 30.9432 43.1005C31.1725 43.0588 31.4089 43.1099 31.6005 43.2426L40.1094 49.1365C40.2962 49.2657 40.5067 49.3569 40.7288 49.4048C40.9509 49.4527 41.1803 49.4563 41.4038 49.4155C41.6273 49.3747 41.8405 49.2903 42.0314 49.1671C42.2223 49.0438 42.387 48.8842 42.5162 48.6973C42.7732 48.3226 42.873 47.8619 42.7942 47.4144C42.7154 46.9669 42.4642 46.5681 42.0945 46.3037L33.627 40.2974C33.5307 40.2315 33.4485 40.1472 33.3852 40.0493C33.3218 39.9513 33.2786 39.8418 33.2581 39.727C33.2376 39.6122 33.2401 39.4944 33.2655 39.3806C33.291 39.2668 33.3388 39.1592 33.4063 39.0641C33.4738 38.9689 33.5595 38.8882 33.6586 38.8266C33.7576 38.7649 33.8679 38.7237 33.983 38.7051C34.0981 38.6865 34.2158 38.6911 34.3292 38.7185C34.4425 38.7459 34.5493 38.7956 34.6432 38.8647L43.1108 44.8711C43.8561 45.4038 44.3628 46.2075 44.522 47.1097C44.6811 48.0119 44.48 48.9405 43.962 49.696C43.7031 50.0736 43.3719 50.3961 42.9876 50.6449C42.6033 50.8937 42.1735 51.0638 41.723 51.1453C41.5129 51.1837 41.2997 51.2028 41.0862 51.2024Z" fill="#11C0AB"/>
<path d="M36.0672 54.0905C35.4526 54.0875 34.8496 53.9234 34.3183 53.6145L29.5953 50.8915C29.3952 50.7742 29.2496 50.5825 29.1903 50.3582C29.131 50.134 29.1628 49.8954 29.2788 49.6945C29.3948 49.4937 29.5855 49.3468 29.8094 49.286C30.0332 49.2253 30.272 49.2555 30.4737 49.3701L35.1958 52.0931C35.595 52.3184 36.0665 52.3788 36.5096 52.2613C36.9527 52.1438 37.3323 51.8577 37.5674 51.4642C37.7908 51.0869 37.8618 50.6387 37.766 50.2109C37.6702 49.7831 37.4148 49.4079 37.0518 49.162L31.0174 44.9818C30.9226 44.9161 30.8416 44.8323 30.7791 44.7354C30.7167 44.6384 30.6739 44.5301 30.6533 44.4166C30.6327 44.3031 30.6347 44.1866 30.6591 44.0739C30.6835 43.9611 30.7299 43.8543 30.7956 43.7595C30.8613 43.6647 30.945 43.5837 31.042 43.5213C31.139 43.4588 31.2473 43.4161 31.3608 43.3955C31.4743 43.3749 31.5907 43.3768 31.7035 43.4012C31.8162 43.4256 31.923 43.472 32.0178 43.5377L38.0514 47.717C38.6639 48.1411 39.1251 48.7496 39.3676 49.4539C39.6102 50.1583 39.6216 50.9217 39.4 51.633C39.1785 52.3442 38.7356 52.9662 38.136 53.4082C37.5364 53.8503 36.8113 54.0893 36.0663 54.0905H36.0672Z" fill="#11C0AB"/>
<path d="M26.1212 53.5661C25.4026 53.5672 24.7007 53.349 24.1094 52.9407C23.5181 52.5324 23.0654 51.9534 22.8118 51.281C22.5583 50.6086 22.5159 49.8749 22.6904 49.1778C22.8648 48.4807 23.2478 47.8534 23.7882 47.3797L26.1344 45.3243C26.483 45.0182 26.8885 44.7838 27.3278 44.6344C27.767 44.4851 28.2314 44.4237 28.6943 44.4538C29.1573 44.4839 29.6098 44.6049 30.026 44.8099C30.4422 45.0148 30.8139 45.2998 31.12 45.6484C31.4261 45.9971 31.6604 46.4027 31.8097 46.842C31.959 47.2812 32.0203 47.7456 31.9901 48.2086C31.9599 48.6715 31.8389 49.124 31.6338 49.5402C31.4288 49.9564 31.1437 50.3281 30.795 50.6341L28.4489 52.6939C27.8049 53.2582 26.9774 53.5683 26.1212 53.5661ZM28.4638 46.2027C28.033 46.2016 27.6167 46.3577 27.2929 46.6419L24.9459 48.6999C24.7706 48.8537 24.6273 49.0406 24.5241 49.2498C24.421 49.459 24.3601 49.6865 24.3449 49.9192C24.3297 50.152 24.3605 50.3854 24.4355 50.6063C24.5105 50.8271 24.6283 51.031 24.7821 51.2064C25.0927 51.5605 25.5313 51.7767 26.0014 51.8074C26.2341 51.8226 26.4676 51.7918 26.6884 51.7168C26.9093 51.6418 27.1132 51.524 27.2885 51.3702L29.6347 49.3104C29.9053 49.0722 30.097 48.7572 30.1842 48.4073C30.2714 48.0575 30.2501 47.6894 30.123 47.352C29.9958 47.0146 29.769 46.7239 29.4726 46.5186C29.1762 46.3133 28.8244 46.2031 28.4638 46.2027Z" fill="#11C0AB"/>
<path d="M20.8036 51.1735C20.7254 51.1735 20.6472 51.1735 20.569 51.1664C20.1058 51.1374 19.6529 51.0169 19.2365 50.8119C18.8201 50.6069 18.4484 50.3213 18.143 49.9718C17.8327 49.6231 17.5944 49.2165 17.4416 48.7755C17.2889 48.3344 17.2248 47.8675 17.2529 47.4016C17.2811 46.9356 17.401 46.4799 17.6057 46.0604C17.8104 45.6409 18.096 45.266 18.446 44.9572L22.3653 41.5166C22.714 41.2105 23.1195 40.9761 23.5587 40.8267C23.998 40.6773 24.4623 40.616 24.9253 40.6461C25.3883 40.6762 25.8408 40.7971 26.257 41.0021C26.6732 41.2071 27.0449 41.492 27.351 41.8407L26.7159 42.4494L27.3756 41.8697C27.6818 42.2183 27.9163 42.6238 28.0657 43.063C28.2152 43.5023 28.2766 43.9667 28.2465 44.4297C28.2164 44.8927 28.0953 45.3452 27.8903 45.7614C27.6853 46.1776 27.4002 46.5493 27.0515 46.8554L23.1286 50.296C22.4868 50.8626 21.6598 51.1748 20.8036 51.1735ZM24.6904 42.3949C24.2602 42.3938 23.8443 42.55 23.5213 42.8341L19.602 46.2747C19.3396 46.5117 19.1526 46.8205 19.0644 47.1628C18.9762 47.5052 18.9906 47.8659 19.1059 48.2001C19.2211 48.5344 19.4321 48.8273 19.7126 49.0425C19.993 49.2577 20.3306 49.3857 20.6832 49.4106C20.9162 49.4265 21.1499 49.3959 21.3709 49.3205C21.5918 49.2451 21.7955 49.1264 21.9701 48.9714L25.8894 45.5308C26.0648 45.3769 26.2081 45.19 26.3112 44.9807C26.4143 44.7715 26.4752 44.544 26.4904 44.3112C26.5056 44.0784 26.4747 43.8449 26.3996 43.624C26.3245 43.4031 26.2067 43.1992 26.0528 43.0239L26.0273 42.9949C25.874 42.8202 25.6877 42.6776 25.479 42.5752C25.2704 42.4729 25.0436 42.4128 24.8116 42.3985C24.7703 42.3967 24.729 42.3958 24.6895 42.3958L24.6904 42.3949Z" fill="#11C0AB"/>
<path d="M16.3712 47.9489C16.2939 47.9489 16.2157 47.9489 16.1367 47.9419C15.6734 47.9129 15.2205 47.7924 14.8041 47.5874C14.3877 47.3823 14.016 47.0968 13.7106 46.7473L13.6148 46.6331C12.9974 45.9289 12.685 45.0083 12.7461 44.0737C12.8072 43.1391 13.2369 42.2671 13.9407 41.6492L18.4846 37.6605C18.8332 37.3543 19.2387 37.1198 19.6779 36.9704C20.1172 36.8209 20.5816 36.7595 21.0446 36.7896C21.5076 36.8197 21.9601 36.9407 22.3763 37.1458C22.7925 37.3508 23.1642 37.6359 23.4703 37.9846L23.5695 38.0979C24.1871 38.8021 24.4998 39.7227 24.4387 40.6574C24.3775 41.592 23.9477 42.4641 23.2436 43.0818L18.6998 47.0705C18.0571 47.6382 17.2287 47.9507 16.3712 47.9489ZM20.8096 38.5397C20.3794 38.5386 19.9636 38.6948 19.6405 38.9789L15.0967 42.9676C14.7423 43.2785 14.5259 43.7175 14.4951 44.1879C14.4642 44.6584 14.6216 45.1218 14.9324 45.4763L15.0317 45.5896C15.3427 45.9431 15.7814 46.1586 16.2512 46.1889C16.7211 46.2192 17.1838 46.0618 17.5377 45.7512L22.0815 41.7625C22.2569 41.6086 22.4002 41.4218 22.5034 41.2125C22.6065 41.0032 22.6674 40.7757 22.6826 40.5429C22.6977 40.3101 22.6669 40.0766 22.5918 39.8557C22.5167 39.6348 22.3988 39.4309 22.2449 39.2556L22.1474 39.1441C21.994 38.9686 21.8074 38.8254 21.5982 38.7226C21.3891 38.6197 21.1617 38.5594 20.9291 38.545C20.8878 38.5415 20.8492 38.5397 20.8096 38.5397Z" fill="#11C0AB"/>
<path d="M12.5529 44.0393C12.4756 44.0393 12.3965 44.0393 12.3184 44.0314C11.6167 43.9871 10.9439 43.7359 10.385 43.3094C9.82608 42.8829 9.40615 42.3003 9.17828 41.6352C8.9504 40.9701 8.92482 40.2524 9.10475 39.5727C9.28468 38.8931 9.66205 38.2821 10.1892 37.8168L13.0342 35.3196C13.3828 35.0134 13.7883 34.7789 14.2276 34.6295C14.6668 34.48 15.1312 34.4186 15.5942 34.4487C16.0572 34.4788 16.5097 34.5999 16.926 34.8049C17.3422 35.0099 17.7139 35.295 18.0199 35.6437L18.0507 35.6789C18.3568 36.0275 18.5914 36.433 18.7408 36.8722C18.8902 37.3115 18.9516 37.7759 18.9215 38.2389C18.8914 38.7018 18.7704 39.1544 18.5654 39.5706C18.3603 39.9868 18.0753 40.3585 17.7265 40.6645L14.8815 43.1618C14.2387 43.7292 13.4103 44.0414 12.5529 44.0393ZM15.3637 36.198C14.9335 36.1969 14.5177 36.3531 14.1946 36.6372L11.3495 39.1344C11.1741 39.2883 11.0308 39.4752 10.9277 39.6844C10.8245 39.8937 10.7637 40.1212 10.7485 40.354C10.7333 40.5868 10.7642 40.8203 10.8392 41.0412C10.9143 41.2621 11.0322 41.466 11.1861 41.6413C11.3388 41.8221 11.5259 41.9709 11.7365 42.0789C11.9471 42.1869 12.1771 42.252 12.413 42.2705C12.649 42.2889 12.8863 42.2604 13.1111 42.1864C13.336 42.1125 13.5439 41.9947 13.7229 41.8398L16.5679 39.3426C16.7433 39.1887 16.8867 39.0018 16.9898 38.7926C17.0929 38.5833 17.1538 38.3558 17.169 38.123C17.1841 37.8902 17.1533 37.6567 17.0782 37.4358C17.0031 37.2149 16.8852 37.011 16.7313 36.8357L16.7006 36.8005C16.5472 36.6249 16.3604 36.4814 16.1511 36.3784C15.9418 36.2754 15.7142 36.215 15.4814 36.2006C15.4384 36.1997 15.3988 36.198 15.3593 36.198H15.3637Z" fill="#11C0AB"/>
<path d="M10.9595 39.1862C10.7694 39.1866 10.5844 39.1249 10.4325 39.0106L7.4311 36.7268C7.33928 36.6569 7.26212 36.5697 7.20402 36.47C7.14592 36.3704 7.10802 36.2602 7.09248 36.1459C7.07694 36.0316 7.08407 35.9153 7.11346 35.8038C7.14285 35.6922 7.19393 35.5876 7.26377 35.4957C7.40483 35.3103 7.61377 35.1885 7.84464 35.1571C7.95895 35.1416 8.07521 35.1487 8.18676 35.1781C8.29832 35.2075 8.403 35.2586 8.49482 35.3284L11.4962 37.6122C11.6441 37.7231 11.7532 37.8778 11.808 38.0542C11.8629 38.2307 11.8607 38.42 11.8017 38.5952C11.7427 38.7703 11.63 38.9224 11.4796 39.0298C11.3292 39.1372 11.1487 39.1944 10.9639 39.1933L10.9595 39.1862Z" fill="#11C0AB"/>
<path d="M51.4018 40.1595C51.2281 40.1594 51.0583 40.1079 50.9138 40.0114C50.7694 39.9148 50.6569 39.7777 50.5904 39.6172C50.5239 39.4567 50.5066 39.2801 50.5404 39.1098C50.5743 38.9394 50.6579 38.7829 50.7807 38.6601L55.7093 33.7297C55.875 33.5697 56.0969 33.4812 56.3272 33.4832C56.5575 33.4852 56.7778 33.5776 56.9407 33.7404C57.1035 33.9033 57.1959 34.1236 57.1979 34.3539C57.1999 34.5842 57.1114 34.8061 56.9513 34.9718L52.0228 39.9003C51.9414 39.9822 51.8446 40.0473 51.7381 40.0917C51.6315 40.1362 51.5172 40.1592 51.4018 40.1595Z" fill="#11C0AB"/>
<path d="M58.1223 38.3368C57.9721 38.337 57.8243 38.2987 57.6932 38.2255C57.562 38.1523 57.4518 38.0467 57.3731 37.9187L46.648 20.4741C46.5347 20.2896 46.4936 20.0697 46.5325 19.8567C46.5714 19.6436 46.6876 19.4525 46.8589 19.3199L57.4811 11.093C57.5977 11.0027 57.7352 10.9432 57.8808 10.92C58.0264 10.8969 58.1756 10.9107 58.3145 10.9603C58.4534 11.0099 58.5775 11.0937 58.6755 11.204C58.7735 11.3142 58.8421 11.4473 58.8751 11.5911L64.0988 34.3824C64.1422 34.5678 64.124 34.7624 64.0472 34.9366C63.9704 35.1109 63.839 35.2555 63.6728 35.3486L58.551 38.227C58.4199 38.2998 58.2723 38.3376 58.1223 38.3368ZM48.5576 20.2247L58.4271 36.277L62.2402 34.1338L57.4706 13.3232L48.5576 20.2247Z" fill="#11C0AB"/>
<path d="M6.87773 38.6487C6.72729 38.6486 6.57939 38.6099 6.44821 38.5362L1.32638 35.6622C1.16022 35.5691 1.02881 35.4245 0.951975 35.2502C0.875135 35.076 0.857023 34.8814 0.900369 34.696L6.12496 11.9073C6.15794 11.7636 6.22658 11.6304 6.32456 11.5202C6.42253 11.41 6.54669 11.3262 6.68557 11.2766C6.82445 11.2269 6.9736 11.2131 7.11924 11.2363C7.26489 11.2595 7.40235 11.319 7.51895 11.4093L18.1421 19.6353C18.3133 19.7678 18.4295 19.959 18.4684 20.172C18.5073 20.385 18.4662 20.6049 18.3529 20.7895L7.62699 38.2341C7.54785 38.3614 7.43746 38.4663 7.30631 38.5389C7.17516 38.6114 7.02762 38.6492 6.87773 38.6487ZM2.7599 34.4518L6.57294 36.5941L16.4424 20.5409L7.52949 13.6395L2.7599 34.4518Z" fill="#11C0AB"/>
</svg>
