<svg width="54" height="54" viewBox="0 0 54 54" fill="none" xmlns="http://www.w3.org/2000/svg">
<path d="M54 32.0625C54 30.7103 53.4622 29.4502 52.5353 28.521C53.586 27.3712 54.1215 25.8299 53.9752 24.2257C53.712 21.366 51.1357 19.125 48.1073 19.125H34.209C34.8975 17.0347 36 13.203 36 10.125C36 5.24475 31.8533 1.12503 29.25 1.12503C26.9145 1.12503 25.2427 2.44128 25.173 2.49528C24.9052 2.70907 24.7499 3.03307 24.7499 3.375V11.0047L18.2677 25.0425L17.9999 25.1797V24.7499C17.9999 24.1289 17.4959 23.6249 16.8749 23.6249H5.62496C2.52229 23.625 0 26.1473 0 29.25V47.25C0 50.3528 2.52229 52.875 5.62496 52.875H12.375C14.8072 52.875 16.8862 51.3225 17.6692 49.1557C19.5413 50.1188 22.0612 50.625 23.625 50.625H44.2778C46.728 50.625 48.8723 48.9735 49.3763 46.6965C49.635 45.522 49.4842 44.3407 48.9713 43.3147C50.6318 42.48 51.75 40.7632 51.75 38.8125C51.75 38.016 51.5678 37.2532 51.2235 36.5647C52.884 35.7277 54 34.0132 54 32.0625ZM49.2547 34.839C48.8205 34.8908 48.4537 35.1854 48.3143 35.6017C48.1771 36.018 48.2918 36.4747 48.6113 36.7762C49.1828 37.314 49.5001 38.0385 49.5001 38.8125C49.5001 40.2322 48.4268 41.4248 47.0071 41.589C46.5729 41.6408 46.2061 41.9354 46.0666 42.3517C45.9294 42.768 46.0442 43.2247 46.3636 43.5262C47.1039 44.2237 47.4009 45.2024 47.1782 46.2105C46.9014 47.466 45.6819 48.375 44.2779 48.375H23.625C21.798 48.375 18.7335 47.5178 17.6715 46.4535C17.3497 46.134 16.8637 46.0395 16.4452 46.2105C16.0245 46.3838 15.75 46.7955 15.75 47.25C15.75 49.1108 14.2358 50.625 12.375 50.625H5.62496C3.76418 50.625 2.24996 49.1108 2.24996 47.25V29.25C2.24996 27.3892 3.76418 25.875 5.62496 25.875H15.75V27C15.75 27.3893 15.9525 27.7515 16.2854 27.9585C16.614 28.1565 17.0279 28.1767 17.3789 28.0057L19.6289 26.8807C19.8562 26.7682 20.0384 26.5792 20.1464 26.3475L26.8964 11.7224C26.9639 11.5739 26.9999 11.4119 26.9999 11.2499V3.98471C27.468 3.726 28.2803 3.375 29.25 3.375C30.483 3.375 33.75 6.4395 33.75 10.125C33.75 14.085 31.5945 19.7932 31.5743 19.8495C31.4438 20.1938 31.4888 20.5831 31.698 20.889C31.9095 21.1928 32.256 21.375 32.625 21.375H48.1073C49.9837 21.375 51.5768 22.7183 51.7342 24.4328C51.8535 25.7153 51.2369 26.9348 50.1323 27.6166C49.788 27.828 49.5833 28.2106 49.599 28.6178C49.6147 29.025 49.8488 29.3895 50.2087 29.5763C51.1605 30.0601 51.7499 31.014 51.7499 32.0625C51.75 33.4822 50.6768 34.6748 49.2547 34.839Z" fill="#11C0AB"/>
<path d="M16.8749 25.8749C16.2539 25.8749 15.7499 26.379 15.7499 27V47.25C15.7499 47.871 16.2539 48.375 16.8749 48.375C17.4959 48.375 17.9999 47.871 17.9999 47.25V27C17.9999 26.379 17.4959 25.8749 16.8749 25.8749Z" fill="#11C0AB"/>
</svg>
