<svg width="56" height="68" viewBox="0 0 56 68" fill="none" xmlns="http://www.w3.org/2000/svg">
<path d="M12.1831 23.3314L13.8896 24.4329C14.0551 24.5397 14.2428 24.592 14.4295 24.592C14.6717 24.592 14.9125 24.5038 15.1011 24.3319L19.1453 20.6425C19.5517 20.2716 19.5806 19.6416 19.2098 19.2352C18.839 18.8286 18.2091 18.8 17.8027 19.1706L14.3254 22.343L13.2635 21.6575C12.8013 21.3594 12.1848 21.4921 11.8864 21.9542C11.588 22.4164 11.7209 23.033 12.1831 23.3314Z" fill="#11C0AB"/>
<path d="M22.7086 22.7476H36.8538C37.4041 22.7476 37.8499 22.3017 37.8499 21.7515C37.8499 21.2012 37.4041 20.7554 36.8538 20.7554H22.7086C22.1585 20.7554 21.7125 21.2012 21.7125 21.7515C21.7125 22.3017 22.1585 22.7476 22.7086 22.7476Z" fill="#11C0AB"/>
<path d="M22.7086 31.6313H36.8538C37.4041 31.6313 37.8499 31.1855 37.8499 30.6353C37.8499 30.085 37.4041 29.6392 36.8538 29.6392H22.7086C22.1585 29.6392 21.7125 30.085 21.7125 30.6353C21.7125 31.1855 22.1585 31.6313 22.7086 31.6313Z" fill="#11C0AB"/>
<path d="M22.7086 40.5156H34.2622C34.8125 40.5156 35.2583 40.0698 35.2583 39.5195C35.2583 38.9693 34.8125 38.5234 34.2622 38.5234H22.7086C22.1585 38.5234 21.7125 38.9693 21.7125 39.5195C21.7125 40.0698 22.1585 40.5156 22.7086 40.5156Z" fill="#11C0AB"/>
<path d="M22.7086 49.4033H27.0553C27.6054 49.4033 28.0514 48.9575 28.0514 48.4072C28.0514 47.857 27.6054 47.4111 27.0553 47.4111H22.7086C22.1585 47.4111 21.7125 47.857 21.7125 48.4072C21.7125 48.9575 22.1585 49.4033 22.7086 49.4033Z" fill="#11C0AB"/>
<path d="M17.8026 27.3677L14.3244 30.5409L13.2622 29.8575C12.7994 29.56 12.1831 29.6936 11.8854 30.1563C11.5878 30.6189 11.7215 31.2353 12.1843 31.5329L13.8908 32.6309C14.056 32.7371 14.2431 32.7892 14.4295 32.7892C14.6717 32.7892 14.9125 32.701 15.1011 32.529L19.1452 28.8395C19.5516 28.4687 19.5806 27.8386 19.2098 27.4322C18.8391 27.0257 18.209 26.997 17.8026 27.3677Z" fill="#11C0AB"/>
<path d="M12.1831 39.729L13.8896 40.8306C14.0551 40.9374 14.2428 40.9897 14.4295 40.9897C14.6717 40.9897 14.9125 40.9015 15.1011 40.7295L19.1453 37.0401C19.5517 36.6693 19.5806 36.0392 19.2098 35.6328C18.839 35.2263 18.2091 35.1977 17.8027 35.5683L14.3254 38.7406L13.2635 38.0552C12.8013 37.757 12.1848 37.8897 11.8864 38.3519C11.588 38.8141 11.7209 39.4306 12.1831 39.729Z" fill="#11C0AB"/>
<path d="M12.1831 47.9257L13.8896 49.0274C14.0551 49.1343 14.2428 49.1867 14.4297 49.1867C14.6719 49.1867 14.9127 49.0985 15.1013 48.9265L19.1454 45.2369C19.5518 44.8661 19.5808 44.2361 19.21 43.8297C18.8393 43.4231 18.2091 43.3944 17.8028 43.7651L14.3255 46.9376L13.2637 46.2522C12.8015 45.9535 12.1849 46.0863 11.8866 46.5487C11.5881 47.0108 11.7209 47.6273 12.1831 47.9257Z" fill="#11C0AB"/>
<path d="M48.4672 51.3916H46.2556V49.18C46.2556 48.4041 45.6245 47.7729 44.8487 47.7729H40.7561C39.9804 47.7729 39.3492 48.4041 39.3492 49.18V51.3916H37.1377C36.3599 51.3916 35.7271 52.0244 35.7271 52.8022V56.8912C35.7271 57.6689 36.3599 58.3018 37.1377 58.3018H39.3492V60.5134C39.3492 61.2893 39.9804 61.9204 40.7561 61.9204H44.8487C45.6245 61.9204 46.2556 61.2893 46.2556 60.5134V58.3018H48.4672C49.245 58.3018 49.8778 57.6689 49.8778 56.8912V52.8022C49.8779 52.0244 49.2451 51.3916 48.4672 51.3916ZM47.8858 56.3096H45.8459C44.9735 56.3096 44.2636 57.0178 44.2636 57.8883V59.9282H41.3416V57.8883C41.3416 57.0178 40.6317 56.3096 39.7592 56.3096H37.7192V53.3837H39.7591C40.6315 53.3837 41.3414 52.6756 41.3414 51.805V49.7651H44.2634V51.805C44.2634 52.6756 44.9733 53.3837 45.8458 53.3837H47.8856V56.3096H47.8858Z" fill="#11C0AB"/>
<path d="M50.4939 44.1826V29.5785C50.4939 29.0283 50.0481 28.5824 49.4978 28.5824C48.9476 28.5824 48.5018 29.0283 48.5018 29.5785V42.9931C47.4762 42.4981 46.3766 42.1333 45.225 41.9181V12.2439C45.225 11.3403 44.4883 10.6053 43.5829 10.6053H37.6706V7.32859H47.5337C48.0676 7.32859 48.5018 7.7613 48.5018 8.29308V25.0152C48.5018 25.5655 48.9476 26.0113 49.4978 26.0113C50.0481 26.0113 50.4939 25.5655 50.4939 25.0152V8.29295C50.4939 6.66267 49.1659 5.33627 47.5337 5.33627H37.5654C37.3262 4.68164 36.7002 4.21215 35.965 4.21215H32.4583C32.0901 3.55486 31.6327 2.95123 31.0941 2.4128C29.5384 0.856906 27.4688 0 25.2666 0C23.0627 0 20.9942 0.857172 19.4426 2.4128C18.9017 2.95375 18.4438 3.55619 18.0755 4.21228H14.5717C13.835 4.21228 13.2076 4.68164 12.9679 5.33641H2.99939C1.36911 5.33641 0.0428467 6.66267 0.0428467 8.29308V61.1038C0.0428467 62.734 1.36911 64.0604 2.99939 64.0604H33.4246C35.8127 66.4902 39.1344 68 42.8025 68C50.0559 68 55.9572 62.0986 55.9572 54.8449C55.9572 50.4621 53.801 46.5738 50.4939 44.1826ZM14.8546 6.20447H18.5412L18.5746 6.20527C19.0507 6.21695 19.4272 5.98666 19.6265 5.54705L19.6365 5.525C19.9379 4.89945 20.3467 4.32637 20.8523 3.82062C22.0282 2.64164 23.5958 1.99219 25.2666 1.99219C26.9366 1.99219 28.506 2.64191 29.6854 3.82155C30.1854 4.32145 30.5929 4.89454 30.8965 5.52487C30.8986 5.52925 30.9008 5.53363 30.903 5.53815L30.917 5.56697C31.1797 6.11363 31.629 6.21722 31.9606 6.20513L35.6783 6.20447V12.1254H14.8546V6.20447ZM2.99939 62.0681C2.4676 62.0681 2.03503 61.6355 2.03503 61.1037V8.29295C2.03503 7.76116 2.4676 7.32846 2.99939 7.32846H12.8624V10.6053H6.95016C6.04677 10.6053 5.31178 11.3403 5.31178 12.2439V37.0696C5.31178 37.6198 5.75777 38.0657 6.30788 38.0657C6.85799 38.0657 7.30397 37.6198 7.30397 37.0696V12.5977H12.8731C12.9662 13.4511 13.6921 14.1176 14.5717 14.1176H35.9652C36.8428 14.1176 37.5673 13.4511 37.6601 12.5977H43.2329V41.7015C43.09 41.6969 42.9466 41.6937 42.8026 41.6937C35.5491 41.6937 29.6478 47.5934 29.6478 54.8449C29.6478 55.5089 29.6978 56.1612 29.7931 56.799H7.30397V41.633C7.30397 41.0828 6.85799 40.6369 6.30788 40.6369C5.75777 40.6369 5.31178 41.0828 5.31178 41.633V57.1528C5.31178 58.0562 6.04677 58.7912 6.95016 58.7912H30.2526C30.6217 59.9623 31.1509 61.0629 31.8137 62.0681H2.99939ZM42.8025 66.0078C36.6474 66.0078 31.6399 61.0003 31.6399 54.8449C31.6399 48.6917 36.6474 43.6859 42.8025 43.6859C48.9576 43.6859 53.965 48.6917 53.965 54.8449C53.965 61.0003 48.9576 66.0078 42.8025 66.0078Z" fill="#11C0AB"/>
</svg>
