<svg width="62" height="62" viewBox="0 0 62 62" fill="none" xmlns="http://www.w3.org/2000/svg">
<path d="M23.2499 25.8333C16.1277 25.8333 10.3333 20.0389 10.3333 12.9167C10.3333 5.79442 16.1277 0 23.2499 0C30.3722 0 36.1666 5.79442 36.1666 12.9167C36.1666 20.0389 30.3722 25.8333 23.2499 25.8333ZM23.2499 2.58333C17.5511 2.58333 12.9166 7.21783 12.9166 12.9167C12.9166 18.6155 17.5511 23.25 23.2499 23.25C28.9487 23.25 33.5832 18.6155 33.5832 12.9167C33.5832 7.21783 28.9487 2.58333 23.2499 2.58333Z" fill="#11C0AB"/>
<path d="M24.5417 54.25H1.29167C0.578667 54.25 0 53.6713 0 52.9583V42.625C0 36.2157 5.21575 31 11.625 31H34.875C35.588 31 36.1667 31.5787 36.1667 32.2917C36.1667 33.0047 35.588 33.5833 34.875 33.5833H11.625C6.63917 33.5833 2.58333 37.6392 2.58333 42.625V51.6667H24.5417C25.2547 51.6667 25.8333 52.2453 25.8333 52.9583C25.8333 53.6713 25.2547 54.25 24.5417 54.25Z" fill="#11C0AB"/>
<path d="M47.7917 62H45.2083C43.0719 62 41.3333 60.2614 41.3333 58.125V51.6667H34.875C32.7386 51.6667 31 49.9281 31 47.7917V45.2083C31 43.0719 32.7386 41.3333 34.875 41.3333H41.3333V34.875C41.3333 32.7386 43.0719 31 45.2083 31H47.7917C49.9281 31 51.6667 32.7386 51.6667 34.875V41.3333H58.125C60.2614 41.3333 62 43.0719 62 45.2083V47.7917C62 49.9281 60.2614 51.6667 58.125 51.6667H51.6667V58.125C51.6667 60.2614 49.9281 62 47.7917 62ZM34.875 43.9167C34.162 43.9167 33.5833 44.4953 33.5833 45.2083V47.7917C33.5833 48.5047 34.162 49.0833 34.875 49.0833H42.625C43.338 49.0833 43.9167 49.662 43.9167 50.375V58.125C43.9167 58.838 44.4953 59.4167 45.2083 59.4167H47.7917C48.5047 59.4167 49.0833 58.838 49.0833 58.125V50.375C49.0833 49.662 49.662 49.0833 50.375 49.0833H58.125C58.838 49.0833 59.4167 48.5047 59.4167 47.7917V45.2083C59.4167 44.4953 58.838 43.9167 58.125 43.9167H50.375C49.662 43.9167 49.0833 43.338 49.0833 42.625V34.875C49.0833 34.162 48.5047 33.5833 47.7917 33.5833H45.2083C44.4953 33.5833 43.9167 34.162 43.9167 34.875V42.625C43.9167 43.338 43.338 43.9167 42.625 43.9167H34.875Z" fill="#11C0AB"/>
</svg>
