<svg width="35" height="35" viewBox="0 0 35 35" fill="none" xmlns="http://www.w3.org/2000/svg">
<path d="M25.3041 34.054H9.69597C9.19421 34.054 8.713 33.8547 8.3582 33.4999C8.0034 33.1451 7.80408 32.6639 7.80408 32.1621V2.83782C7.80408 2.33605 8.0034 1.85484 8.3582 1.50005C8.713 1.14525 9.19421 0.945923 9.69597 0.945923H25.3041C25.8058 0.945923 26.287 1.14525 26.6418 1.50005C26.9966 1.85484 27.196 2.33605 27.196 2.83782V32.1621C27.196 32.6639 26.9966 33.1451 26.6418 33.4999C26.287 33.8547 25.8058 34.054 25.3041 34.054ZM9.69597 2.30203C9.44509 2.30203 9.36526 2.35838 9.26272 2.46092C9.19631 2.52733 9.09182 2.58693 9.09182 2.83782V17.5V32.1621C9.09182 32.413 9.09182 32.4707 9.19436 32.5732C9.31907 32.6979 9.44509 32.6979 9.69597 32.6979H17.5H25.3041C25.555 32.6979 25.669 32.6758 25.7715 32.6074C25.8399 32.5049 25.8399 32.413 25.8399 32.1621V17.5V2.83782C25.8399 2.58693 25.8057 2.4951 25.7031 2.42674C25.6348 2.30203 25.555 2.30203 25.3041 2.30203H17.5H9.69597Z" fill="#11C0AB"/>
<path d="M26.723 6.14864H8.27705C8.15161 6.14864 8.03131 6.09881 7.94261 6.01011C7.85391 5.92141 7.80408 5.80111 7.80408 5.67567C7.80408 5.55023 7.85391 5.42993 7.94261 5.34123C8.03131 5.25253 8.15161 5.2027 8.27705 5.2027H26.723C26.8484 5.2027 26.9687 5.25253 27.0574 5.34123C27.1461 5.42993 27.196 5.55023 27.196 5.67567C27.196 5.80111 27.1461 5.92141 27.0574 6.01011C26.9687 6.09881 26.8484 6.14864 26.723 6.14864Z" fill="#11C0AB"/>
<path d="M26.723 27.9054H8.27705C8.15161 27.9054 8.03131 27.8556 7.94261 27.7669C7.85391 27.6782 7.80408 27.5579 7.80408 27.4324C7.80408 27.307 7.85391 27.1867 7.94261 27.098C8.03131 27.0093 8.15161 26.9595 8.27705 26.9595H26.723C26.8484 26.9595 26.9687 27.0093 27.0574 27.098C27.1461 27.1867 27.196 27.307 27.196 27.4324C27.196 27.5579 27.1461 27.6782 27.0574 27.7669C26.9687 27.8556 26.8484 27.9054 26.723 27.9054Z" fill="#11C0AB"/>
<path d="M17.5001 32.1144C17.1551 32.1144 16.8178 32.0121 16.531 31.8204C16.2441 31.6287 16.0205 31.3563 15.8885 31.0376C15.7565 30.7188 15.7219 30.3681 15.7893 30.0298C15.8566 29.6914 16.0227 29.3806 16.2666 29.1366C16.5106 28.8927 16.8214 28.7266 17.1598 28.6592C17.4981 28.5919 17.8489 28.6265 18.1676 28.7585C18.4863 28.8905 18.7587 29.1141 18.9504 29.401C19.1421 29.6878 19.2444 30.0251 19.2444 30.3701C19.2439 30.8325 19.0599 31.2759 18.7329 31.6029C18.4059 31.9299 17.9625 32.1139 17.5001 32.1144ZM17.5001 29.5722C17.3421 29.5722 17.1878 29.619 17.0565 29.7067C16.9252 29.7945 16.8228 29.9192 16.7624 30.0651C16.702 30.211 16.6862 30.3716 16.7171 30.5265C16.7479 30.6813 16.824 30.8236 16.9357 30.9352C17.0474 31.0469 17.1897 31.1229 17.3446 31.1536C17.4995 31.1844 17.66 31.1685 17.8059 31.108C17.9518 31.0475 18.0764 30.9451 18.1641 30.8137C18.2518 30.6824 18.2985 30.528 18.2984 30.3701C18.2982 30.1584 18.214 29.9556 18.0643 29.806C17.9146 29.6564 17.7117 29.5723 17.5001 29.5722Z" fill="#11C0AB"/>
<path d="M19.3919 4.27523H15.6081C15.4827 4.27523 15.3624 4.2254 15.2737 4.1367C15.185 4.048 15.1351 3.9277 15.1351 3.80226C15.1351 3.67682 15.185 3.55651 15.2737 3.46782C15.3624 3.37912 15.4827 3.32928 15.6081 3.32928H19.3919C19.5173 3.32928 19.6376 3.37912 19.7263 3.46782C19.815 3.55651 19.8649 3.67682 19.8649 3.80226C19.8649 3.9277 19.815 4.048 19.7263 4.1367C19.6376 4.2254 19.5173 4.27523 19.3919 4.27523Z" fill="#11C0AB"/>
</svg>
