<svg width="84" height="84" viewBox="0 0 84 84" fill="none" xmlns="http://www.w3.org/2000/svg">
<path d="M61.8514 0C49.6387 0 39.703 9.93579 39.703 22.1484C39.703 25.9527 40.6762 29.6671 42.5273 32.9638L39.8293 41.0578C39.5345 41.9421 39.7647 42.9171 40.4239 43.5761C41.0854 44.2376 42.061 44.4644 42.9422 44.1707L51.0361 41.4727C54.3326 43.3237 58.0471 44.2969 61.8514 44.2969C74.064 44.2969 83.9998 34.3611 83.9998 22.1484C83.9998 9.93579 74.064 0 61.8514 0V0ZM61.8514 39.375C58.5825 39.375 55.3996 38.4513 52.6472 36.7037C52.0211 36.3062 51.2508 36.213 50.5498 36.4466L46.055 37.9449L47.5534 33.45C47.7873 32.7479 47.693 31.9776 47.2963 31.3527C45.5487 28.6002 44.6248 25.4175 44.6248 22.1484C44.6248 12.6497 52.3527 4.92188 61.8514 4.92188C71.3501 4.92188 79.078 12.6497 79.078 22.1484C79.078 31.6472 71.3501 39.375 61.8514 39.375ZM71.6951 19.6875C70.3361 19.6875 69.2342 20.7893 69.2342 22.1484C69.2342 23.5075 70.3361 24.6094 71.6951 24.6094C73.0542 24.6094 74.1561 23.5075 74.1561 22.1484C74.1561 20.7893 73.0542 19.6875 71.6951 19.6875ZM66.8793 63.7969L54.3503 55.4441C51.4323 53.4988 47.5143 53.8868 45.0347 56.3666L41.7382 59.6631C39.8032 59.3826 35.2044 58.2315 30.4863 53.5136C25.7682 48.7955 24.6173 44.1968 24.3367 42.2617L27.6332 38.9652C30.1132 36.4854 30.501 32.5676 28.5557 29.6495L20.203 17.1206C18.9712 15.2729 16.9974 14.0877 14.7876 13.869C12.577 13.6497 10.4098 14.425 8.83969 15.9953L3.61775 21.2171C1.12925 23.7054 -0.181774 27.1038 0.0203509 30.5406C0.414101 37.2345 3.31341 50.7025 18.3053 65.6944C33.2971 80.6863 46.7654 83.5856 53.4591 83.9793C56.8916 84.1813 60.2913 82.8732 62.7826 80.3819L68.0044 75.16C69.5746 73.5897 70.3497 71.4218 70.1308 69.2122C69.9121 67.0025 68.7269 65.0286 66.8793 63.7969ZM64.5241 71.6799L59.3024 76.9017C57.8073 78.3968 55.7826 79.1859 53.7482 79.066C47.752 78.7132 35.6262 76.0548 21.7855 62.2141C7.9449 48.3735 5.28659 36.2476 4.93369 30.2515C4.81409 28.2169 5.6029 26.1926 7.09784 24.6975L12.3198 19.4755C13.4211 18.3742 15.2488 18.5624 16.1075 19.8506L24.4602 32.3795C25.1086 33.3523 24.9793 34.6582 24.1528 35.4847L20.0453 39.5922C19.5838 40.0537 19.3244 40.6796 19.3244 41.3324C19.3244 41.6583 19.4117 49.3997 27.0058 56.9937C34.5998 64.5878 42.3413 64.6751 42.6671 64.6751C43.3199 64.6751 43.9456 64.4157 44.4073 63.9542L48.5146 59.8467C49.3411 59.02 50.6471 58.8907 51.62 59.5393L64.1489 67.8918C65.4426 68.7543 65.6212 70.5828 64.5241 71.6799ZM61.8514 19.6875C60.4923 19.6875 59.3905 20.7893 59.3905 22.1484C59.3905 23.5075 60.4923 24.6094 61.8514 24.6094C63.2105 24.6094 64.3123 23.5075 64.3123 22.1484C64.3123 20.7893 63.2105 19.6875 61.8514 19.6875ZM52.0076 19.6875C50.6486 19.6875 49.5467 20.7893 49.5467 22.1484C49.5467 23.5075 50.6486 24.6094 52.0076 24.6094C53.3667 24.6094 54.4686 23.5075 54.4686 22.1484C54.4686 20.7893 53.3667 19.6875 52.0076 19.6875Z" fill="#11C0AB" fill-opacity="0.2"/>
</svg>
