<svg width="62" height="62" viewBox="0 0 62 62" fill="none" xmlns="http://www.w3.org/2000/svg">
<path d="M61.6214 10.7115L51.2881 0.378204C50.7835 -0.126394 49.9661 -0.126394 49.4616 0.378204C48.957 0.882802 48.957 1.70018 49.4616 2.20466L51.1316 3.87479L44.4512 10.5552L40.1978 6.30175C38.6892 4.79062 36.2269 4.79062 34.7183 6.30175C33.2072 7.81288 33.2072 10.2701 34.7183 11.7812L36.3885 13.4514L10.7115 39.1282C10.4693 39.3704 10.3331 39.6983 10.3331 40.0415C10.3331 40.2503 10.3759 44.6651 12.4787 47.6944L0.378204 59.7949C-0.126394 60.2995 -0.126394 61.1169 0.378204 61.6214C0.630442 61.8736 0.961028 61.9998 1.29149 61.9998C1.62196 61.9998 1.95242 61.8736 2.20478 61.6214L14.3042 49.5219C17.3227 51.6206 21.728 51.6665 21.9582 51.6665C22.3013 51.6665 22.6293 51.5303 22.8715 51.2881L48.5483 25.6111L50.2185 27.2812C50.9501 28.0129 51.9238 28.4165 52.9582 28.4165C53.9926 28.4165 54.9663 28.0129 55.6979 27.2812C57.2091 25.7701 57.2091 23.3129 55.6979 21.8017L51.4445 17.5483L58.1248 10.868L59.7949 12.5381C60.0471 12.7903 60.3777 12.9165 60.7082 12.9165C61.0387 12.9165 61.3691 12.7903 61.6215 12.5381C62.126 12.0335 62.126 11.2161 61.6214 10.7115ZM38.7498 31.7566L35.7881 28.7949C35.2835 28.2903 34.4661 28.2903 33.9616 28.7949C33.457 29.2995 33.457 30.1169 33.9616 30.6214L36.9233 33.5831L32.2915 38.2149L30.6214 36.5448C30.1168 36.0402 29.2994 36.0402 28.7949 36.5448C28.2903 37.0494 28.2903 37.8668 28.7949 38.3712L30.465 40.0414L25.8332 44.6732L22.8715 41.7115C22.3669 41.2069 21.5495 41.2069 21.045 41.7115C20.5404 42.2161 20.5404 43.0335 21.045 43.538L24.0066 46.4998L21.4434 49.063C20.1719 48.9849 16.8681 48.6182 15.1298 46.8912C15.1261 46.8874 15.1251 46.882 15.1214 46.8782C15.1177 46.8746 15.1126 46.8736 15.109 46.87C13.3851 45.1276 13.0146 41.8262 12.9366 40.556L27.6503 25.8424C31.6238 25.891 33.6717 26.4635 35.8107 27.0756C37.5655 27.5761 39.3718 28.0887 42.1999 28.3065L38.7498 31.7566ZM44.6826 25.8239C40.7092 25.7753 38.6613 25.2028 36.5223 24.5907C34.7675 24.0902 32.9611 23.5776 30.1331 23.3597L38.215 15.2778L46.7219 23.7847L44.6826 25.8239ZM53.8714 23.6282C54.376 24.1315 54.376 24.9514 53.8714 25.4547C53.3819 25.9416 52.5342 25.9416 52.0449 25.4547L36.5449 9.95466C36.0403 9.4514 36.0403 8.63147 36.5449 8.1282C36.7971 7.87597 37.1277 7.751 37.4582 7.751C37.7887 7.751 38.1191 7.87584 38.3715 8.1282L53.8714 23.6282ZM49.6179 15.7217L46.2778 12.3816L52.9582 5.70124L56.2983 9.04137L49.6179 15.7217Z" fill="#11C0AB"/>
</svg>
