<svg width="22" height="23" viewBox="0 0 22 23" fill="none" xmlns="http://www.w3.org/2000/svg">
<path d="M19.0781 2.89844C18.5195 2.42578 16.2852 0.792969 11.3867 0.792969C11.3867 0.792969 5.58594 0.449219 2.75 3.02734C1.16016 4.61719 0.601562 6.89453 0.558594 9.77344C0.515625 12.6094 0.429688 17.9805 5.58594 19.4414V21.6328C5.58594 21.6328 5.54297 22.5352 6.14453 22.75C6.875 22.9648 7.26172 22.2773 7.94922 21.5469C8.33594 21.1172 8.85156 20.5586 9.23828 20.0859C12.7617 20.3867 15.4688 19.6992 15.8125 19.6133C16.5 19.3555 20.5391 18.8398 21.1836 13.5117C21.8711 7.96875 20.8828 4.48828 19.0781 2.89844ZM19.6367 13.082C19.1211 17.5508 15.8125 17.8516 15.2109 18.0664C14.9531 18.1094 12.5898 18.7109 9.58203 18.5391C9.58203 18.5391 7.34766 21.2031 6.66016 21.9336C6.44531 22.1484 6.1875 22.1484 6.1875 21.6758C6.1875 21.375 6.1875 17.9805 6.1875 17.9805C1.84766 16.7773 2.10547 12.2227 2.14844 9.85938C2.19141 7.45312 2.62109 5.51953 3.95312 4.1875C6.35938 1.99609 11.3008 2.33984 11.3008 2.33984C15.4688 2.33984 17.4453 3.62891 17.918 4.01562C19.4648 5.34766 20.2383 8.48438 19.6367 13.082ZM13.6641 9.64453C13.6211 8.39844 12.9766 7.71094 11.7734 7.625C11.3867 7.625 11.3438 8.18359 11.7305 8.18359C12.6328 8.26953 13.0625 8.69922 13.1484 9.64453C13.1484 10.0312 13.707 9.98828 13.6641 9.64453ZM14.5664 10.1172C14.5664 10.4609 15.125 10.5039 15.125 10.1172C15.168 8.05469 13.8359 6.33594 11.3438 6.16406C10.957 6.12109 10.9141 6.67969 11.3008 6.72266C13.4492 6.85156 14.6094 8.3125 14.5664 10.1172ZM16.5859 10.6758C16.543 6.9375 14.0078 4.74609 10.8281 4.70312C10.4844 4.70312 10.4844 5.26172 10.8281 5.26172C13.6641 5.30469 15.9844 7.19531 16.0273 10.6758C16.0273 11.0625 16.5859 11.0625 16.5859 10.6758ZM16.0703 14.8867C16.2852 14.5 16.2422 14.1562 15.9414 13.8984C15.3828 13.3828 14.6094 12.8242 13.9648 12.4805C13.4922 12.2227 13.0195 12.3945 12.8047 12.6523L12.418 13.168C12.2031 13.4258 11.8164 13.3828 11.8164 13.3828C8.9375 12.6523 8.16406 9.77344 8.16406 9.77344C8.16406 9.77344 8.16406 9.38672 8.42188 9.17188L8.9375 8.74219C9.19531 8.52734 9.32422 8.05469 9.06641 7.58203C8.9375 7.32422 8.63672 6.85156 8.42188 6.59375C8.20703 6.25 7.64844 5.64844 7.64844 5.64844C7.43359 5.30469 7.04688 5.26172 6.66016 5.47656H6.61719C5.80078 5.90625 4.89844 6.80859 5.19922 7.66797C5.19922 7.66797 5.41406 8.44141 6.31641 10.0742C6.74609 10.8906 7.21875 11.5352 7.64844 12.0938C8.12109 12.6953 8.76562 13.3398 9.45312 13.8984C10.8281 14.9727 12.9336 16.0898 13.8359 16.3477H13.8789C14.7383 16.6484 15.6406 15.7461 16.0703 14.9297V14.8867Z" fill="#11C0AB"/>
</svg>
