<svg width="52" height="52" viewBox="0 0 52 52" fill="none" xmlns="http://www.w3.org/2000/svg">
<path d="M49.5209 30.458H48.7427V23.4486C48.7427 22.339 48.1904 21.3565 47.347 20.7595V19.8051C47.347 18.4207 46.2207 17.2945 44.8363 17.2945H44.2553L46.4784 14.0323C47.2236 12.9389 46.9402 11.4429 45.8468 10.6977L30.7616 0.417528C30.2319 0.0564734 29.5935 -0.0767766 28.9634 0.0427625C28.3336 0.162098 27.7879 0.519497 27.427 1.04925L14.4066 20.1555H10.7833L11.6575 11.3063C11.6673 11.2066 11.7321 11.1202 11.8225 11.0862C12.9488 10.6615 13.9248 9.86853 14.5707 8.85331C14.6216 8.77338 14.7176 8.72768 14.8169 8.73773L22.5 9.5C22.9075 9.53951 23.2699 9.24274 23.3102 8.83548C23.3504 8.42821 23.0529 8.06553 22.6456 8.02531L14.9625 7.26304C14.3029 7.19845 13.6738 7.50243 13.3204 8.05777C12.8455 8.80425 12.1278 9.38722 11.2998 9.69943C10.6765 9.93444 10.2485 10.4943 10.1827 11.1606L9.29423 20.1554H8.34939L9.73186 6.15967C9.78163 5.65592 10.2312 5.28582 10.7356 5.3363L24.589 6.47469C24.9963 6.51399 25.359 6.21743 25.3992 5.81016C25.4394 5.4029 25.1419 5.04022 24.7347 5L10.8812 3.86161C9.56459 3.73171 8.38718 4.69707 8.25707 6.01393L7.14273 17.2945H5.24503C3.86074 17.2945 2.73441 18.4207 2.73441 19.8051V20.4561C1.60189 20.9775 0.813354 22.1223 0.813354 23.4486V48.7067C0.813354 50.5227 2.29068 52 4.10672 52H45.4495C47.2654 52 48.7427 50.5227 48.7427 48.7067V41.6975H49.5209C50.4394 41.6975 51.1866 40.9503 51.1866 40.0319V32.1237C51.1867 31.2052 50.4394 30.458 49.5209 30.458ZM44.8363 18.7765C45.4037 18.7764 45.8651 19.2379 45.8651 19.8052V20.1827C45.7288 20.1654 45.5903 20.1556 45.4495 20.1556H42.3056L43.2454 18.7765H44.8363ZM28.6515 1.88368C28.7897 1.68107 28.9984 1.54436 29.2393 1.49866C29.2969 1.48779 29.3547 1.48231 29.412 1.48231C29.5945 1.48231 29.7729 1.53695 29.9271 1.64197L45.0122 11.9221C45.4305 12.2072 45.5389 12.7794 45.254 13.1976L40.5124 20.1553H39.3745L41.6992 16.7441C42.0762 16.1909 42.1073 15.4869 41.78 14.9066C41.3451 14.1358 41.1688 13.2281 41.2836 12.3507C41.3689 11.698 41.0817 11.0608 40.534 10.6876L32.7139 5.35844C32.1662 4.9852 31.4681 4.95097 30.8918 5.26917C30.1174 5.69675 29.2081 5.86463 28.3316 5.74194C27.6816 5.65074 27.0224 5.94425 26.651 6.48914L17.3378 20.1554H16.1999L28.6515 1.88368ZM28.9779 14.4664C25.7511 14.4664 23.1024 16.9824 22.8865 20.1554H19.1309L27.8753 7.32368C27.925 7.25065 28.0074 7.20718 28.092 7.20718C28.1033 7.20718 28.1146 7.208 28.1258 7.20952C29.318 7.37629 30.5545 7.14818 31.6079 6.56653C31.6908 6.52062 31.7972 6.52722 31.8793 6.58308L39.6995 11.9124C39.7814 11.9682 39.8264 12.0649 39.8142 12.1588C39.6581 13.352 39.898 14.5864 40.4894 15.6347C40.5368 15.7189 40.531 15.8268 40.4747 15.9096L37.5814 20.1553H35.0695C34.8535 16.9824 32.2048 14.4664 28.9779 14.4664ZM33.5835 20.1555H24.3723C24.5846 17.8004 26.5685 15.9484 28.9779 15.9484C31.3873 15.9483 33.3713 17.8004 33.5835 20.1555ZM4.21631 19.8051C4.21631 19.2378 4.67771 18.7763 5.24503 18.7763H6.99638L6.86018 20.1554H4.21631V19.8051ZM2.29525 23.4486C2.29525 22.4499 3.10785 21.6373 4.10672 21.6373H45.4495C46.4483 21.6373 47.2608 22.4499 47.2608 23.4486V25.5047H2.29525V23.4486ZM47.2608 48.7067C47.2608 49.7055 46.4483 50.5181 45.4495 50.5181H4.10672C3.10785 50.5181 2.29525 49.7055 2.29525 48.7067V46.6507H11.2591C11.6684 46.6507 12 46.319 12 45.9098C12 45.5006 11.6683 45.1689 11.2591 45.1689H2.29525V26.9866H47.2608V30.458H40.2158C37.9961 30.458 36.0732 31.7519 35.1607 33.6248C35.1576 33.6311 35.1542 33.6372 35.151 33.6435C35.1433 33.6594 35.1366 33.676 35.1291 33.692C35.0204 33.9229 34.926 34.1619 34.8491 34.4085L34.8485 34.4105C34.6844 34.9375 34.596 35.4974 34.596 36.0777C34.596 39.1765 37.117 41.6975 40.2156 41.6975H47.2607V45.1689H11.0353C10.626 45.1689 10.2944 45.5006 10.2944 45.9098C10.2944 46.319 10.6261 46.6507 11.0353 46.6507H47.2608V48.7067ZM49.7048 40.0318C49.7048 40.1331 49.6224 40.2156 49.5209 40.2156H40.2159C38.6473 40.2156 37.2797 39.3382 36.5782 38.0485C36.5463 37.9899 36.5158 37.9303 36.4867 37.8701C36.4285 37.7496 36.376 37.6258 36.3296 37.499C36.1669 37.0556 36.0781 36.5768 36.0781 36.0777C36.0781 35.5787 36.167 35.0999 36.3296 34.6565C36.3761 34.5298 36.4286 34.406 36.4867 34.2854C36.5158 34.2251 36.5463 34.1656 36.5782 34.107C37.2797 32.8173 38.6473 31.9399 40.2159 31.9399H49.5209C49.6223 31.9399 49.7048 32.0224 49.7048 32.1237V40.0318Z" fill="#11C0AB"/>
<path d="M40.3894 33.0715C38.7317 33.0715 37.3832 34.4201 37.3832 36.0777C37.3832 37.7353 38.7317 39.0839 40.3894 39.0839C42.0471 39.0839 43.3957 37.7353 43.3957 36.0777C43.3957 34.4201 42.0471 33.0715 40.3894 33.0715ZM40.3894 37.602C39.5489 37.602 38.8651 36.9181 38.8651 36.0777C38.8651 35.2373 39.5489 34.5534 40.3894 34.5534C41.23 34.5534 41.9138 35.2372 41.9138 36.0777C41.9138 36.9182 41.23 37.602 40.3894 37.602Z" fill="#11C0AB"/>
</svg>
