<svg width="20" height="20" viewBox="0 0 20 20" fill="none" xmlns="http://www.w3.org/2000/svg">
<path d="M9.99964 2.00005C5.12064 2.00005 0.999641 6.12105 0.999641 11C0.999641 15.879 5.12064 20 9.99964 20C14.8786 20 18.9996 15.879 18.9996 11C18.9996 6.12105 14.8786 2.00005 9.99964 2.00005ZM9.99964 18C6.20564 18 2.99964 14.794 2.99964 11C2.99964 7.20605 6.20564 4.00005 9.99964 4.00005C13.7936 4.00005 16.9996 7.20605 16.9996 11C16.9996 14.794 13.7936 18 9.99964 18Z" fill="#4F4F4F"/>
<path d="M10.9996 10V6.00005H8.99964V12H14.9996V10H10.9996Z" fill="#4F4F4F"/>
<path d="M15.2835 1.70701L16.6957 0.290771L19.7052 3.29167L18.293 4.70791L15.2835 1.70701Z" fill="#4F4F4F"/>
<path d="M4.69756 1.70706L1.70725 4.70594L0.291016 3.29375L3.28132 0.294868L4.69756 1.70706Z" fill="#4F4F4F"/>
</svg>
