<svg width="54" height="54" viewBox="0 0 54 54" fill="none" xmlns="http://www.w3.org/2000/svg">
<g clip-path="url(#clip0)">
<path d="M44.1787 36.2857L38.3918 34.272C37.9711 34.1235 37.4963 34.2428 37.1925 34.5735C34.3553 37.6696 30.735 39.375 27 39.375C23.265 39.375 19.6447 37.6695 16.8075 34.5735C16.5015 34.2428 16.0312 34.1258 15.6082 34.272L9.82125 36.2857C3.94654 38.3286 0 43.8795 0 50.0984V51.75C0 52.371 0.504035 52.875 1.12504 52.875H52.8751C53.4961 52.875 54.0001 52.371 54.0001 51.75V50.0984C54 43.8772 50.0535 38.3264 44.1787 36.2857ZM51.75 50.6249H2.24996V50.0984C2.24996 44.8357 5.589 40.1376 10.5592 38.4096L15.6622 36.6344C18.8528 39.8587 22.8532 41.6249 27 41.6249C31.1468 41.6249 35.1473 39.8586 38.3378 36.6344L43.4408 38.4096C48.411 40.1376 51.75 44.8357 51.75 50.0984V50.6249Z" fill="#11C0AB"/>
<path d="M40.4932 14.9175C40.4977 14.8208 40.5 14.7217 40.5 14.625C40.5 7.17975 34.4452 1.125 27 1.125C19.5547 1.125 13.5 7.17975 13.5 14.625C13.5 14.7217 13.5022 14.8208 13.5067 14.9175C12.1657 15.651 11.25 17.7007 11.25 20.25C11.25 23.3798 12.6315 25.758 14.4855 25.8705C16.5307 32.6475 21.456 37.125 27 37.125C32.5439 37.125 37.4692 32.6475 39.5145 25.8705C41.3685 25.758 42.7499 23.3798 42.7499 20.25C42.7499 17.7007 41.8342 15.651 40.4932 14.9175ZM39.3052 23.5755C38.9992 23.3865 38.6235 23.355 38.2882 23.49C37.9574 23.625 37.7099 23.9107 37.6221 24.2595C36.0472 30.609 31.779 34.875 27 34.875C22.221 34.875 17.9527 30.609 16.3777 24.2595C16.2899 23.9107 16.0086 23.652 15.6757 23.5148C15.552 23.463 15.417 23.4405 15.2796 23.4405C15.0501 23.4405 14.8161 23.5058 14.6249 23.625C14.3437 23.625 13.5 22.428 13.5 20.25C13.5 18.1867 14.2582 17.0054 14.5754 16.8839C14.5867 16.8861 14.6002 16.8885 14.6092 16.8885C14.9399 16.9133 15.2796 16.8029 15.5182 16.5645C15.7567 16.3237 15.876 15.9885 15.84 15.6532L15.8085 15.3719C15.7815 15.1244 15.7499 14.8792 15.7499 14.6249C15.7499 8.42175 20.7967 3.37497 27 3.37497C33.2032 3.37497 38.25 8.42175 38.25 14.625C38.25 14.8793 38.2185 15.1245 38.1915 15.3697L38.1599 15.651C38.1262 15.9885 38.2431 16.3238 38.4817 16.5623C38.7225 16.803 39.0577 16.9155 39.3907 16.8885C39.3997 16.8863 39.4132 16.8863 39.4245 16.8839C39.7417 17.0054 40.5 18.1867 40.5 20.25C40.5 22.428 39.6742 23.625 39.3052 23.5755Z" fill="#11C0AB"/>
<path d="M27 10.125C24.3495 10.125 22.5 11.9745 22.5 14.625C22.5 15.246 23.004 15.7501 23.625 15.7501C24.246 15.7501 24.7501 15.246 24.7501 14.625C24.7501 12.5955 26.3228 12.3751 27 12.3751C27.6772 12.3751 29.25 12.5956 29.25 14.625C29.25 16.5128 28.8337 17.3745 27.5377 18.1642C25.0357 19.6943 24.6172 21.717 24.7635 22.671C24.849 23.2245 25.3215 23.6047 25.8659 23.6047C25.911 23.6047 25.9582 23.6002 26.0055 23.5958C26.6062 23.5261 27.0404 22.9703 26.991 22.3651C26.9887 22.3178 26.9167 21.1816 28.7122 20.0858C30.6922 18.8753 31.5 17.2935 31.5 14.625C31.5001 11.9745 29.6506 10.125 27 10.125Z" fill="#11C0AB"/>
<path d="M25.875 28.1251C26.4964 28.1251 27.0001 27.6214 27.0001 27C27.0001 26.3787 26.4964 25.875 25.875 25.875C25.2537 25.875 24.75 26.3787 24.75 27C24.75 27.6214 25.2537 28.1251 25.875 28.1251Z" fill="#11C0AB"/>
</g>
<defs>
<clipPath id="clip0">
<rect width="54" height="54" fill="white"/>
</clipPath>
</defs>
</svg>
