<svg width="11" height="19" viewBox="0 0 11 19" fill="none" xmlns="http://www.w3.org/2000/svg">
<path d="M6.02533 18.7823C6.02556 18.7821 6.02582 18.7819 6.02604 18.7816L9.88541 14.9036C10.1745 14.613 10.1734 14.1431 9.88288 13.8539C9.59235 13.5648 9.12244 13.5659 8.83328 13.8564L6.24216 16.4602L6.24216 0.742188C6.24216 0.332277 5.90989 0 5.49998 0C5.09007 0 4.75779 0.332277 4.75779 0.742188L4.75779 16.4601L2.16667 13.8565C1.87751 13.5659 1.4076 13.5648 1.11707 13.854C0.826467 14.1432 0.825465 14.6131 1.11455 14.9036L4.97392 18.7817C4.97414 18.7819 4.9744 18.7821 4.97462 18.7824C5.26474 19.073 5.73618 19.0721 6.02533 18.7823Z" fill="#01120F"/>
</svg>
