<svg width="62" height="62" viewBox="0 0 62 62" fill="none" xmlns="http://www.w3.org/2000/svg">
<path d="M61.0312 29.0665H58.125C57.5893 29.0665 57.1562 29.4996 57.1562 30.0353V33.9064H55.211C55.211 33.3707 54.778 32.9377 54.2423 32.9377H17.4259C16.8902 32.9377 16.4571 33.3707 16.4571 33.9064H15.4942V32.9415C15.4942 30.2678 13.3184 28.092 10.6446 28.092C10.6378 28.092 10.632 28.0959 10.6253 28.0959H4.84375V16.4592C4.84375 15.9235 4.41072 15.4905 3.875 15.4905H0.96875C0.433031 15.4905 0 15.9235 0 16.4592V56.1857C0 56.7214 0.433031 57.1545 0.96875 57.1545H3.875C4.41072 57.1545 4.84375 56.7214 4.84375 56.1857V51.3459H57.1562V56.1857C57.1562 56.7214 57.5893 57.1545 58.125 57.1545H61.0312C61.567 57.1545 62 56.7214 62 56.1857V30.0353C62 29.4996 61.567 29.0665 61.0312 29.0665ZM57.1562 35.8439V37.7872H55.211V35.8439H57.1562ZM18.3946 43.5958V34.8752H19.375V41.6564C19.375 42.1921 19.808 42.6252 20.3438 42.6252H51.3438C51.8795 42.6252 52.3125 42.1921 52.3125 41.6564V34.8752H53.2735V43.5958H18.3946ZM50.375 40.6877H21.3125V34.8752H50.375V40.6877ZM16.4571 37.7872H4.84375V35.8439H16.4571V37.7872ZM10.6446 30.0334C10.6495 30.0334 10.6524 30.0304 10.6572 30.0304C12.2566 30.0382 13.5567 31.3412 13.5567 32.9415V33.9064H4.84375V30.0334H10.6446ZM1.9375 55.217V17.428H2.90625V29.0355C2.90625 29.0462 2.90044 29.0539 2.90044 29.0636C2.90044 29.0733 2.90625 29.083 2.90625 29.0927V55.217H1.9375ZM4.84375 49.4084V39.7247H16.4571V44.5646C16.4571 45.1003 16.8902 45.5333 17.4259 45.5333H54.2423C54.778 45.5333 55.211 45.1003 55.211 44.5646V39.7247H57.1562V49.4084H4.84375ZM60.0625 55.217H59.0938V31.004H60.0625V55.217Z" fill="#11C0AB"/>
<path d="M33.9092 4.8457C28.0337 4.8457 23.2529 9.62649 23.2529 15.502C23.2529 21.3774 28.0337 26.1582 33.9092 26.1582C39.7846 26.1582 44.5654 21.3774 44.5654 15.502C44.5654 9.62649 39.7846 4.8457 33.9092 4.8457ZM33.9092 24.2207C29.1013 24.2207 25.1904 20.3099 25.1904 15.502C25.1904 10.694 29.1013 6.7832 33.9092 6.7832C38.7171 6.7832 42.6279 10.694 42.6279 15.502C42.6279 20.3099 38.7171 24.2207 33.9092 24.2207Z" fill="#11C0AB"/>
<path d="M37.7793 14.5312H34.8731V11.625C34.8731 11.0893 34.44 10.6562 33.9043 10.6562C33.3686 10.6562 32.9356 11.0893 32.9356 11.625V14.5312H30.0293C29.4936 14.5312 29.0605 14.9643 29.0605 15.5C29.0605 16.0357 29.4936 16.4688 30.0293 16.4688H32.9356V19.375C32.9356 19.9107 33.3686 20.3438 33.9043 20.3438C34.44 20.3438 34.8731 19.9107 34.8731 19.375V16.4688H37.7793C38.315 16.4688 38.7481 16.0357 38.7481 15.5C38.7481 14.9643 38.315 14.5312 37.7793 14.5312Z" fill="#11C0AB"/>
</svg>
