<svg width="62" height="62" viewBox="0 0 62 62" fill="none" xmlns="http://www.w3.org/2000/svg">
<g clip-path="url(#clip0)">
<path d="M31.2267 9.47262C26.6347 9.43171 22.2093 11.1908 18.8985 14.3732C15.5877 17.5555 13.6549 21.9079 13.5141 26.4979C13.4033 30.2799 14.5317 33.9944 16.7274 37.0757C19.0493 40.3975 20.275 44.3618 20.2333 48.4144V53.0848C20.2333 53.208 20.2601 53.3298 20.312 53.4415C20.3639 53.5533 20.4395 53.6524 20.5337 53.7319L23.6162 56.3393V59.5192C23.617 60.1772 23.8788 60.808 24.3442 61.2732C24.8097 61.7383 25.4406 61.9998 26.0986 62.0002H35.9014C36.5594 61.9995 37.1901 61.7379 37.6554 61.2727C38.1206 60.8075 38.3822 60.1767 38.3829 59.5187V56.3388L41.4654 53.7314C41.5596 53.6519 41.6352 53.5528 41.6871 53.441C41.739 53.3293 41.7658 53.2075 41.7658 53.0843V48.4125C41.7667 44.3012 43.0293 40.2892 45.3831 36.9183C47.1883 34.3094 48.2501 31.2587 48.4547 28.0928C48.6594 24.9269 47.9992 21.7649 46.5449 18.9453C45.0906 16.1257 42.8969 13.7547 40.1986 12.0861C37.5003 10.4175 34.399 9.51411 31.2267 9.47262ZM37.2252 55.1007H24.7768L22.3288 53.0305H39.6733L37.2252 55.1007ZM40.0709 51.3352H21.9291V49.2611H40.0709V51.3352ZM36.6881 59.5212C36.6878 59.7296 36.6049 59.9294 36.4575 60.0768C36.3101 60.2241 36.1103 60.307 35.9019 60.3073H26.0986C25.8902 60.307 25.6904 60.2241 25.543 60.0768C25.3957 59.9294 25.3128 59.7296 25.3125 59.5212V56.7961H36.6876L36.6881 59.5212ZM43.99 35.9524C41.6046 39.3704 40.2502 43.401 40.0874 47.5658H21.9136C21.7968 43.4516 20.4741 39.4624 18.1098 36.0934C16.1285 33.3112 15.11 29.9581 15.2094 26.5439C15.3335 22.4328 17.0503 18.5307 19.9973 15.6615C22.9443 12.7923 26.8909 11.1806 31.0039 11.1665H31.2049C34.0698 11.2036 36.8707 12.0191 39.3077 13.5257C41.7447 15.0323 43.7262 17.1733 45.0399 19.7195C46.3536 22.2657 46.9501 25.1212 46.7656 27.9804C46.5811 30.8396 45.6225 33.5947 43.9924 35.951L43.99 35.9524Z" fill="#11C0AB"/>
<path d="M40.3213 26.971C40.0891 26.015 39.7119 25.1003 39.2029 24.2585L40.314 23.1468C40.3928 23.0681 40.4553 22.9747 40.498 22.8719C40.5406 22.769 40.5626 22.6588 40.5626 22.5474C40.5626 22.4361 40.5406 22.3258 40.498 22.223C40.4553 22.1201 40.3928 22.0267 40.314 21.948L38.2966 19.9306C38.2179 19.8518 38.1245 19.7893 38.0217 19.7467C37.9188 19.704 37.8086 19.6821 37.6972 19.6821C37.5859 19.6821 37.4756 19.704 37.3728 19.7467C37.2699 19.7893 37.1765 19.8518 37.0978 19.9306L35.9929 21.0354C35.1507 20.5219 34.2345 20.1408 33.2766 19.9054V18.3462C33.2766 18.1214 33.1873 17.9058 33.0283 17.7468C32.8693 17.5878 32.6537 17.4985 32.4289 17.4985H29.5735C29.3487 17.4985 29.1331 17.5878 28.9741 17.7468C28.8152 17.9058 28.7259 18.1214 28.7259 18.3462V19.9054C27.7671 20.1406 26.8501 20.5217 26.0071 21.0354L24.9017 19.9301C24.823 19.8513 24.7296 19.7888 24.6267 19.7462C24.5239 19.7035 24.4136 19.6816 24.3023 19.6816C24.191 19.6816 24.0807 19.7035 23.9779 19.7462C23.875 19.7888 23.7816 19.8513 23.7029 19.9301L21.6855 21.9475C21.6067 22.0262 21.5442 22.1196 21.5016 22.2225C21.4589 22.3253 21.437 22.4356 21.437 22.5469C21.437 22.6583 21.4589 22.7685 21.5016 22.8714C21.5442 22.9742 21.6067 23.0677 21.6855 23.1463L22.7966 24.258C22.2876 25.0998 21.9104 26.0145 21.6782 26.9705H20.1016C19.8768 26.9705 19.6611 27.0598 19.5022 27.2188C19.3432 27.3777 19.2539 27.5933 19.2539 27.8181V30.6711C19.2539 30.8959 19.3432 31.1115 19.5022 31.2705C19.6611 31.4295 19.8768 31.5188 20.1016 31.5188H21.6918C21.9271 32.4689 22.306 33.3775 22.8155 34.2133L21.6855 35.3434C21.6067 35.4221 21.5442 35.5155 21.5016 35.6184C21.4589 35.7212 21.437 35.8315 21.437 35.9428C21.437 36.0541 21.4589 36.1644 21.5016 36.2672C21.5442 36.3701 21.6067 36.4635 21.6855 36.5422L23.7029 38.5596C23.8648 38.7129 24.0793 38.7984 24.3023 38.7984C24.5253 38.7984 24.7398 38.7129 24.9017 38.5596L26.0381 37.4233C26.8718 37.9274 27.7772 38.3021 28.7234 38.5345V40.1431C28.7234 40.3679 28.8127 40.5835 28.9717 40.7424C29.1307 40.9014 29.3463 40.9907 29.5711 40.9907H32.4245C32.6494 40.9907 32.865 40.9014 33.0239 40.7424C33.1829 40.5835 33.2722 40.3679 33.2722 40.1431V38.5345C34.2192 38.3023 35.1255 37.9276 35.96 37.4233L37.0963 38.5596C37.175 38.6384 37.2685 38.7009 37.3713 38.7436C37.4742 38.7862 37.5844 38.8081 37.6958 38.8081C37.8071 38.8081 37.9173 38.7862 38.0202 38.7436C38.1231 38.7009 38.2165 38.6384 38.2952 38.5596L40.3126 36.5422C40.3914 36.4635 40.4539 36.3701 40.4965 36.2672C40.5392 36.1644 40.5611 36.0541 40.5611 35.9428C40.5611 35.8315 40.5392 35.7212 40.4965 35.6184C40.4539 35.5155 40.3914 35.4221 40.3126 35.3434L39.1859 34.2133C39.6954 33.3777 40.0743 32.4692 40.3097 31.5192H41.8984C42.1232 31.5192 42.3389 31.4299 42.4978 31.271C42.6568 31.112 42.7461 30.8964 42.7461 30.6716V27.8186C42.7461 27.5938 42.6568 27.3782 42.4978 27.2192C42.3389 27.0603 42.1232 26.971 41.8984 26.971H40.3213ZM41.0508 29.8239H39.619C39.4184 29.8238 39.2243 29.8949 39.0712 30.0245C38.9181 30.1541 38.816 30.3338 38.7829 30.5316C38.5816 31.7201 38.1108 32.8468 37.4068 33.8254C37.2883 33.9889 37.232 34.1894 37.2483 34.3908C37.2645 34.5921 37.3522 34.781 37.4955 34.9234L38.5165 35.9406L37.6979 36.7592L36.6735 35.7343C36.5316 35.5923 36.344 35.5053 36.144 35.4887C35.9439 35.4721 35.7445 35.527 35.5812 35.6437C34.6013 36.3423 33.4747 36.8078 32.2875 37.0048C32.0895 37.0382 31.9098 37.1408 31.7805 37.2944C31.6511 37.448 31.5805 37.6425 31.5812 37.8432V39.2964H30.4187V37.8432C30.4191 37.6425 30.3481 37.4482 30.2185 37.2949C30.0889 37.1416 29.9091 37.0393 29.7111 37.0062C28.5238 36.8093 27.3973 36.3437 26.4173 35.6452C26.254 35.5285 26.0546 35.4736 25.8546 35.4902C25.6546 35.5068 25.4669 35.5938 25.3251 35.7357L24.3006 36.7607L23.482 35.9421L24.5045 34.9234C24.647 34.7812 24.7342 34.5929 24.7505 34.3922C24.7667 34.1915 24.7109 33.9916 24.5932 33.8283C23.8892 32.8497 23.4184 31.723 23.2171 30.5345C23.184 30.3367 23.0819 30.157 22.9288 30.0274C22.7757 29.8978 22.5816 29.8267 22.381 29.8268H20.9492V28.6692H22.3718C22.5732 28.6692 22.7681 28.5976 22.9215 28.467C23.0748 28.3364 23.1767 28.1555 23.2088 27.9567C23.4038 26.7618 23.8708 25.6278 24.5738 24.6421C24.6905 24.4788 24.7454 24.2794 24.7288 24.0794C24.7122 23.8793 24.6252 23.6917 24.4832 23.5498L23.4835 22.5501L24.3021 21.7315L25.2979 22.7274C25.4402 22.8698 25.6286 22.9569 25.8292 22.9732C26.0299 22.9894 26.2298 22.9337 26.3931 22.816C27.378 22.107 28.5133 21.6349 29.7106 21.4365C29.9091 21.4034 30.0894 21.3007 30.2192 21.1468C30.3489 20.9929 30.4197 20.7979 30.4187 20.5966V19.1919H31.5812V20.5966C31.5812 20.7976 31.6527 20.9922 31.7829 21.1454C31.913 21.2986 32.0934 21.4006 32.2918 21.4331C33.4884 21.6323 34.6228 22.1048 35.6069 22.8141C35.7702 22.9319 35.9701 22.9878 36.1708 22.9715C36.3715 22.9553 36.5599 22.868 36.7021 22.7254L37.6979 21.7295L38.5165 22.5481L37.5168 23.5479C37.3748 23.6898 37.2878 23.8774 37.2712 24.0774C37.2546 24.2774 37.3095 24.4768 37.4262 24.6402C38.1292 25.6258 38.5962 26.7599 38.7912 27.9547C38.8233 28.1536 38.9252 28.3345 39.0785 28.4651C39.2319 28.5956 39.4268 28.6673 39.6282 28.6672H41.0508V29.8239Z" fill="#11C0AB"/>
<path d="M31 23.262C29.8216 23.262 28.6698 23.6114 27.69 24.266C26.7102 24.9207 25.9466 25.8512 25.4957 26.9398C25.0448 28.0285 24.9268 29.2264 25.1567 30.3821C25.3865 31.5378 25.954 32.5994 26.7872 33.4326C27.6204 34.2658 28.682 34.8332 29.8377 35.0631C30.9934 35.293 32.1913 35.175 33.2799 34.7241C34.3686 34.2731 35.2991 33.5095 35.9537 32.5298C36.6084 31.55 36.9578 30.3981 36.9578 29.2198C36.9556 27.6403 36.3272 26.1262 35.2104 25.0094C34.0936 23.8925 32.5794 23.2641 31 23.262ZM31 33.4852C30.1569 33.4852 29.3328 33.2352 28.6319 32.7668C27.9309 32.2984 27.3846 31.6327 27.062 30.8539C26.7393 30.075 26.6549 29.2179 26.8194 28.3911C26.9839 27.5643 27.3898 26.8048 27.9859 26.2086C28.5821 25.6125 29.3416 25.2066 30.1684 25.0421C30.9953 24.8776 31.8523 24.962 32.6312 25.2846C33.4101 25.6073 34.0758 26.1536 34.5441 26.8546C35.0125 27.5555 35.2625 28.3796 35.2625 29.2227C35.261 30.3527 34.8114 31.4361 34.0124 32.2352C33.2133 33.0343 32.13 33.484 31 33.4857V33.4852Z" fill="#11C0AB"/>
<path d="M31 6.57927C31.2248 6.57927 31.4404 6.48996 31.5994 6.33099C31.7583 6.17203 31.8477 5.95642 31.8477 5.73161V0.847656C31.8477 0.622844 31.7583 0.407239 31.5994 0.248273C31.4404 0.0893064 31.2248 0 31 0C30.7752 0 30.5596 0.0893064 30.4006 0.248273C30.2416 0.407239 30.1523 0.622844 30.1523 0.847656V5.73161C30.1523 5.95642 30.2416 6.17203 30.4006 6.33099C30.5596 6.48996 30.7752 6.57927 31 6.57927Z" fill="#11C0AB"/>
<path d="M51.7216 9.07983L48.268 12.5334C48.1893 12.6121 48.1268 12.7056 48.0842 12.8084C48.0416 12.9113 48.0197 13.0215 48.0197 13.1328C48.0197 13.2442 48.0416 13.3544 48.0842 13.4572C48.1268 13.5601 48.1893 13.6535 48.268 13.7323C48.3467 13.811 48.4402 13.8734 48.543 13.916C48.6459 13.9586 48.7561 13.9805 48.8674 13.9805C48.9787 13.9805 49.089 13.9586 49.1918 13.916C49.2947 13.8734 49.3881 13.811 49.4668 13.7323L52.9204 10.2787C52.9992 10.1999 53.0616 10.1065 53.1042 10.0036C53.1468 9.9008 53.1687 9.79056 53.1687 9.67924C53.1687 9.56792 53.1468 9.45769 53.1042 9.35484C53.0616 9.25199 52.9992 9.15855 52.9204 9.07983C52.8417 9.00111 52.7483 8.93867 52.6454 8.89607C52.5426 8.85347 52.4323 8.83154 52.321 8.83154C52.2097 8.83154 52.0995 8.85347 51.9966 8.89607C51.8938 8.93867 51.8003 9.00111 51.7216 9.07983Z" fill="#11C0AB"/>
<path d="M61.1524 30.1523H56.2684C56.0436 30.1523 55.828 30.2416 55.6691 30.4006C55.5101 30.5596 55.4208 30.7752 55.4208 31C55.4208 31.2248 55.5101 31.4404 55.6691 31.5994C55.828 31.7583 56.0436 31.8477 56.2684 31.8477H61.1524C61.3772 31.8477 61.5928 31.7583 61.7518 31.5994C61.9107 31.4404 62 31.2248 62 31C62 30.7752 61.9107 30.5596 61.7518 30.4006C61.5928 30.2416 61.3772 30.1523 61.1524 30.1523Z" fill="#11C0AB"/>
<path d="M5.73161 30.1523H0.847656C0.622844 30.1523 0.407239 30.2416 0.248273 30.4006C0.0893064 30.5596 0 30.7752 0 31C0 31.2248 0.0893064 31.4404 0.248273 31.5994C0.407239 31.7583 0.622844 31.8477 0.847656 31.8477H5.73161C5.95642 31.8477 6.17203 31.7583 6.33099 31.5994C6.48996 31.4404 6.57927 31.2248 6.57927 31C6.57927 30.7752 6.48996 30.5596 6.33099 30.4006C6.17203 30.2416 5.95642 30.1523 5.73161 30.1523Z" fill="#11C0AB"/>
<path d="M13.732 12.5334L10.2784 9.07983C10.1194 8.92085 9.90382 8.83154 9.679 8.83154C9.45417 8.83154 9.23856 8.92085 9.07958 9.07983C8.92061 9.2388 8.8313 9.45442 8.8313 9.67924C8.8313 9.90407 8.92061 10.1197 9.07958 10.2787L12.5332 13.7323C12.6922 13.8912 12.9078 13.9805 13.1326 13.9805C13.3574 13.9805 13.573 13.8912 13.732 13.7323C13.891 13.5733 13.9803 13.3577 13.9803 13.1328C13.9803 12.908 13.891 12.6924 13.732 12.5334Z" fill="#11C0AB"/>
</g>
<defs>
<clipPath id="clip0">
<rect width="62" height="62" fill="white"/>
</clipPath>
</defs>
</svg>
