<svg width="57" height="63" viewBox="0 0 57 63" fill="none" xmlns="http://www.w3.org/2000/svg">
<path d="M9.81445 33.3491H14.698C15.782 33.3491 16.6609 32.4702 16.6609 31.3862C16.6609 30.3022 15.782 29.4233 14.698 29.4233H9.81445C8.73041 29.4233 7.85156 30.3022 7.85156 31.3862C7.85156 32.4702 8.73041 33.3491 9.81445 33.3491Z" fill="white" fill-opacity="0.3"/>
<path d="M9.81445 25.5048H14.698C15.782 25.5048 16.6609 24.6259 16.6609 23.5419C16.6609 22.4579 15.782 21.579 14.698 21.579H9.81445C8.73041 21.579 7.85156 22.4579 7.85156 23.5419C7.85156 24.6261 8.73041 25.5048 9.81445 25.5048Z" fill="white" fill-opacity="0.3"/>
<path d="M9.81433 17.6605H14.6979C15.7819 17.6605 16.6608 16.7817 16.6608 15.6976C16.6608 14.6136 15.7819 13.7347 14.6979 13.7347H9.81433C8.73029 13.7347 7.85144 14.6136 7.85144 15.6976C7.85144 16.7817 8.73029 17.6605 9.81433 17.6605Z" fill="white" fill-opacity="0.3"/>
<path d="M54.5687 11.5123H52.0081V10.2167C52.0081 9.13262 51.1293 8.25376 50.0452 8.25376C48.9612 8.25376 48.0823 9.13262 48.0823 10.2167V11.5123H45.5159C44.4318 11.5123 43.553 12.3912 43.553 13.4752V29.4863C43.553 30.5703 44.4318 31.4492 45.5159 31.4492H48.0823V63.0743H21.5918V60.8289H27.014C28.0981 60.8289 28.9769 59.95 28.9769 58.866C28.9769 58.0117 28.4302 57.2869 27.6683 57.0172V53.2998H37.3116C38.3956 53.2998 39.2745 52.421 39.2745 51.3369V7.85359C39.2745 6.76954 38.3956 5.89068 37.3116 5.89068H26.8243C26.1555 2.53621 23.1875 0 19.6372 0C16.0868 0 13.1188 2.53621 12.4501 5.89068H1.96291C0.878858 5.89068 0 6.76954 0 7.85359V51.3369C0 52.421 0.878858 53.2998 1.96291 53.2998H11.6061V57.0172C10.8443 57.2869 10.2975 58.0117 10.2975 58.866C10.2975 59.95 11.1764 60.8289 12.2604 60.8289H17.6662V65.0372C17.6662 66.1213 18.545 67.0001 19.6291 67.0001H50.0453C51.1294 67.0001 52.0082 66.1213 52.0082 65.0372V31.449H54.5688C55.6528 31.449 56.5317 30.5702 56.5317 29.4861V13.4752C56.5316 12.391 55.6527 11.5123 54.5687 11.5123ZM19.6372 3.92581C21.001 3.92581 22.1793 4.73139 22.7218 5.89068H16.5527C17.0949 4.73139 18.2733 3.92581 19.6372 3.92581ZM35.3487 9.81649V37.2675H3.92568V9.81649H35.3487ZM3.92568 49.3739V41.1933H35.3487V49.3739H25.7054C24.6214 49.3739 23.7425 50.2528 23.7425 51.3368V56.9029H15.532V51.3368C15.532 50.2528 14.6531 49.3739 13.569 49.3739H3.92568ZM52.6058 27.5232H47.4786V15.438H52.6058V27.5232Z" fill="white" fill-opacity="0.3"/>
</svg>
