<svg width="25" height="25" viewBox="0 0 25 25" fill="none" xmlns="http://www.w3.org/2000/svg">
<path d="M23.3216 11.2759C22.2738 10.209 20.8849 9.59131 19.397 9.5273C19.39 9.43433 19.3848 9.3062 19.3848 9.13086C19.3848 8.4125 19.9311 6.21753 20.2754 5.00273L20.6278 3.75977H16.3513L16.0648 4.22134C15.9512 4.40444 13.2812 8.78184 13.2812 15.3809C13.2812 18.6117 15.9098 21.2402 19.1406 21.2402C22.3715 21.2402 25 18.6117 25 15.3809C25 13.8359 24.4039 12.3781 23.3216 11.2759ZM19.1406 19.2871C16.9867 19.2871 15.2344 17.5348 15.2344 15.3809C15.2344 10.5312 16.8377 6.9417 17.4713 5.71289H18.0635C17.7829 6.81562 17.4316 8.35161 17.4316 9.13086C17.4316 9.74922 17.4775 10.246 17.7017 10.6606C17.9014 11.03 18.3189 11.4699 19.1755 11.4746L19.2181 11.4756C21.3293 11.5166 23.0469 13.2684 23.0469 15.3809C23.0469 17.5348 21.2945 19.2871 19.1406 19.2871Z" fill="#11C0AB"/>
<path d="M10.0403 11.2759C8.99258 10.209 7.60361 9.59131 6.11577 9.5273C6.10874 9.43433 6.10352 9.3062 6.10352 9.13086C6.10352 8.4125 6.6498 6.21753 6.99419 5.00273L7.34658 3.75977H3.07002L2.78355 4.22134C2.66992 4.40444 0 8.78184 0 15.3809C0 18.6117 2.62852 21.2402 5.85938 21.2402C9.09023 21.2402 11.7188 18.6117 11.7188 15.3809C11.7188 13.8359 11.1227 12.3781 10.0403 11.2759ZM5.85938 19.2871C3.70547 19.2871 1.95312 17.5348 1.95312 15.3809C1.95312 10.5312 3.55645 6.9417 4.19004 5.71289H4.78228C4.50166 6.81562 4.15039 8.35161 4.15039 9.13086C4.15039 9.74922 4.19629 10.246 4.42046 10.6606C4.62012 11.03 5.03769 11.4699 5.89424 11.4746L5.93687 11.4756C8.04805 11.5166 9.76562 13.2684 9.76562 15.3809C9.76562 17.5348 8.01328 19.2871 5.85938 19.2871Z" fill="#11C0AB"/>
</svg>
