<svg width="68" height="68" viewBox="0 0 68 68" fill="none" xmlns="http://www.w3.org/2000/svg">
<g clip-path="url(#clip0)">
<path d="M18.1831 23.3314L19.8896 24.4329C20.0551 24.5397 20.2428 24.592 20.4295 24.592C20.6717 24.592 20.9125 24.5038 21.1011 24.3319L25.1453 20.6425C25.5517 20.2716 25.5806 19.6416 25.2098 19.2352C24.839 18.8286 24.2091 18.8 23.8027 19.1706L20.3254 22.343L19.2635 21.6575C18.8013 21.3594 18.1848 21.4921 17.8864 21.9542C17.588 22.4164 17.7209 23.033 18.1831 23.3314Z" fill="#11C0AB"/>
<path d="M28.7086 22.7476H42.8538C43.4041 22.7476 43.8499 22.3017 43.8499 21.7515C43.8499 21.2012 43.4041 20.7554 42.8538 20.7554H28.7086C28.1585 20.7554 27.7125 21.2012 27.7125 21.7515C27.7125 22.3017 28.1585 22.7476 28.7086 22.7476Z" fill="#11C0AB"/>
<path d="M28.7086 31.6313H42.8538C43.4041 31.6313 43.8499 31.1855 43.8499 30.6353C43.8499 30.085 43.4041 29.6392 42.8538 29.6392H28.7086C28.1585 29.6392 27.7125 30.085 27.7125 30.6353C27.7125 31.1855 28.1585 31.6313 28.7086 31.6313Z" fill="#11C0AB"/>
<path d="M28.7086 40.5156H40.2622C40.8125 40.5156 41.2583 40.0698 41.2583 39.5195C41.2583 38.9693 40.8125 38.5234 40.2622 38.5234H28.7086C28.1585 38.5234 27.7125 38.9693 27.7125 39.5195C27.7125 40.0698 28.1585 40.5156 28.7086 40.5156Z" fill="#11C0AB"/>
<path d="M28.7086 49.4033H33.0553C33.6054 49.4033 34.0514 48.9575 34.0514 48.4072C34.0514 47.857 33.6054 47.4111 33.0553 47.4111H28.7086C28.1585 47.4111 27.7125 47.857 27.7125 48.4072C27.7125 48.9575 28.1585 49.4033 28.7086 49.4033Z" fill="#11C0AB"/>
<path d="M23.8026 27.3677L20.3244 30.5409L19.2622 29.8575C18.7994 29.56 18.1831 29.6936 17.8854 30.1563C17.5878 30.6189 17.7215 31.2353 18.1843 31.5329L19.8908 32.6309C20.056 32.7371 20.2431 32.7892 20.4295 32.7892C20.6717 32.7892 20.9125 32.701 21.1011 32.529L25.1452 28.8395C25.5516 28.4687 25.5806 27.8386 25.2098 27.4322C24.8391 27.0257 24.209 26.997 23.8026 27.3677Z" fill="#11C0AB"/>
<path d="M18.1831 39.729L19.8896 40.8306C20.0551 40.9374 20.2428 40.9897 20.4295 40.9897C20.6717 40.9897 20.9125 40.9015 21.1011 40.7295L25.1453 37.0401C25.5517 36.6693 25.5806 36.0392 25.2098 35.6328C24.839 35.2263 24.2091 35.1977 23.8027 35.5683L20.3254 38.7406L19.2635 38.0552C18.8013 37.757 18.1848 37.8897 17.8864 38.3519C17.588 38.8141 17.7209 39.4306 18.1831 39.729Z" fill="#11C0AB"/>
<path d="M18.1831 47.9257L19.8896 49.0274C20.0551 49.1343 20.2428 49.1867 20.4297 49.1867C20.6719 49.1867 20.9127 49.0985 21.1013 48.9265L25.1454 45.2369C25.5518 44.8661 25.5808 44.2361 25.21 43.8297C24.8393 43.4231 24.2091 43.3944 23.8028 43.7651L20.3255 46.9376L19.2637 46.2522C18.8015 45.9535 18.1849 46.0863 17.8866 46.5487C17.5881 47.0108 17.7209 47.6273 18.1831 47.9257Z" fill="#11C0AB"/>
<path d="M54.4672 51.3916H52.2556V49.18C52.2556 48.4041 51.6245 47.7729 50.8487 47.7729H46.7561C45.9804 47.7729 45.3492 48.4041 45.3492 49.18V51.3916H43.1377C42.3599 51.3916 41.7271 52.0244 41.7271 52.8022V56.8912C41.7271 57.6689 42.3599 58.3018 43.1377 58.3018H45.3492V60.5134C45.3492 61.2893 45.9804 61.9204 46.7561 61.9204H50.8487C51.6245 61.9204 52.2556 61.2893 52.2556 60.5134V58.3018H54.4672C55.245 58.3018 55.8778 57.6689 55.8778 56.8912V52.8022C55.8779 52.0244 55.2451 51.3916 54.4672 51.3916ZM53.8858 56.3096H51.8459C50.9735 56.3096 50.2636 57.0178 50.2636 57.8883V59.9282H47.3416V57.8883C47.3416 57.0178 46.6317 56.3096 45.7592 56.3096H43.7192V53.3837H45.7591C46.6315 53.3837 47.3414 52.6756 47.3414 51.805V49.7651H50.2634V51.805C50.2634 52.6756 50.9733 53.3837 51.8458 53.3837H53.8856V56.3096H53.8858Z" fill="#11C0AB"/>
<path d="M56.4939 44.1826V29.5785C56.4939 29.0283 56.0481 28.5824 55.4978 28.5824C54.9476 28.5824 54.5018 29.0283 54.5018 29.5785V42.9931C53.4762 42.4981 52.3766 42.1333 51.225 41.9181V12.2439C51.225 11.3403 50.4883 10.6053 49.5829 10.6053H43.6706V7.32859H53.5337C54.0676 7.32859 54.5018 7.7613 54.5018 8.29308V30C54.5018 30.5502 54.9476 30.9961 55.4978 30.9961C56.0481 30.9961 56.4939 30.5502 56.4939 30V8.29295C56.4939 6.66267 55.1659 5.33627 53.5337 5.33627H43.5654C43.3262 4.68164 42.7002 4.21215 41.965 4.21215H38.4583C38.0901 3.55486 37.6327 2.95123 37.0941 2.4128C35.5384 0.856906 33.4688 0 31.2666 0C29.0627 0 26.9942 0.857172 25.4426 2.4128C24.9017 2.95375 24.4438 3.55619 24.0755 4.21228H20.5717C19.835 4.21228 19.2076 4.68164 18.9679 5.33641H8.99939C7.36911 5.33641 6.04285 6.66267 6.04285 8.29308V61.1038C6.04285 62.734 7.36911 64.0604 8.99939 64.0604H39.4246C41.8127 66.4902 45.1344 68 48.8025 68C56.0559 68 61.9572 62.0986 61.9572 54.8449C61.9572 50.4621 59.801 46.5738 56.4939 44.1826ZM20.8546 6.20447H24.5412L24.5746 6.20527C25.0507 6.21695 25.4272 5.98666 25.6265 5.54705L25.6365 5.525C25.9379 4.89945 26.3467 4.32637 26.8523 3.82062C28.0282 2.64164 29.5958 1.99219 31.2666 1.99219C32.9366 1.99219 34.506 2.64191 35.6854 3.82155C36.1854 4.32145 36.5929 4.89454 36.8965 5.52487C36.8986 5.52925 36.9008 5.53363 36.903 5.53815L36.917 5.56697C37.1797 6.11363 37.629 6.21722 37.9606 6.20513L41.6783 6.20447V12.1254H20.8546V6.20447ZM8.99939 62.0681C8.46761 62.0681 8.03503 61.6355 8.03503 61.1037V8.29295C8.03503 7.76116 8.46761 7.32846 8.99939 7.32846H18.8624V10.6053H12.9502C12.0468 10.6053 11.3118 11.3403 11.3118 12.2439V41C11.3118 41.5502 11.7578 41.9961 12.3079 41.9961C12.858 41.9961 13.304 41.5502 13.304 41V12.5977H18.8731C18.9662 13.4511 19.6921 14.1176 20.5717 14.1176H41.9652C42.8428 14.1176 43.5673 13.4511 43.6601 12.5977H49.2329V41.7015C49.09 41.6969 48.9466 41.6937 48.8026 41.6937C41.5491 41.6937 35.6478 47.5934 35.6478 54.8449C35.6478 55.5089 35.6978 56.1612 35.7931 56.799H13.304V41.633C13.304 41.0828 12.858 40.6369 12.3079 40.6369C11.7578 40.6369 11.3118 41.0828 11.3118 41.633V57.1528C11.3118 58.0562 12.0468 58.7912 12.9502 58.7912H36.2526C36.6217 59.9623 37.1509 61.0629 37.8137 62.0681H8.99939ZM48.8025 66.0078C42.6474 66.0078 37.6399 61.0003 37.6399 54.8449C37.6399 48.6917 42.6474 43.6859 48.8025 43.6859C54.9576 43.6859 59.965 48.6917 59.965 54.8449C59.965 61.0003 54.9576 66.0078 48.8025 66.0078Z" fill="#11C0AB"/>
</g>
<defs>
<clipPath id="clip0">
<rect width="68" height="68" fill="white"/>
</clipPath>
</defs>
</svg>
