<svg width="35" height="35" viewBox="0 0 35 35" fill="none" xmlns="http://www.w3.org/2000/svg">
<path d="M23.3431 23.125C27.0675 17.2807 26.5993 18.0098 26.7066 17.8575C28.0626 15.9449 28.7793 13.6939 28.7793 11.3477C28.7793 5.12559 23.7302 0 17.5 0C11.2901 0 6.2207 5.11547 6.2207 11.3477C6.2207 13.6924 6.95242 16.0023 8.35283 17.9406L11.6568 23.125C8.12431 23.6679 2.11914 25.2856 2.11914 28.8477C2.11914 30.1461 2.96666 31.9966 7.00424 33.4386C9.82352 34.4455 13.5509 35 17.5 35C24.8845 35 32.8809 32.917 32.8809 28.8477C32.8809 25.285 26.8827 23.669 23.3431 23.125ZM10.0658 16.8126C10.0546 16.795 10.0428 16.7778 10.0305 16.7608C8.86519 15.1577 8.27148 13.2577 8.27148 11.3477C8.27148 6.21947 12.4008 2.05078 17.5 2.05078C22.5886 2.05078 26.7285 6.22132 26.7285 11.3477C26.7285 13.2608 26.146 15.0963 25.0437 16.6572C24.945 16.7875 25.4603 15.9869 17.5 28.4778L10.0658 16.8126ZM17.5 32.9492C9.434 32.9492 4.16992 30.5783 4.16992 28.8477C4.16992 27.6845 6.87477 25.7718 12.8685 25.0263L16.6353 30.9369C16.8235 31.2323 17.1496 31.4111 17.4999 31.4111C17.8503 31.4111 18.1764 31.2322 18.3646 30.9369L22.1313 25.0263C28.1252 25.7718 30.8301 27.6845 30.8301 28.8477C30.8301 30.5636 25.6134 32.9492 17.5 32.9492Z" fill="#11C0AB"/>
<path d="M17.5 6.2207C14.673 6.2207 12.373 8.52065 12.373 11.3477C12.373 14.1747 14.673 16.4746 17.5 16.4746C20.327 16.4746 22.627 14.1747 22.627 11.3477C22.627 8.52065 20.327 6.2207 17.5 6.2207ZM17.5 14.4238C15.8038 14.4238 14.4238 13.0439 14.4238 11.3477C14.4238 9.65146 15.8038 8.27148 17.5 8.27148C19.1962 8.27148 20.5762 9.65146 20.5762 11.3477C20.5762 13.0439 19.1962 14.4238 17.5 14.4238Z" fill="#11C0AB"/>
</svg>
