<svg width="65" height="65" viewBox="0 0 65 65" fill="none" xmlns="http://www.w3.org/2000/svg">
<circle cx="3.61111" cy="3.61111" r="3.61111" fill="#11C0AB" fill-opacity="0.1"/>
<circle cx="3.61111" cy="18.0556" r="3.61111" fill="#11C0AB" fill-opacity="0.1"/>
<circle cx="3.61111" cy="32.5" r="3.61111" fill="#11C0AB" fill-opacity="0.1"/>
<circle cx="3.61111" cy="46.9445" r="3.61111" fill="#11C0AB" fill-opacity="0.1"/>
<circle cx="3.61111" cy="61.3889" r="3.61111" fill="#11C0AB" fill-opacity="0.1"/>
<circle cx="32.5" cy="3.61111" r="3.61111" fill="#11C0AB" fill-opacity="0.1"/>
<circle cx="32.5" cy="18.0556" r="3.61111" fill="#11C0AB" fill-opacity="0.1"/>
<circle cx="32.5" cy="32.5" r="3.61111" fill="#11C0AB" fill-opacity="0.1"/>
<circle cx="32.5" cy="46.9445" r="3.61111" fill="#11C0AB" fill-opacity="0.1"/>
<circle cx="32.5" cy="61.3889" r="3.61111" fill="#11C0AB" fill-opacity="0.1"/>
<circle cx="61.3889" cy="3.61111" r="3.61111" fill="#11C0AB" fill-opacity="0.1"/>
<circle cx="61.3889" cy="18.0556" r="3.61111" fill="#11C0AB" fill-opacity="0.1"/>
<circle cx="61.3889" cy="32.5" r="3.61111" fill="#11C0AB" fill-opacity="0.1"/>
<circle cx="61.3889" cy="46.9445" r="3.61111" fill="#11C0AB" fill-opacity="0.1"/>
<circle cx="61.3889" cy="61.3889" r="3.61111" fill="#11C0AB" fill-opacity="0.1"/>
<circle cx="18.0556" cy="3.61111" r="3.61111" fill="#11C0AB" fill-opacity="0.1"/>
<circle cx="18.0556" cy="18.0556" r="3.61111" fill="#11C0AB" fill-opacity="0.1"/>
<circle cx="18.0556" cy="32.5" r="3.61111" fill="#11C0AB" fill-opacity="0.1"/>
<circle cx="18.0556" cy="46.9445" r="3.61111" fill="#11C0AB" fill-opacity="0.1"/>
<circle cx="18.0556" cy="61.3889" r="3.61111" fill="#11C0AB" fill-opacity="0.1"/>
<circle cx="46.9445" cy="3.61111" r="3.61111" fill="#11C0AB" fill-opacity="0.1"/>
<circle cx="46.9445" cy="18.0556" r="3.61111" fill="#11C0AB" fill-opacity="0.1"/>
<circle cx="46.9445" cy="32.5" r="3.61111" fill="#11C0AB" fill-opacity="0.1"/>
<circle cx="46.9445" cy="46.9445" r="3.61111" fill="#11C0AB" fill-opacity="0.1"/>
<circle cx="46.9445" cy="61.3889" r="3.61111" fill="#11C0AB" fill-opacity="0.1"/>
</svg>
