<svg width="67" height="67" viewBox="0 0 67 67" fill="none" xmlns="http://www.w3.org/2000/svg">
<path d="M55.877 34.2852H49.9883V28.3965C49.9883 27.3124 49.1094 26.4336 48.0254 26.4336H40.1738C39.0898 26.4336 38.2109 27.3124 38.2109 28.3965V34.2852H32.3223C31.2382 34.2852 30.3594 35.164 30.3594 36.248V44.0996C30.3594 45.1836 31.2382 46.0625 32.3223 46.0625H38.2109V51.9512C38.2109 53.0352 39.0898 53.9141 40.1738 53.9141H48.0254C49.1094 53.9141 49.9883 53.0352 49.9883 51.9512V46.0625H55.877C56.961 46.0625 57.8398 45.1836 57.8398 44.0996V36.248C57.8398 35.164 56.961 34.2852 55.877 34.2852ZM53.9141 42.1367H48.0254C46.9414 42.1367 46.0625 43.0156 46.0625 44.0996V49.9883H42.1367V44.0996C42.1367 43.0156 41.2579 42.1367 40.1738 42.1367H34.2852V38.2109H40.1738C41.2579 38.2109 42.1367 37.3321 42.1367 36.248V30.3594H46.0625V36.248C46.0625 37.3321 46.9414 38.2109 48.0254 38.2109H53.9141V42.1367Z" fill="white" fill-opacity="0.3"/>
<path d="M64.9121 24.6703L61.7656 19.9506V14.3945H63.7285C64.8126 14.3945 65.6914 13.5157 65.6914 12.4316V5.88867C65.6914 2.64166 63.0497 0 59.8027 0H28.3965C25.1495 0 22.5078 2.64166 22.5078 5.88867V12.4316C22.5078 13.5157 23.3867 14.3945 24.4707 14.3945H26.4336V19.9506L23.2871 24.6703C21.9212 26.7193 21.1992 29.1038 21.1992 31.5662V47.3711H9.81445C4.40276 47.3711 0 51.7739 0 57.1855C0 62.5972 4.40276 67 9.81445 67H59.8027C63.7713 67 67 63.7713 67 59.8027V31.5662C67 29.1038 66.2781 26.7193 64.9121 24.6703ZM57.8398 3.92578H59.8027C60.8851 3.92578 61.7656 4.80633 61.7656 5.88867V10.4688H57.8398V3.92578ZM49.9883 3.92578H53.9141V10.4688H49.9883V3.92578ZM57.8398 14.3945V18.582H30.3594V14.3945H57.8398ZM42.1367 3.92578H46.0625V10.4688H42.1367V3.92578ZM34.2852 3.92578H38.2109V10.4688H34.2852V3.92578ZM26.4336 5.88867C26.4336 4.80633 27.3141 3.92578 28.3965 3.92578H30.3594V10.4688H26.4336V5.88867ZM15.7031 63.0742H9.81445C6.56744 63.0742 3.92578 60.4326 3.92578 57.1855C3.92578 53.9385 6.56744 51.2969 9.81445 51.2969H15.7031V63.0742ZM25.5176 63.0742H19.6289V51.2969H25.5176C28.7646 51.2969 31.4062 53.9385 31.4062 57.1855C31.4062 60.4326 28.7646 63.0742 25.5176 63.0742ZM63.0742 59.8027C63.0742 61.6066 61.6066 63.0742 59.8027 63.0742H33.3638C34.5988 61.4327 35.332 59.3933 35.332 57.1855C35.332 51.7739 30.9293 47.3711 25.5176 47.3711H25.125V31.5662C25.125 29.8813 25.6189 28.2498 26.5535 26.8479L29.4469 22.5078H58.7522L61.6456 26.8479C62.5804 28.2498 63.0742 29.8813 63.0742 31.5662V59.8027Z" fill="white" fill-opacity="0.3"/>
</svg>
