<svg width="43" height="36" viewBox="0 0 43 36" fill="none" xmlns="http://www.w3.org/2000/svg">
<path opacity="0.2" d="M40.816 27.024C40.816 29.424 40 31.488 38.368 33.216C36.736 34.848 34.72 35.664 32.32 35.664C29.152 35.664 26.8 34.656 25.264 32.64C23.824 30.528 23.104 28.128 23.104 25.44C23.104 23.328 23.488 21.12 24.256 18.816C25.024 16.416 26.128 14.112 27.568 11.904C29.008 9.59999 30.736 7.488 32.752 5.568C34.768 3.55199 37.024 1.87199 39.52 0.527993L42.832 4.848C39.472 7.44 37.072 9.792 35.632 11.904C34.288 13.92 33.616 16.128 33.616 18.528C35.728 18.816 37.456 19.776 38.8 21.408C40.144 22.944 40.816 24.816 40.816 27.024ZM17.776 27.024C17.776 29.424 16.96 31.488 15.328 33.216C13.696 34.848 11.68 35.664 9.28 35.664C6.112 35.664 3.76 34.656 2.224 32.64C0.784 30.528 0.0640002 28.128 0.0640002 25.44C0.0640002 23.328 0.448 21.12 1.216 18.816C1.984 16.416 3.088 14.112 4.528 11.904C5.968 9.59999 7.696 7.488 9.712 5.568C11.728 3.55199 13.984 1.87199 16.48 0.527993L19.792 4.848C16.432 7.44 14.032 9.792 12.592 11.904C11.248 13.92 10.576 16.128 10.576 18.528C12.688 18.816 14.416 19.776 15.76 21.408C17.104 22.944 17.776 24.816 17.776 27.024Z" fill="#BDBDBD"/>
</svg>
