<svg width="67" height="67" viewBox="0 0 67 67" fill="none" xmlns="http://www.w3.org/2000/svg">
<path d="M65.279 6.00236C63.657 3.85201 61.182 2.61882 58.4885 2.61882H57.3482V1.96454C57.3482 0.880534 56.4694 0.00170633 55.3854 0.00170633C54.3014 0.00170633 53.4225 0.880534 53.4225 1.96454V7.19878C53.4225 8.28278 54.3014 9.16161 55.3854 9.16161C56.4694 9.16161 57.3482 8.28278 57.3482 7.19878V6.5445H58.4885C59.9388 6.5445 61.2715 7.20859 62.1449 8.3664C63.0182 9.52421 63.2906 10.9881 62.8922 12.3826L57.6825 30.6163C56.2287 35.7047 51.5174 39.2583 46.2255 39.2583C40.9335 39.2583 36.2222 35.7045 34.7684 30.6163L29.5589 12.3825C29.1604 10.988 29.4329 9.52408 30.3062 8.36627C31.1795 7.20833 32.5123 6.54437 33.9626 6.54437H35.1027V7.19864C35.1027 8.28265 35.9815 9.16148 37.0656 9.16148C38.1496 9.16148 39.0284 8.28265 39.0284 7.19864V1.96441C39.0284 0.880403 38.1496 0.00157547 37.0656 0.00157547C35.9815 0.00157547 35.1027 0.880403 35.1027 1.96441V2.61869H33.9626C31.2692 2.61869 28.794 3.85201 27.1721 6.00223C25.55 8.15258 25.0442 10.8711 25.7842 13.4609L30.9938 31.6946C31.9473 35.0314 33.9156 37.8996 36.6861 39.9895C37.2799 40.4375 37.8992 40.8372 38.5381 41.1934L44.2628 54.7053V56.122C44.2628 59.9554 41.1441 63.0741 37.3106 63.0741C33.4772 63.0741 30.3585 59.9554 30.3585 56.122V42.6606C30.3585 36.4554 25.3101 31.407 19.1049 31.407C12.8998 31.407 7.85135 36.4554 7.85135 42.6606V47.3071C3.37713 48.2189 0 52.1842 0 56.9238C0 62.3354 4.40264 66.738 9.81418 66.738C15.2257 66.738 19.6284 62.3354 19.6284 56.9238C19.6284 52.1844 16.2512 48.2191 11.777 47.3071V42.6606C11.777 38.62 15.0644 35.3326 19.1049 35.3326C23.1455 35.3326 26.4329 38.62 26.4329 42.6606V56.122C26.4329 62.12 31.3126 66.9997 37.3106 66.9997C43.3087 66.9997 48.1884 62.12 48.1884 56.122V54.7053L53.9132 41.1934C54.5521 40.8372 55.1714 40.4375 55.7651 39.9895C58.5356 37.8998 60.5039 35.0314 61.4573 31.6946L66.667 13.4609C67.407 10.8712 66.9009 8.15258 65.279 6.00236ZM15.7027 56.9238C15.7027 60.1708 13.0611 62.8124 9.81418 62.8124C6.56726 62.8124 3.92567 60.1708 3.92567 56.9238C3.92567 53.6769 6.56726 51.0353 9.81418 51.0353C13.0611 51.0353 15.7027 53.6769 15.7027 56.9238ZM46.2256 49.2752L43.5493 42.9584C44.4257 43.1069 45.3197 43.184 46.2257 43.184C47.1318 43.184 48.0256 43.1069 48.902 42.9584L46.2256 49.2752Z" fill="white" fill-opacity="0.3"/>
<path d="M9.81421 58.8861C10.8983 58.8861 11.7771 58.0073 11.7771 56.9232C11.7771 55.8392 10.8983 54.9603 9.81421 54.9603C8.73013 54.9603 7.85132 55.8392 7.85132 56.9232C7.85132 58.0073 8.73013 58.8861 9.81421 58.8861Z" fill="white" fill-opacity="0.3"/>
</svg>
