<svg width="17" height="17" viewBox="0 0 17 17" fill="none" xmlns="http://www.w3.org/2000/svg">
<path d="M15.2292 0H10.7362C9.88477 0 9.08438 0.3315 8.48227 0.933572L0.604197 8.81168C0.214625 9.20125 0 9.71905 0 10.2723C0 10.8226 0.214625 11.3404 0.604197 11.73L5.27 16.3958C5.65957 16.7854 6.17737 17 6.73057 17C7.28095 17 7.79875 16.7854 8.18832 16.3958L16.0664 8.51773C16.6685 7.91563 17 7.1152 17 6.2638V1.77082C17 0.79475 16.2052 0 15.2292 0ZM16.2917 6.2638C16.2917 6.92611 16.0339 7.54873 15.5664 8.01623L7.68755 15.895C7.17825 16.4043 6.28505 16.4078 5.7715 15.895L1.105 11.2285C0.849303 10.9735 0.708322 10.6335 0.708322 10.2694C0.708322 9.90818 0.84927 9.56818 1.105 9.31248L8.98307 1.43438C9.452 0.966178 10.0739 0.708322 10.7362 0.708322H15.2291C15.8149 0.708322 16.2916 1.18502 16.2916 1.77082V6.2638H16.2917Z" fill="#11C0AB"/>
<path d="M13.1043 2.125C12.1282 2.125 11.3335 2.91975 11.3335 3.89582C11.3335 4.87189 12.1282 5.66664 13.1043 5.66664C14.0804 5.66664 14.8751 4.87193 14.8751 3.89582C14.8751 2.91975 14.0804 2.125 13.1043 2.125ZM13.1043 4.95832C12.5185 4.95832 12.0418 4.48163 12.0418 3.89582C12.0418 3.31002 12.5185 2.83332 13.1043 2.83332C13.6901 2.83332 14.1668 3.31002 14.1668 3.89582C14.1668 4.48163 13.6901 4.95832 13.1043 4.95832Z" fill="#11C0AB"/>
</svg>
