<svg width="24" height="24" viewBox="0 0 24 24" fill="none" xmlns="http://www.w3.org/2000/svg">
<path d="M11.9997 23.8327C18.5347 23.8327 23.8324 18.535 23.8324 12C23.8324 5.46493 18.5347 0.167236 11.9997 0.167236C5.46469 0.167236 0.166992 5.46493 0.166992 12C0.166992 18.535 5.46469 23.8327 11.9997 23.8327Z" fill="#8040BD"/>
<path fill-rule="evenodd" clip-rule="evenodd" d="M15.2196 11.2715C15.2305 9.99518 14.1432 8.82428 12.7953 8.66185C12.7687 8.65821 12.7396 8.65337 12.7081 8.64852C12.6414 8.63761 12.5723 8.62549 12.5032 8.62549C12.2268 8.62549 12.1529 8.82064 12.1335 8.93579C12.1141 9.04852 12.1323 9.14306 12.1868 9.217C12.2777 9.34185 12.439 9.36367 12.5687 9.38185C12.6062 9.3867 12.6426 9.39155 12.6729 9.39761C13.8838 9.66912 14.2911 10.0946 14.4911 11.2946C14.4959 11.3249 14.4984 11.3612 14.4996 11.3988C14.5093 11.5431 14.5262 11.8412 14.8474 11.8412C14.8741 11.8412 14.9032 11.8388 14.9335 11.834C15.2317 11.7891 15.2232 11.5152 15.2184 11.3843C15.2171 11.3479 15.2159 11.3128 15.2184 11.2897C15.2196 11.2837 15.2196 11.2776 15.2196 11.2715Z" fill="#FEFEFE"/>
<path fill-rule="evenodd" clip-rule="evenodd" d="M12.4238 8.19276C12.4602 8.19518 12.4941 8.19761 12.522 8.20246C14.5111 8.50791 15.425 9.45094 15.6784 11.4546C15.6832 11.4885 15.6832 11.5309 15.6844 11.5746C15.6869 11.7309 15.6917 12.057 16.042 12.0643H16.0529C16.1632 12.0643 16.2505 12.0315 16.3123 11.9661C16.4214 11.8522 16.4141 11.6825 16.4081 11.5467C16.4056 11.5128 16.4044 11.4812 16.4056 11.4546C16.4299 9.40367 14.6566 7.54549 12.6081 7.4764C12.5996 7.47519 12.5911 7.4764 12.5826 7.47761C12.579 7.47761 12.5717 7.47882 12.5584 7.47882C12.5378 7.47882 12.5135 7.4764 12.4869 7.47519C12.4541 7.47276 12.4178 7.47034 12.3814 7.47034C12.0541 7.47034 11.9923 7.70185 11.985 7.84003C11.9669 8.16003 12.2759 8.18185 12.4238 8.19276ZM15.5826 14.0449C15.5402 14.0134 15.4966 13.9794 15.4566 13.9467C15.2384 13.7722 15.0081 13.6109 14.7838 13.4546C14.7378 13.4231 14.6917 13.3903 14.6456 13.3576C14.3596 13.1576 14.1014 13.0594 13.859 13.0594C13.5317 13.0594 13.2469 13.24 13.0105 13.5976C12.9062 13.7552 12.7802 13.8315 12.6238 13.8315C12.5317 13.8315 12.4262 13.8061 12.3123 13.754C11.3887 13.3346 10.7281 12.6934 10.3511 11.8449C10.1693 11.4352 10.2287 11.1673 10.5487 10.9491C10.7317 10.8255 11.0711 10.5952 11.0469 10.154C11.019 9.65337 9.91473 8.1467 9.44928 7.97579C9.2517 7.90428 9.04443 7.90306 8.83231 7.97458C8.29776 8.15397 7.91352 8.47034 7.72201 8.88731C7.53655 9.29094 7.54504 9.76488 7.74625 10.2582C8.32685 11.6837 9.14261 12.9273 10.1717 13.9528C11.1802 14.9564 12.4178 15.7782 13.8529 16.3964C13.9826 16.4522 14.1184 16.4825 14.2178 16.5043C14.2505 16.5128 14.2796 16.5188 14.3014 16.5249C14.3123 16.5273 14.3244 16.5297 14.3378 16.5297H14.3487C15.0238 16.5297 15.8335 15.9128 16.0832 15.2097C16.3014 14.594 15.9026 14.2897 15.5826 14.0449ZM12.722 9.82185C12.6069 9.82427 12.3669 9.83034 12.282 10.0752C12.242 10.1891 12.2469 10.2885 12.2953 10.3709C12.3681 10.4909 12.505 10.5273 12.6299 10.5467C13.082 10.6194 13.3147 10.8703 13.362 11.3346C13.3826 11.5515 13.5293 11.7031 13.7159 11.7031C13.7305 11.7031 13.745 11.7018 13.7584 11.7006C13.9838 11.674 14.0929 11.5079 14.0832 11.2085C14.0869 10.8958 13.9232 10.5406 13.6444 10.257C13.3656 9.97337 13.0287 9.81458 12.722 9.82185Z" fill="#FEFEFE"/>
</svg>
