<svg xmlns="http://www.w3.org/2000/svg" viewBox="0 0 50 50" width="40" height="40">
	<style>
		tspan { white-space:pre }
		.shp0 { fill: #1976d2 } 
	</style>
	<path id="Layer" fill-rule="evenodd" class="shp0" d="M50 25C50 38.81 38.81 50 25 50C11.19 50 0 38.81 0 25C0 11.19 11.19 0 25 0C38.81 0 50 11.19 50 25ZM37.41 24.9C38.33 23.61 39.32 22.37 40.26 21.08C41.12 19.88 42.01 18.68 42.47 17.24C42.76 16.32 42.5 15.92 41.56 15.76C41.4 15.73 41.23 15.73 41.07 15.73L35.5 15.72C34.81 15.71 34.43 16.01 34.19 16.62C33.86 17.44 33.52 18.26 33.13 19.06C32.25 20.86 31.26 22.59 29.87 24.07C29.57 24.39 29.23 24.8 28.72 24.63C28.08 24.4 27.89 23.34 27.9 22.99L27.9 16.56C27.77 15.64 27.57 15.23 26.65 15.05L20.87 15.05C20.1 15.05 19.71 15.35 19.3 15.83C19.06 16.11 18.99 16.29 19.48 16.39C20.44 16.57 20.98 17.19 21.12 18.15C21.35 19.69 21.33 21.24 21.2 22.78C21.16 23.23 21.09 23.68 20.91 24.11C20.63 24.77 20.17 24.9 19.58 24.5C19.04 24.13 18.67 23.61 18.3 23.08C16.91 21.12 15.8 19.01 14.9 16.79C14.64 16.14 14.19 15.75 13.51 15.74C11.83 15.72 10.16 15.71 8.49 15.75C7.48 15.76 7.19 16.25 7.59 17.16C9.42 21.21 11.44 25.15 14.09 28.74C15.45 30.58 17 32.2 19.02 33.35C21.3 34.66 23.76 35.05 26.35 34.93C27.56 34.87 27.92 34.56 27.98 33.35C28.02 32.52 28.11 31.7 28.52 30.96C28.92 30.23 29.53 30.09 30.22 30.55C30.57 30.77 30.87 31.06 31.15 31.37C31.83 32.11 32.49 32.88 33.19 33.6C34.08 34.51 35.13 35.04 36.46 34.93L41.58 34.93C42.4 34.88 42.83 33.87 42.36 32.94C42.03 32.3 41.59 31.72 41.13 31.17C40.08 29.91 38.85 28.84 37.68 27.7C36.63 26.68 36.56 26.08 37.41 24.9Z" />
</svg>