<svg width="25" height="25" viewBox="0 0 25 25" fill="none" xmlns="http://www.w3.org/2000/svg">
<path d="M12.4996 24.8257C19.3069 24.8257 24.8253 19.3073 24.8253 12.5C24.8253 5.69263 19.3069 0.174194 12.4996 0.174194C5.69226 0.174194 0.173828 5.69263 0.173828 12.5C0.173828 19.3073 5.69226 24.8257 12.4996 24.8257Z" fill="#51B050"/>
<path fill-rule="evenodd" clip-rule="evenodd" d="M18.0895 12.3561C18.0895 15.3637 15.6324 17.8006 12.6008 17.8006C11.6387 17.8006 10.7359 17.5556 9.9493 17.1238L6.91016 18.0897L7.90132 15.168C7.38477 14.3211 7.11212 13.3481 7.11344 12.3561C7.11344 9.34853 9.57051 6.9104 12.6008 6.9104C15.6324 6.9104 18.0895 9.34853 18.0895 12.3561ZM12.6008 7.77782C10.0566 7.77782 7.98718 9.83212 7.98718 12.3561C7.98718 13.3574 8.3142 14.2854 8.86596 15.0405L8.29021 16.7399L10.0629 16.1768C10.7915 16.6554 11.6639 16.9344 12.6021 16.9344C15.145 16.9344 17.2157 14.8801 17.2157 12.3561C17.2157 9.83212 15.145 7.77782 12.6008 7.77782ZM15.3723 13.6099C15.3382 13.5543 15.2485 13.5215 15.1147 13.4546C14.9796 13.3877 14.318 13.0644 14.1955 13.0202C14.0718 12.9761 13.9821 12.9533 13.8925 13.0872C13.8028 13.221 13.5453 13.5215 13.467 13.6099C13.3887 13.6995 13.3104 13.7109 13.1753 13.644C13.0415 13.5771 12.6071 13.4357 12.0932 12.9811C11.6942 12.6276 11.424 12.1907 11.3458 12.0569C11.2675 11.9243 11.3369 11.8511 11.4038 11.7854C11.4644 11.7248 11.5389 11.6288 11.6059 11.5518C11.674 11.4735 11.6955 11.418 11.741 11.3283C11.7852 11.2399 11.7637 11.1617 11.7296 11.0947C11.6955 11.0278 11.4266 10.3713 11.3142 10.1036C11.2031 9.83717 11.0907 9.88136 11.0124 9.88136C10.9329 9.88136 10.8445 9.87 10.7536 9.87C10.6639 9.87 10.5187 9.90409 10.395 10.0367C10.2725 10.1705 9.92405 10.4937 9.92405 11.1503C9.92405 11.8069 10.4064 12.442 10.4733 12.5304C10.5415 12.62 11.4038 14.0114 12.7713 14.5455C14.14 15.0796 14.14 14.9016 14.3862 14.8788C14.6324 14.8574 15.1816 14.5569 15.294 14.245C15.4064 13.9331 15.4064 13.6655 15.3723 13.6099Z" fill="#FEFEFE"/>
</svg>
