<svg width="28" height="29" viewBox="0 0 28 29" fill="none" xmlns="http://www.w3.org/2000/svg">
<path d="M27.822 13.936C27.5719 13.5816 21.6119 5.2583 13.9999 5.2583C6.38784 5.2583 0.427548 13.5816 0.17768 13.9357C-0.0592267 14.2719 -0.0592267 14.7279 0.17768 15.0641C0.427548 15.4185 6.38784 23.7418 13.9999 23.7418C21.6119 23.7418 27.5719 15.4185 27.822 15.0644C28.0593 14.7282 28.0593 14.2719 27.822 13.936ZM13.9999 21.8297C8.3928 21.8297 3.53648 16.3054 2.09891 14.4994C3.53462 12.6918 8.38077 7.17038 13.9999 7.17038C19.6067 7.17038 24.4626 12.6938 25.9008 14.5007C24.4651 16.3082 19.619 21.8297 13.9999 21.8297Z" fill="#61656F"/>
<path d="M13.9994 8.76379C10.9456 8.76379 8.46094 11.3372 8.46094 14.5001C8.46094 17.663 10.9456 20.2364 13.9994 20.2364C17.0533 20.2364 19.5379 17.663 19.5379 14.5001C19.5379 11.3372 17.0533 8.76379 13.9994 8.76379ZM13.9994 18.3242C11.9634 18.3242 10.3071 16.6088 10.3071 14.5001C10.3071 12.3914 11.9635 10.6759 13.9994 10.6759C16.0354 10.6759 17.6917 12.3914 17.6917 14.5001C17.6917 16.6088 16.0354 18.3242 13.9994 18.3242Z" fill="#61656F"/>
</svg>
